<svg class="d-block" xmlns="http://www.w3.org/2000/svg" version="1.1" xmlns:xlink="http://www.w3.org/1999/xlink" xmlns:svgjs="http://svgjs.dev/svgjs" width="1000" height="1000" viewBox="-500 -500 1000 1000"><polygon points="5.591883092036788,13.499999999999998 13.5,5.591883092036788 13.5,-5.591883092036793 5.591883092036785,-13.500000000000004 -5.591883092036789,-13.499999999999998 -13.499999999999996,-5.591883092036781 -13.499999999999996,5.591883092036788 -5.591883092036786,13.500000000000004" fill="#d6f0ff" stroke="#3d8dba" stroke-width="0.5"></polygon><circle r="0.5" cx="1.1102230246251565e-15" cy="4.440892098500626e-16" stroke="#3d8dba" fill="#3d8dba"></circle><polygon points="15.124876285060015,-53.50000000000001 -15.124876285060035,-53.49999999999999 -3.941110100986465,-26.499999999999996 3.9411101009864553,-26.500000000000007" fill="#d6f0ff" stroke="#3d8dba" stroke-width="0.5"></polygon><circle r="0.5" cx="-7.327471962526033e-15" cy="-40" stroke="#3d8dba" fill="#3d8dba"></circle><polygon points="27.135310207706734,-48.52511537925384 15.951544023633181,-21.52511537925384 21.52511537925383,-15.951544023633195 48.52511537925382,-27.13531020770677" fill="#d6f0ff" stroke="#3d8dba" stroke-width="0.5"></polygon><circle r="0.5" cx="28.28427124746189" cy="-28.28427124746191" stroke="#3d8dba" fill="#3d8dba"></circle><polygon points="53.5,-15.124876285060033 26.5,-3.9411101009864637 26.5,3.9411101009864598 53.5,15.124876285060022" fill="#d6f0ff" stroke="#3d8dba" stroke-width="0.5"></polygon><circle r="0.5" cx="40" cy="-3.552713678800501e-15" stroke="#3d8dba" fill="#3d8dba"></circle><polygon points="-26.499999999999996,-3.941110100986454 -53.5,-15.124876285060019 -53.49999999999998,15.12487628506003 -26.500000000000004,3.9411101009864624" fill="#d6f0ff" stroke="#3d8dba" stroke-width="0.5"></polygon><circle r="0.5" cx="-39.99999999999999" cy="4.9960036108132044e-15" stroke="#3d8dba" fill="#3d8dba"></circle><polygon points="21.52511537925382,15.951544023633188 15.951544023633183,21.525115379253826 27.135310207706755,48.52511537925383 48.52511537925383,27.135310207706752" fill="#d6f0ff" stroke="#3d8dba" stroke-width="0.5"></polygon><circle r="0.5" cx="28.2842712474619" cy="28.2842712474619" stroke="#3d8dba" fill="#3d8dba"></circle><polygon points="-21.52511537925383,15.951544023633192 -48.52511537925384,27.13531020770676 -27.13531020770676,48.52511537925384 -15.95154402363319,21.525115379253833" fill="#d6f0ff" stroke="#3d8dba" stroke-width="0.5"></polygon><circle r="0.5" cx="-28.284271247461906" cy="28.284271247461906" stroke="#3d8dba" fill="#3d8dba"></circle><polygon points="-3.941110100986461,26.500000000000007 -15.124876285060017,53.5 15.12487628506003,53.49999999999999 3.9411101009864655,26.5" fill="#d6f0ff" stroke="#3d8dba" stroke-width="0.5"></polygon><circle r="0.5" cx="3.9968028886505635e-15" cy="40" stroke="#3d8dba" fill="#3d8dba"></circle><polygon points="-27.13531020770676,-48.525115379253826 -48.52511537925384,-27.135310207706752 -21.52511537925383,-15.951544023633183 -15.95154402363319,-21.525115379253823" fill="#d6f0ff" stroke="#3d8dba" stroke-width="0.5"></polygon><circle r="0.5" cx="-28.284271247461906" cy="-28.28427124746189" stroke="#3d8dba" fill="#3d8dba"></circle><polygon points="-23.139423631207514,-119.9233873872529 -11.49834643810293,-119.9233873872529 -11.49834643810293,-134.55723259262393 -18.929008234133825,-138.9475561790205" fill="#d6f0ff" stroke="#3d8dba" stroke-width="0.5"></polygon><circle r="0.5" cx="-16.2662811853868" cy="-128.33789088653756" stroke="#3d8dba" fill="#3d8dba"></circle><polygon points="-29.051347187411928,-93.21119369362644 -11.49834643810293,-93.21119369362644 -11.49834643810293,-113.9233873872529 -24.46733932933642,-113.9233873872529" fill="#d6f0ff" stroke="#3d8dba" stroke-width="0.5"></polygon><circle r="0.5" cx="-19.12884484823855" cy="-103.56729054043967" stroke="#3d8dba" fill="#3d8dba"></circle><polygon points="-28.542417999534774,-86.69994421218033 -20.481325491794095,-66.5 -11.49834643810293,-66.5 -11.49834643810293,-87.13384837441296" fill="#d6f0ff" stroke="#3d8dba" stroke-width="0.5"></polygon><circle r="0.5" cx="-18.005109091883682" cy="-76.70844814664832" stroke="#3d8dba" fill="#3d8dba"></circle><polygon points="-5.498346438102931,-131.01219956037772 -5.498346438102931,-119.9233873872529 13.06746716428659,-119.9233873872529 13.06746716428659,-120.04279581187822" fill="#d6f0ff" stroke="#3d8dba" stroke-width="0.5"></polygon><circle r="0.5" cx="3.7845603630918294" cy="-122.72544253669042" stroke="#3d8dba" fill="#3d8dba"></circle><polygon points="-5.498346438102931,-113.9233873872529 -5.498346438102931,-93.21119369362644 13.06746716428659,-93.21119369362644 13.06746716428659,-113.9233873872529" fill="#d6f0ff" stroke="#3d8dba" stroke-width="0.5"></polygon><circle r="0.5" cx="3.7845603630918294" cy="-103.56729054043967" stroke="#3d8dba" fill="#3d8dba"></circle><polygon points="-5.498346438102931,-87.21119369362646 -5.498346438102931,-66.5 13.06746716428659,-66.5 13.06746716428659,-87.21119369362646" fill="#d6f0ff" stroke="#3d8dba" stroke-width="0.5"></polygon><circle r="0.5" cx="3.7845603630918294" cy="-76.85559684681323" stroke="#3d8dba" fill="#3d8dba"></circle><polygon points="19.06746716428659,-113.9233873872529 19.06746716428659,-93.21119369362644 31.573791290985003,-93.21119369362644 36.863997563849765,-105.98288142532776 23.424620458423174,-113.9233873872529" fill="#d6f0ff" stroke="#3d8dba" stroke-width="0.5"></polygon><circle r="0.5" cx="25.999468728366224" cy="-104.0504087174173" stroke="#3d8dba" fill="#3d8dba"></circle><polygon points="19.06746716428659,-87.21119369362646 19.06746716428659,-66.5 20.509652595910243,-66.5 29.088509916746432,-87.21119369362646" fill="#d6f0ff" stroke="#3d8dba" stroke-width="0.5"></polygon><circle r="0.5" cx="21.933274210307463" cy="-76.85559684681323" stroke="#3d8dba" fill="#3d8dba"></circle><polygon points="41.79501432035006,-83.46586455952101 46.59632536560556,-83.46586455952101 46.1592527469702,-92.98053990980142" fill="#d6f0ff" stroke="#3d8dba" stroke-width="0.5"></polygon><circle r="0.5" cx="44.850197477641935" cy="-86.63742300961447" stroke="#3d8dba" fill="#3d8dba"></circle><polygon points="32.52008651855697,-61.52511537925384 36.32209699942672,-57.72310489838409 46.73729901257676,-57.72310489838409 46.73729901257676,-77.46586455952101 39.12296102341143,-77.46586455952101" fill="#d6f0ff" stroke="#3d8dba" stroke-width="0.5"></polygon><circle r="0.5" cx="40.28794851330973" cy="-66.38061085901282" stroke="#3d8dba" fill="#3d8dba"></circle><polygon points="42.32209699942673,-51.72310489838409 46.73729901257676,-47.307902885234064 46.73729901257676,-51.72310489838409" fill="#d6f0ff" stroke="#3d8dba" stroke-width="0.5"></polygon><circle r="0.5" cx="45.26556500819342" cy="-50.25137089400075" stroke="#3d8dba" fill="#3d8dba"></circle><polygon points="52.73729901257676,-102.78307470959732 52.73729901257676,-83.46586455952101 67.41276354837538,-83.46586455952101 67.02734266916237,-97.84513778977835 57.46742226217912,-103.14733536042704" fill="#d6f0ff" stroke="#3d8dba" stroke-width="0.5"></polygon><circle r="0.5" cx="59.47642530097407" cy="-94.14145539576893" stroke="#3d8dba" fill="#3d8dba"></circle><polygon points="52.73729901257676,-77.46586455952101 52.73729901257676,-57.72310489838409 67.49425278790638,-57.72310489838409 67.49425278790638,-77.46586455952101" fill="#d6f0ff" stroke="#3d8dba" stroke-width="0.5"></polygon><circle r="0.5" cx="60.11577590024157" cy="-67.59448472895255" stroke="#3d8dba" fill="#3d8dba"></circle><polygon points="52.73729901257676,-51.72310489838409 52.73729901257676,-41.30790288523407 61.52511537925383,-32.520086518557 67.49425278790638,-34.99258418888948 67.49425278790638,-51.72310489838409" fill="#d6f0ff" stroke="#3d8dba" stroke-width="0.5"></polygon><circle r="0.5" cx="60.39764379604402" cy="-42.453356677889744" stroke="#3d8dba" fill="#3d8dba"></circle><polygon points="73.49425278790638,-77.46586455952101 73.49425278790638,-57.72310489838409 82.1424992974999,-57.72310489838409 74.90894161231634,-77.46586455952101" fill="#d6f0ff" stroke="#3d8dba" stroke-width="0.5"></polygon><circle r="0.5" cx="76.00998662140725" cy="-67.59448472895255" stroke="#3d8dba" fill="#3d8dba"></circle><polygon points="73.49425278790638,-51.72310489838409 73.49425278790638,-37.47786556312805 87.4432125379657,-43.255713872599046 84.34084172054705,-51.72310489838409" fill="#d6f0ff" stroke="#3d8dba" stroke-width="0.5"></polygon><circle r="0.5" cx="79.69313995858138" cy="-46.04494730812382" stroke="#3d8dba" fill="#3d8dba"></circle><polygon points="66.5,-20.50965259591028 66.5,-14.902450836192346 89.70013157033802,-14.902450836192346 89.70013157033802,-30.1194617411845" fill="#d6f0ff" stroke="#3d8dba" stroke-width="0.5"></polygon><circle r="0.5" cx="78.10006578516901" cy="-20.10850400236987" stroke="#3d8dba" fill="#3d8dba"></circle><polygon points="66.5,-8.902450836192347 66.5,9.024208959241157 89.70013157033802,9.024208959241157 89.70013157033802,-8.902450836192347" fill="#d6f0ff" stroke="#3d8dba" stroke-width="0.5"></polygon><circle r="0.5" cx="78.10006578516901" cy="0.06087906152440503" stroke="#3d8dba" fill="#3d8dba"></circle><polygon points="66.5,15.02420895924116 66.5,20.509652595910257 89.70013157033802,30.11946174118448 89.70013157033802,15.02420895924116" fill="#d6f0ff" stroke="#3d8dba" stroke-width="0.5"></polygon><circle r="0.5" cx="78.10006578516901" cy="20.169383063894266" stroke="#3d8dba" fill="#3d8dba"></circle><polygon points="95.89539872185985,-14.902450836192346 114.63696021579608,-14.902450836192346 117.92271554213984,-22.508321678089548 96.90469367062742,-30.897563194370285" fill="#d6f0ff" stroke="#3d8dba" stroke-width="0.5"></polygon><circle r="0.5" cx="106.3399420376058" cy="-20.80269663621113" stroke="#3d8dba" fill="#3d8dba"></circle><polygon points="95.70013157033802,-8.902450836192347 95.70013157033802,9.024208959241157 104.30058302787494,9.024208959241157 112.04494513062471,-8.902450836192347" fill="#d6f0ff" stroke="#3d8dba" stroke-width="0.5"></polygon><circle r="0.5" cx="101.93644782479393" cy="0.06087906152440503" stroke="#3d8dba" fill="#3d8dba"></circle><polygon points="95.9161423397161,15.02420895924116 96.56488743170486,24.347208612104875 101.35727910393393,15.02420895924116" fill="#d6f0ff" stroke="#3d8dba" stroke-width="0.5"></polygon><circle r="0.5" cx="97.94610295845162" cy="18.13187551019573" stroke="#3d8dba" fill="#3d8dba"></circle><polygon points="-105.51034613467183,-15.13458646686628 -92.69733346602851,-15.13458646686628 -92.69733346602851,-31.360943415549805 -102.08458345467109,-35.249269674232245 -103.39720385978349,-31.194594041266726" fill="#d6f0ff" stroke="#3d8dba" stroke-width="0.5"></polygon><circle r="0.5" cx="-99.27736007623669" cy="-25.614796012956266" stroke="#3d8dba" fill="#3d8dba"></circle><polygon points="-109.0801361407144,11.996030916239967 -92.69733346602851,11.996030916239967 -92.69733346602851,-9.134586466866278 -106.29981361098487,-9.134586466866278" fill="#d6f0ff" stroke="#3d8dba" stroke-width="0.5"></polygon><circle r="0.5" cx="-100.19365417093907" cy="1.4307222246868445" stroke="#3d8dba" fill="#3d8dba"></circle><polygon points="-112.57600946567,38.564877105689156 -111.05838470052161,38.96633985630415 -92.69733346602851,31.36094341554984 -92.69733346602851,17.996030916239967 -109.86960361702744,17.996030916239967" fill="#d6f0ff" stroke="#3d8dba" stroke-width="0.5"></polygon><circle r="0.5" cx="-103.77973294305521" cy="28.976844442004612" stroke="#3d8dba" fill="#3d8dba"></circle><polygon points="-86.69733346602854,-28.875662041311255 -86.69733346602854,-15.13458646686628 -66.50000000000001,-15.13458646686628 -66.50000000000001,-20.50965259591025" fill="#d6f0ff" stroke="#3d8dba" stroke-width="0.5"></polygon><circle r="0.5" cx="-76.59866673301427" cy="-19.913621892738515" stroke="#3d8dba" fill="#3d8dba"></circle><polygon points="-86.69733346602854,-9.134586466866278 -86.69733346602854,11.996030916239967 -66.5,11.996030916239967 -66.50000000000003,-9.134586466866278" fill="#d6f0ff" stroke="#3d8dba" stroke-width="0.5"></polygon><circle r="0.5" cx="-76.59866673301428" cy="1.4307222246868445" stroke="#3d8dba" fill="#3d8dba"></circle><polygon points="-86.69733346602854,17.996030916239967 -86.69733346602854,28.875662041311283 -66.5,20.509652595910268 -66.5,17.996030916239967" fill="#d6f0ff" stroke="#3d8dba" stroke-width="0.5"></polygon><circle r="0.5" cx="-76.59866673301427" cy="21.344344117425372" stroke="#3d8dba" fill="#3d8dba"></circle><polygon points="44.73407414139163,49.31112775641919 54.878983248337924,49.31112775641919 54.878983248337924,39.16621864947289" fill="#d6f0ff" stroke="#3d8dba" stroke-width="0.5"></polygon><circle r="0.5" cx="51.49734687935583" cy="45.92949138743709" stroke="#3d8dba" fill="#3d8dba"></circle><polygon points="32.520086518557,61.52511537925382 37.124813734739966,72.64191027559123 54.878983248337924,72.64191027559123 54.878983248337924,55.31112775641919 38.73407414139163,55.31112775641919" fill="#d6f0ff" stroke="#3d8dba" stroke-width="0.5"></polygon><circle r="0.5" cx="43.62738817827289" cy="63.48623828865493" stroke="#3d8dba" fill="#3d8dba"></circle><polygon points="39.61009510897853,78.64191027559123 46.78874027495814,95.97269279476326 54.878983248337924,95.97269279476326 54.878983248337924,78.64191027559123" fill="#d6f0ff" stroke="#3d8dba" stroke-width="0.5"></polygon><circle r="0.5" cx="49.03920047015313" cy="87.30730153517725" stroke="#3d8dba" fill="#3d8dba"></circle><polygon points="49.27402164919671,101.97269279476326 54.878983248337924,115.50426710399037 54.878983248337924,101.97269279476326" fill="#d6f0ff" stroke="#3d8dba" stroke-width="0.5"></polygon><circle r="0.5" cx="53.010662715290856" cy="106.48321756450564" stroke="#3d8dba" fill="#3d8dba"></circle><polygon points="60.87898324833792,33.166218649472896 60.87898324833792,49.31112775641919 83.77762125942867,49.31112775641919 83.77762125942867,41.737376250912455 61.52511537925383,32.52008651855698" fill="#d6f0ff" stroke="#3d8dba" stroke-width="0.5"></polygon><circle r="0.5" cx="70.16766487895741" cy="41.20918738635614" stroke="#3d8dba" fill="#3d8dba"></circle><polygon points="60.87898324833792,55.31112775641919 60.87898324833792,72.64191027559123 83.77762125942867,72.64191027559123 83.77762125942867,55.31112775641919" fill="#d6f0ff" stroke="#3d8dba" stroke-width="0.5"></polygon><circle r="0.5" cx="72.3283022538833" cy="63.97651901600521" stroke="#3d8dba" fill="#3d8dba"></circle><polygon points="60.87898324833792,78.64191027559123 60.87898324833792,95.97269279476326 83.77762125942867,95.97269279476326 83.77762125942867,78.64191027559123" fill="#d6f0ff" stroke="#3d8dba" stroke-width="0.5"></polygon><circle r="0.5" cx="72.3283022538833" cy="87.30730153517725" stroke="#3d8dba" fill="#3d8dba"></circle><polygon points="60.87898324833792,101.97269279476326 60.87898324833792,116.59078672286182 83.77762125942867,107.71082291201475 83.77762125942867,101.97269279476326" fill="#d6f0ff" stroke="#3d8dba" stroke-width="0.5"></polygon><circle r="0.5" cx="72.3283022538833" cy="107.06174880610077" stroke="#3d8dba" fill="#3d8dba"></circle><polygon points="89.77762125942867,44.22265762515103 89.77762125942867,49.31112775641919 94.12738686770463,49.31112775641919 92.67954822740472,45.42467513230295" fill="#d6f0ff" stroke="#3d8dba" stroke-width="0.5"></polygon><circle r="0.5" cx="91.59054440349168" cy="47.06739706757309" stroke="#3d8dba" fill="#3d8dba"></circle><polygon points="89.77762125942867,55.31112775641918 89.77762125942867,72.64191027559123 102.81891400226532,72.64191027559123 96.36259534236726,55.31112775641918" fill="#d6f0ff" stroke="#3d8dba" stroke-width="0.5"></polygon><circle r="0.5" cx="94.68418796587247" cy="63.976519016005206" stroke="#3d8dba" fill="#3d8dba"></circle><polygon points="89.77762125942867,78.64191027559123 89.77762125942867,95.95072338549922 110.93918266807846,95.7963176888278 105.00167625787347,78.64191027559123" fill="#d6f0ff" stroke="#3d8dba" stroke-width="0.5"></polygon><circle r="0.5" cx="98.87402536120231" cy="87.25771540637736" stroke="#3d8dba" fill="#3d8dba"></circle><polygon points="89.77762125942867,101.97269279476326 89.77762125942867,105.38405645370938 98.57445683380085,101.97269279476326" fill="#d6f0ff" stroke="#3d8dba" stroke-width="0.5"></polygon><circle r="0.5" cx="92.70989978421939" cy="103.10981401441195" stroke="#3d8dba" fill="#3d8dba"></circle><polygon points="-99.70430521787402,48.33442475013054 -96.28775094349189,52.20663829261787 -82.48245980983862,52.20663829261787 -82.48245980983862,41.200902813029465" fill="#d6f0ff" stroke="#3d8dba" stroke-width="0.5"></polygon><circle r="0.5" cx="-90.23924394526077" cy="48.48715103709894" stroke="#3d8dba" fill="#3d8dba"></circle><polygon points="-90.99379558143177,58.20663829261786 -82.48245980983862,67.85311453522937 -82.48245980983862,58.20663829261786" fill="#d6f0ff" stroke="#3d8dba" stroke-width="0.5"></polygon><circle r="0.5" cx="-85.319571733703" cy="61.422130373488365" stroke="#3d8dba" fill="#3d8dba"></circle><polygon points="-76.48245980983864,38.715621438790905 -76.48245980983864,52.20663829261787 -57.231402523542904,52.20663829261787 -57.231402523542904,36.81379937426792 -61.52511537925383,32.52008651855699" fill="#d6f0ff" stroke="#3d8dba" stroke-width="0.5"></polygon><circle r="0.5" cx="-65.79056800920338" cy="42.492556783370304" stroke="#3d8dba" fill="#3d8dba"></circle><polygon points="-76.48245980983864,58.20663829261786 -76.48245980983864,74.65332298768416 -73.14761348558518,78.43293134798856 -57.231402523542904,78.43293134798856 -57.231402523542904,58.20663829261786" fill="#d6f0ff" stroke="#3d8dba" stroke-width="0.5"></polygon><circle r="0.5" cx="-68.11506763046965" cy="69.5864924537794" stroke="#3d8dba" fill="#3d8dba"></circle><polygon points="-67.85365812352502,84.43293134798857 -57.231402523542904,96.47185673384425 -57.231402523542904,84.43293134798857" fill="#d6f0ff" stroke="#3d8dba" stroke-width="0.5"></polygon><circle r="0.5" cx="-60.77215439020361" cy="88.44590647660714" stroke="#3d8dba" fill="#3d8dba"></circle><polygon points="-51.2314025235429,42.81379937426793 -51.2314025235429,52.20663829261787 -41.83856360519296,52.20663829261787" fill="#d6f0ff" stroke="#3d8dba" stroke-width="0.5"></polygon><circle r="0.5" cx="-48.100456217426256" cy="49.075691986501226" stroke="#3d8dba" fill="#3d8dba"></circle><polygon points="-51.2314025235429,58.20663829261786 -51.2314025235429,78.43293134798856 -39.5235332029153,78.43293134798856 -32.52008651855699,61.52511537925384 -35.83856360519297,58.20663829261786" fill="#d6f0ff" stroke="#3d8dba" stroke-width="0.5"></polygon><circle r="0.5" cx="-42.06899767475021" cy="66.96085093209334" stroke="#3d8dba" fill="#3d8dba"></circle><polygon points="-51.2314025235429,84.43293134798857 -51.2314025235429,102.89388490027181 -51.01904078959941,103.05096434253475 -42.24844907465854,84.43293134798857" fill="#d6f0ff" stroke="#3d8dba" stroke-width="0.5"></polygon><circle r="0.5" cx="-48.93257372783594" cy="93.70267798469594" stroke="#3d8dba" fill="#3d8dba"></circle><polygon points="-26.184609481557196,80.20055787921144 -14.629713111553523,80.20055787921144 -14.629713111553523,66.5 -20.509652595910254,66.5" fill="#d6f0ff" stroke="#3d8dba" stroke-width="0.5"></polygon><circle r="0.5" cx="-18.988422075143625" cy="73.35027893960572" stroke="#3d8dba" fill="#3d8dba"></circle><polygon points="-34.34526195500508,99.90211575842288 -14.629713111553523,99.90211575842288 -14.629713111553523,86.20055787921144 -28.669890855795767,86.20055787921144" fill="#d6f0ff" stroke="#3d8dba" stroke-width="0.5"></polygon><circle r="0.5" cx="-23.06864475847697" cy="93.05133681881716" stroke="#3d8dba" fill="#3d8dba"></circle><polygon points="-37.92589261565651,108.5465228612165 -20.675456792727484,119.60367363763433 -14.629713111553523,119.60367363763433 -14.629713111553523,105.9021157584229 -36.83054332924366,105.9021157584229" fill="#d6f0ff" stroke="#3d8dba" stroke-width="0.5"></polygon><circle r="0.5" cx="-24.938263792146945" cy="111.91162033066618" stroke="#3d8dba" fill="#3d8dba"></circle><polygon points="-8.629713111553524,66.5 -8.629713111553524,80.20055787921144 15.399722515576187,80.20055787921144 15.399722515576187,66.5" fill="#d6f0ff" stroke="#3d8dba" stroke-width="0.5"></polygon><circle r="0.5" cx="3.385004702011331" cy="73.35027893960572" stroke="#3d8dba" fill="#3d8dba"></circle><polygon points="-8.629713111553524,86.20055787921144 -8.629713111553524,99.90211575842288 15.399722515576187,99.90211575842288 15.399722515576187,86.20055787921144" fill="#d6f0ff" stroke="#3d8dba" stroke-width="0.5"></polygon><circle r="0.5" cx="3.385004702011331" cy="93.05133681881716" stroke="#3d8dba" fill="#3d8dba"></circle><polygon points="-8.629713111553524,105.9021157584229 -8.629713111553524,119.60367363763433 15.399722515576187,119.60367363763433 15.399722515576187,105.9021157584229" fill="#d6f0ff" stroke="#3d8dba" stroke-width="0.5"></polygon><circle r="0.5" cx="3.385004702011331" cy="112.75289469802861" stroke="#3d8dba" fill="#3d8dba"></circle><polygon points="-8.629713111553524,125.60367363763434 -8.629713111553524,127.32473097577915 -3.707589254488784,130.47970434494053 15.399722515576187,134.9959041989727 15.399722515576187,125.60367363763434" fill="#d6f0ff" stroke="#3d8dba" stroke-width="0.5"></polygon><circle r="0.5" cx="1.9664859107113082" cy="128.80153735899222" stroke="#3d8dba" fill="#3d8dba"></circle><polygon points="21.399722515576187,68.64881887151779 21.399722515576187,80.20055787921144 26.18460948155722,80.20055787921144" fill="#d6f0ff" stroke="#3d8dba" stroke-width="0.5"></polygon><circle r="0.5" cx="22.994684837569864" cy="76.34997820998022" stroke="#3d8dba" fill="#3d8dba"></circle><polygon points="21.399722515576187,86.20055787921144 21.399722515576187,99.90211575842288 34.345261955005114,99.90211575842288 28.669890855795796,86.20055787921144" fill="#d6f0ff" stroke="#3d8dba" stroke-width="0.5"></polygon><circle r="0.5" cx="26.45364946048832" cy="93.05133681881716" stroke="#3d8dba" fill="#3d8dba"></circle><polygon points="21.399722515576187,105.9021157584229 21.399722515576187,119.60367363763433 42.505914428453025,119.60367363763433 36.830543329243696,105.9021157584229" fill="#d6f0ff" stroke="#3d8dba" stroke-width="0.5"></polygon><circle r="0.5" cx="30.533975697212274" cy="112.75289469802861" stroke="#3d8dba" fill="#3d8dba"></circle><polygon points="21.399722515576187,125.60367363763436 21.399722515576187,136.41406283113812 32.27240683930845,138.9839280192232 44.75304154592569,125.60367363763436" fill="#d6f0ff" stroke="#3d8dba" stroke-width="0.5"></polygon><circle r="0.5" cx="29.95622335409663" cy="131.65133453140749" stroke="#3d8dba" fill="#3d8dba"></circle><polygon points="-102.42924049728096,-53.31029272078641 -100.89888294633089,-48.829235046566176 -83.43799772061895,-41.5966995750363 -83.43799772061895,-53.50575405250193 -101.97476817502891,-53.50575405250193" fill="#d6f0ff" stroke="#3d8dba" stroke-width="0.5"></polygon><circle r="0.5" cx="-94.43577741197574" cy="-50.14954708947854" stroke="#3d8dba" fill="#3d8dba"></circle><polygon points="-77.43799772061894,-64.0586295395094 -77.43799772061894,-59.505754052501935 -57.70917147893305,-59.505754052501935 -57.70917147893305,-72.5436845397243" fill="#d6f0ff" stroke="#3d8dba" stroke-width="0.5"></polygon><circle r="0.5" cx="-67.573584599776" cy="-63.90345554605939" stroke="#3d8dba" fill="#3d8dba"></circle><polygon points="-77.43799772061894,-53.50575405250193 -77.43799772061894,-39.11141820079773 -61.525115379253826,-32.52008651855697 -57.70917147893305,-36.33603041887777 -57.70917147893305,-53.50575405250193" fill="#d6f0ff" stroke="#3d8dba" stroke-width="0.5"></polygon><circle r="0.5" cx="-66.36389075567156" cy="-42.99580864864727" stroke="#3d8dba" fill="#3d8dba"></circle><polygon points="-51.70917147893305,-75.1241892984777 -51.70917147893305,-59.505754052501935 -34.539447845308885,-59.505754052501935 -32.520086518556994,-61.52511537925383 -40.20282480848836,-80.07288635496917" fill="#d6f0ff" stroke="#3d8dba" stroke-width="0.5"></polygon><circle r="0.5" cx="-42.136140426044065" cy="-67.14673982754091" stroke="#3d8dba" fill="#3d8dba"></circle><polygon points="-51.70917147893305,-53.50575405250193 -51.70917147893305,-42.336030418877755 -40.539447845308885,-53.50575405250193" fill="#d6f0ff" stroke="#3d8dba" stroke-width="0.5"></polygon><circle r="0.5" cx="-47.985930267724996" cy="-49.78251284129387" stroke="#3d8dba" fill="#3d8dba"></circle><polygon points="-120.97452838788975,-91.717268580119 -109.58900425213608,-91.52142888430704 -109.58900425213608,-97.81385861763692" fill="#d6f0ff" stroke="#3d8dba" stroke-width="0.5"></polygon><circle r="0.5" cx="-113.38417896405396" cy="-93.68418536068765" stroke="#3d8dba" fill="#3d8dba"></circle><polygon points="-125.79757816074586,-84.58291809868311 -110.71010688746868,-68.81496909631102 -109.77271802939141,-85.31981152217918" fill="#d6f0ff" stroke="#3d8dba" stroke-width="0.5"></polygon><circle r="0.5" cx="-115.42680102586866" cy="-79.57256623905776" stroke="#3d8dba" fill="#3d8dba"></circle><polygon points="-103.58900425213608,-100.98459667942313 -103.58900425213608,-91.46938283049306 -83.65441822414216,-91.46938283049306 -83.96145958710773,-110.98192377689854" fill="#d6f0ff" stroke="#3d8dba" stroke-width="0.5"></polygon><circle r="0.5" cx="-93.69847157888051" cy="-98.72632152932695" stroke="#3d8dba" fill="#3d8dba"></circle><polygon points="-103.58900425213608,-85.46938283049306 -103.58900425213608,-66.96283335948829 -83.60684006100965,-75.55684499038722 -83.60684006100965,-85.46938283049306" fill="#d6f0ff" stroke="#3d8dba" stroke-width="0.5"></polygon><circle r="0.5" cx="-93.59792215657285" cy="-78.3646110027154" stroke="#3d8dba" fill="#3d8dba"></circle><polygon points="-68.66728533371663,-118.95868968216354 -57.624675869883205,-118.86386261204174 -57.624675869883205,-124.7745161698564" fill="#d6f0ff" stroke="#3d8dba" stroke-width="0.5"></polygon><circle r="0.5" cx="-61.30554569116102" cy="-120.86568948802056" stroke="#3d8dba" fill="#3d8dba"></circle><polygon points="-77.60684006100963,-112.83798986314693 -77.60684006100963,-91.46938283049306 -57.624675869883205,-91.46938283049306 -57.624675869883205,-112.83798986314693" fill="#d6f0ff" stroke="#3d8dba" stroke-width="0.5"></polygon><circle r="0.5" cx="-67.61575796544642" cy="-102.15368634682" stroke="#3d8dba" fill="#3d8dba"></circle><polygon points="-77.60684006100963,-85.46938283049306 -77.60684006100963,-78.13734974914064 -60.55893563886609,-85.46938283049306" fill="#d6f0ff" stroke="#3d8dba" stroke-width="0.5"></polygon><circle r="0.5" cx="-71.92420525362844" cy="-83.02537180337559" stroke="#3d8dba" fill="#3d8dba"></circle><polygon points="-51.62467586988319,-127.92071046071385 -51.62467586988319,-118.83798986314693 -36.916341513030446,-118.83798986314693 -32.90446613932387,-137.61935182950484" fill="#d6f0ff" stroke="#3d8dba" stroke-width="0.5"></polygon><circle r="0.5" cx="-43.26753984803017" cy="-125.80401050412814" stroke="#3d8dba" fill="#3d8dba"></circle><polygon points="-51.62467586988319,-112.83798986314694 -51.62467586988319,-91.46938283049306 -46.60817663410804,-91.46938283049306 -42.3734926525622,-93.2906531915257 -38.197997885201815,-112.83798986314694" fill="#d6f0ff" stroke="#3d8dba" stroke-width="0.5"></polygon><circle r="0.5" cx="-46.08580378232769" cy="-100.38107971576115" stroke="#3d8dba" fill="#3d8dba"></circle></svg>