<svg class="d-block" xmlns="http://www.w3.org/2000/svg" version="1.1" xmlns:xlink="http://www.w3.org/1999/xlink" xmlns:svgjs="http://svgjs.dev/svgjs" width="1000" height="1000" viewBox="-500 -500 1000 1000" transform="matrix(-1,0,0,1,0,0)"><polygon points="0,-200 -44,-90 -15,-25 -27,-7 -27,7 -15,25 -44,90 0,200 200,200 200,130 150,40 150,-40 200,-130 200,-200" fill="#f6f6f6" stroke="#888888" stroke-width="0.5"></polygon><polygon points="-16.999999999999996,-7.041630560342615 -16.999999999999996,7.041630560342621 -7.0416305603426155,17.000000000000004 7.041630560342618,16.999999999999996 17,7.041630560342618 17,-7.0416305603426235 7.0416305603426155,-17.000000000000004 -7.041630560342622,-16.999999999999996" fill="#eaeaea" stroke-width="0.5"></polygon><polygon points="-13.999999999999996,5.798989873223336 -5.798989873223328,14.000000000000004 5.798989873223334,13.999999999999998 14,5.798989873223334 14,-5.798989873223336 5.798989873223331,-14.000000000000004 -5.798989873223335,-13.999999999999996 -13.999999999999996,-5.798989873223331" fill="#d6f0ff" stroke="#3d8dba" stroke-width="0.5"></polygon><circle r="0.5" cx="1.3322676295501878e-15" cy="1.3322676295501878e-15" fill="#d6f0ff" stroke="#3d8dba"></circle><polygon points="-20.362996454389247,-56.99999999999999 -6.279735333704014,-22.999999999999996 6.279735333704,-23.000000000000004 20.362996454389226,-57.00000000000001" fill="#eaeaea" stroke-width="0.5"></polygon><polygon points="-4.275199419946121,-26 4.275199419946102,-26 15.87317916639276,-54 -15.873179166392777,-54" fill="#d6f0ff" stroke="#3d8dba" stroke-width="0.5"></polygon><circle r="0.5" cx="-9.325873406851315e-15" cy="-40" fill="#d6f0ff" stroke="#3d8dba"></circle><polygon points="11.82301252877172,-20.703899405809466 20.703899405809462,-11.823012528771732 54.703899405809466,-25.90627364945697 25.906273649456942,-54.703899405809466" fill="#eaeaea" stroke-width="0.5"></polygon><polygon points="21.407798811618925,-15.36175381008156 49.407798811618925,-26.95973355652822 26.959733556528196,-49.407798811618925 15.361753810081543,-21.407798811618928" fill="#d6f0ff" stroke="#3d8dba" stroke-width="0.5"></polygon><circle r="0.5" cx="28.284271247461895" cy="-28.28427124746191" fill="#d6f0ff" stroke="#3d8dba"></circle><polygon points="23,-6.279735333704011 23,6.279735333704005 57,20.362996454389233 57,-20.362996454389247" fill="#eaeaea" stroke-width="0.5"></polygon><polygon points="26,4.275199419946109 54,15.873179166392765 54,-15.87317916639278 26,-4.275199419946114" fill="#d6f0ff" stroke="#3d8dba" stroke-width="0.5"></polygon><circle r="0.5" cx="40" cy="-5.773159728050814e-15" fill="#d6f0ff" stroke="#3d8dba"></circle><polygon points="11.823012528771727,20.703899405809455 25.90627364945696,54.70389940580945 54.703899405809466,25.90627364945695 20.70389940580946,11.823012528771725" fill="#eaeaea" stroke-width="0.5"></polygon><polygon points="26.95973355652821,49.40779881161891 49.40779881161892,26.959733556528203 21.40779881161892,15.36175381008155 15.361753810081552,21.407798811618914" fill="#d6f0ff" stroke="#3d8dba" stroke-width="0.5"></polygon><circle r="0.5" cx="28.2842712474619" cy="28.284271247461895" fill="#d6f0ff" stroke="#3d8dba"></circle><polygon points="-20.36299645438923,57.00000000000001 20.362996454389243,56.99999999999999 6.279735333704012,22.999999999999996 -6.279735333704004,23.000000000000004" fill="#eaeaea" stroke-width="0.5"></polygon><polygon points="15.873179166392777,54 4.2751994199461185,26 -4.275199419946104,26 -15.873179166392761,54" fill="#d6f0ff" stroke="#3d8dba" stroke-width="0.5"></polygon><circle r="0.5" cx="7.549516567451064e-15" cy="40" fill="#d6f0ff" stroke="#3d8dba"></circle><polygon points="28.39155502369551,-60.70389940580947 60.70389940580947,-28.391555023695542 101.6954606022458,-45.370815614106164 43.201610285353645,-96.4585356779996" fill="#eaeaea" stroke-width="0.5"></polygon><polygon points="33.5942943049502,-65.42504535084757 62.04350781297066,-65.42504535084757 62.04350781297066,-76.01916469856295 44.37458141669079,-91.4509607022876" fill="#d6f0ff" stroke="#3d8dba" stroke-width="0.5"></polygon><circle r="0.5" cx="50.513972836895576" cy="-74.58005402563643" fill="#d6f0ff" stroke="#3d8dba"></circle><polygon points="35.646738149179725,-58.72719924317623 61.44548872217415,-31.945907977121966 62.04350781297066,-32.193615595087905 62.04350781297066,-59.353071642543256" fill="#d6f0ff" stroke="#3d8dba" stroke-width="0.5"></polygon><circle r="0.5" cx="55.294810624323794" cy="-45.55494861448234" fill="#d6f0ff" stroke="#3d8dba"></circle><polygon points="68.04350781297066,-70.7788476614258 68.04350781297066,-65.42504535084757 74.1734449209397,-65.42504535084757" fill="#d6f0ff" stroke="#3d8dba" stroke-width="0.5"></polygon><circle r="0.5" cx="70.08682018229366" cy="-67.20964612104031" fill="#d6f0ff" stroke="#3d8dba"></circle><polygon points="68.04350781297066,-59.42504535084758 68.04350781297066,-34.67889696932647 96.08013263075293,-46.292047212018005 81.0432582823975,-59.42504535084758" fill="#d6f0ff" stroke="#3d8dba" stroke-width="0.5"></polygon><circle r="0.5" cx="78.30260163477294" cy="-49.955258720759915" fill="#d6f0ff" stroke="#3d8dba"></circle><polygon points="-35.81552278007726,94.30569862840335 -28.57647006453579,112.40333041725702 38.047203967833475,99.69345361877724 22.848277828627815,62.99999999999999 -22.848277828627804,63.00000000000001" fill="#eaeaea" stroke-width="0.5"></polygon><polygon points="-28.590225283244877,84.7016652086285 -1.884159406121889,84.7016652086285 -1.884159406121889,66 -20.84374191486991,66" fill="#d6f0ff" stroke="#3d8dba" stroke-width="0.5"></polygon><circle r="0.5" cx="-13.30057150258964" cy="75.35083260431425" fill="#d6f0ff" stroke="#3d8dba"></circle><polygon points="-32.57652537023055,94.32544494231836 -26.709479427684286,108.993059798684 -1.8841594061218885,104.2571042462539 -1.8841594061218885,90.70166520862853 -31.075506657483466,90.70166520862853" fill="#d6f0ff" stroke="#3d8dba" stroke-width="0.5"></polygon><circle r="0.5" cx="-18.825966053528415" cy="97.79578788090267" fill="#d6f0ff" stroke="#3d8dba"></circle><polygon points="4.1158405938781115,65.99999999999999 4.1158405938781115,84.7016652086285 28.590225283244912,84.7016652086285 20.843741914869916,65.99999999999999" fill="#d6f0ff" stroke="#3d8dba" stroke-width="0.5"></polygon><circle r="0.5" cx="14.416412096467763" cy="75.35083260431423" fill="#d6f0ff" stroke="#3d8dba"></circle><polygon points="4.1158405938781115,90.70166520862853 4.1158405938781115,103.1124771763954 33.86542115965844,97.43711463764066 31.075506657483487,90.70166520862853" fill="#d6f0ff" stroke="#3d8dba" stroke-width="0.5"></polygon><circle r="0.5" cx="18.293152251224537" cy="95.48823055782329" fill="#d6f0ff" stroke="#3d8dba"></circle><polygon points="-35.81552278007727,-94.30569862840329 -22.848277828627822,-62.99999999999999 22.848277828627797,-63.00000000000001 38.939457899443,-101.84754516154977 37.81969459917371,-109.41034290030427 -33.68345035831127,-99.63587968281831" fill="#eaeaea" stroke-width="0.5"></polygon><polygon points="-32.57652537023057,-94.32544494231831 -30.455638646715894,-89.20517145015214 -13.897529220237182,-89.20517145015214 -13.897529220237182,-99.31270998218389 -31.546672881006202,-96.90007616537925" fill="#d6f0ff" stroke="#3d8dba" stroke-width="0.5"></polygon><circle r="0.5" cx="-24.474779067685404" cy="-93.78971479803714" fill="#d6f0ff" stroke="#3d8dba"></circle><polygon points="-27.97035727247731,-83.20517145015214 -20.843741914869927,-66 -13.897529220237182,-66 -13.897529220237182,-83.20517145015214" fill="#d6f0ff" stroke="#3d8dba" stroke-width="0.5"></polygon><circle r="0.5" cx="-19.1522894069554" cy="-74.60258572507607" fill="#d6f0ff" stroke="#3d8dba"></circle><polygon points="-7.897529220237182,-100.13290858099778 -7.897529220237182,-89.20517145015214 11.021464339602908,-89.20517145015214 11.021464339602908,-102.71913058245609" fill="#d6f0ff" stroke="#3d8dba" stroke-width="0.5"></polygon><circle r="0.5" cx="1.5619675596828628" cy="-95.31559551593953" fill="#d6f0ff" stroke="#3d8dba"></circle><polygon points="-7.897529220237182,-83.20517145015214 -7.897529220237182,-66 11.021464339602908,-66 11.021464339602908,-83.20517145015214" fill="#d6f0ff" stroke="#3d8dba" stroke-width="0.5"></polygon><circle r="0.5" cx="1.5619675596828628" cy="-74.60258572507607" fill="#d6f0ff" stroke="#3d8dba"></circle><polygon points="17.021464339602908,-103.53932918126998 17.021464339602908,-89.20517145015214 30.455638646715848,-89.20517145015214 35.8502766448695,-102.22897966938797 35.2865768800852,-106.03616580008358" fill="#d6f0ff" stroke="#3d8dba" stroke-width="0.5"></polygon><circle r="0.5" cx="27.127084170175273" cy="-98.04296351020916" fill="#d6f0ff" stroke="#3d8dba"></circle><polygon points="17.021464339602908,-83.20517145015214 17.021464339602908,-66 20.843741914869895,-66 27.97035727247727,-83.20517145015214" fill="#d6f0ff" stroke="#3d8dba" stroke-width="0.5"></polygon><circle r="0.5" cx="20.714256966638246" cy="-74.60258572507607" fill="#d6f0ff" stroke="#3d8dba"></circle><polygon points="28.39155502369553,60.70389940580946 44.602346459475896,99.840211946872 65.89216025808376,111.75569844465139 98.7701191139414,98.7701191139414 117.30686116469218,51.8372694547104 60.703899405809466,28.391555023695524" fill="#eaeaea" stroke-width="0.5"></polygon><polygon points="31.93029630500535,61.407798811618925 34.27715907259962,67.07362673417344 69.84920809419387,67.07362673417344 69.84920809419387,35.42684251539002 61.40779881161894,31.93029630500535" fill="#d6f0ff" stroke="#3d8dba" stroke-width="0.5"></polygon><circle r="0.5" cx="53.462734075522334" cy="52.58243822007224" fill="#d6f0ff" stroke="#3d8dba"></circle><polygon points="36.7624404468382,73.07362673417347 46.97570614294326,97.73063129383016 66.11463667933224,108.44231109270153 69.84920809419387,106.9672933281712 69.84920809419387,73.07362673417347" fill="#d6f0ff" stroke="#3d8dba" stroke-width="0.5"></polygon><circle r="0.5" cx="57.91023989150028" cy="91.85749783660997" fill="#d6f0ff" stroke="#3d8dba"></circle><polygon points="75.84920809419387,37.912123889628596 75.84920809419387,67.07362673417344 108.06354544337705,67.07362673417344 113.43264678563277,53.479693916240315" fill="#d6f0ff" stroke="#3d8dba" stroke-width="0.5"></polygon><circle r="0.5" cx="93.29865210434939" cy="56.38476781855395" fill="#d6f0ff" stroke="#3d8dba"></circle><polygon points="75.84920809419387,73.07362673417347 75.84920809419387,104.59751495093539 96.4578590483922,96.45785904839217 105.69376706614126,73.07362673417347" fill="#d6f0ff" stroke="#3d8dba" stroke-width="0.5"></polygon><circle r="0.5" cx="88.4625105757303" cy="86.80065686691862" fill="#d6f0ff" stroke="#3d8dba"></circle><polygon points="63,-22.848277828627822 63,22.8482778286278 120.63684226869023,46.72223958867818 144,26.898954240900174 144,-26.898954240900146 129.21557946768883,-39.443311056194474 107.77546877161102,-41.394884255442086" fill="#eaeaea" stroke-width="0.5"></polygon><polygon points="66,-20.84374191486992 66,-15.022842974068666 86.99966666666667,-15.022842974068666 86.99966666666667,-29.542088653517457" fill="#d6f0ff" stroke="#3d8dba" stroke-width="0.5"></polygon><circle r="0.5" cx="76.49983333333333" cy="-20.107879129131177" fill="#d6f0ff" stroke="#3d8dba"></circle><polygon points="66,-9.022842974068666 66,14.350198307304751 86.99966666666667,14.350198307304751 86.99966666666667,-9.022842974068666" fill="#d6f0ff" stroke="#3d8dba" stroke-width="0.5"></polygon><circle r="0.5" cx="76.49983333333333" cy="2.6636776666180424" fill="#d6f0ff" stroke="#3d8dba"></circle><polygon points="66,20.35019830730475 66,20.84374191486991 86.99966666666667,29.542088653517453 86.99966666666667,20.35019830730475" fill="#d6f0ff" stroke="#3d8dba" stroke-width="0.5"></polygon><circle r="0.5" cx="76.49983333333333" cy="22.771556795749216" fill="#d6f0ff" stroke="#3d8dba"></circle><polygon points="92.99966666666667,-32.02737002775603 92.99966666666667,-15.022842974068666 114.00033333333333,-15.022842974068666 114.00033333333333,-37.81586717251896 108.24014896948336,-38.340184494689844" fill="#d6f0ff" stroke="#3d8dba" stroke-width="0.5"></polygon><circle r="0.5" cx="104.44802979389667" cy="-27.645821528620434" fill="#d6f0ff" stroke="#3d8dba"></circle><polygon points="92.99966666666667,-9.022842974068666 92.99966666666667,14.350198307304751 114.00033333333333,14.350198307304751 114.00033333333333,-9.022842974068666" fill="#d6f0ff" stroke="#3d8dba" stroke-width="0.5"></polygon><circle r="0.5" cx="103.5" cy="2.6636776666180424" fill="#d6f0ff" stroke="#3d8dba"></circle><polygon points="92.99966666666667,20.35019830730475 92.99966666666667,32.02737002775602 114.00033333333333,40.72613097996594 114.00033333333333,20.35019830730475" fill="#d6f0ff" stroke="#3d8dba" stroke-width="0.5"></polygon><circle r="0.5" cx="103.5" cy="28.363474405582867" fill="#d6f0ff" stroke="#3d8dba"></circle><polygon points="120.00033333333336,-37.26972077610004 120.00033333333336,-15.022842974068666 141,-15.022842974068666 141,-25.510029693921528 127.99838513269148,-36.54170291466815" fill="#d6f0ff" stroke="#3d8dba" stroke-width="0.5"></polygon><circle r="0.5" cx="129.99981035987165" cy="-25.873427866565407" fill="#d6f0ff" stroke="#3d8dba"></circle><polygon points="120.00033333333336,-9.022842974068666 120.00033333333336,14.350198307304751 141,14.350198307304751 141,-9.022842974068666" fill="#d6f0ff" stroke="#3d8dba" stroke-width="0.5"></polygon><circle r="0.5" cx="130.50016666666667" cy="2.6636776666180424" fill="#d6f0ff" stroke="#3d8dba"></circle><polygon points="120.00033333333336,20.35019830730475 120.00033333333336,43.211412354204526 120.09260899362889,43.249634184175854 141,25.510029693921553 141,20.35019830730475" fill="#d6f0ff" stroke="#3d8dba" stroke-width="0.5"></polygon><circle r="0.5" cx="128.41865513205911" cy="30.53429456938229" fill="#d6f0ff" stroke="#3d8dba"></circle><polygon points="43.44358762977951,-112.39231935108607 44.83442725821298,-102.99869232798466 108.55153897407061,-47.349047981021265 127.1650571519276,-45.654763668102156 121.24499877656328,-121.43323388401511 51.62301346291559,-131.7691142283461" fill="#eaeaea" stroke-width="0.5"></polygon><polygon points="46.53436294129679,-112.00011870164715 47.413178497169355,-106.06466404159812 68.35041080382888,-106.06466404159812 68.35041080382888,-126.25293366598947 53.482559873791374,-128.46017219126165" fill="#d6f0ff" stroke="#3d8dba" stroke-width="0.5"></polygon><circle r="0.5" cx="56.82618458398306" cy="-115.76851052841889" fill="#d6f0ff" stroke="#3d8dba"></circle><polygon points="52.80619706298174,-100.04159698622101 68.35041080382888,-86.44866232033462 68.35041080382888,-100.06093041144352" fill="#d6f0ff" stroke="#3d8dba" stroke-width="0.5"></polygon><circle r="0.5" cx="63.169006223546496" cy="-95.51706323933304" fill="#d6f0ff" stroke="#3d8dba"></circle><polygon points="74.35041080382888,-125.36219086705022 74.35041080382888,-106.06466404159812 96.25823397787823,-106.06466404159812 96.25823397787823,-122.10981824493041" fill="#d6f0ff" stroke="#3d8dba" stroke-width="0.5"></polygon><circle r="0.5" cx="85.30432239085356" cy="-114.90033429879422" fill="#d6f0ff" stroke="#3d8dba"></circle><polygon points="74.35041080382888,-100.06466404159812 74.35041080382888,-81.20295862943549 78.75137900557559,-77.35921385485014 96.25823397787823,-77.35921385485014 96.25823397787823,-100.06466404159812" fill="#d6f0ff" stroke="#3d8dba" stroke-width="0.5"></polygon><circle r="0.5" cx="83.99373371379798" cy="-87.2101428844664" fill="#d6f0ff" stroke="#3d8dba"></circle><polygon points="85.6211923670334,-71.35921385485014 96.25823397787823,-62.068968791842295 96.25823397787823,-71.35921385485014" fill="#d6f0ff" stroke="#3d8dba" stroke-width="0.5"></polygon><circle r="0.5" cx="92.71255344092997" cy="-68.2624655005142" fill="#d6f0ff" stroke="#3d8dba"></circle><polygon points="102.25823397787823,-121.21907544599115 102.25823397787823,-106.06466404159812 119.4365000643028,-106.06466404159812 118.44026699998153,-118.81673721488522" fill="#d6f0ff" stroke="#3d8dba" stroke-width="0.5"></polygon><circle r="0.5" cx="110.59830875501021" cy="-113.04128518601816" fill="#d6f0ff" stroke="#3d8dba"></circle><polygon points="102.25823397787823,-100.06466404159812 102.25823397787823,-77.35921385485014 121.67906236877347,-77.35921385485014 119.9052394061103,-100.06466404159812" fill="#d6f0ff" stroke="#3d8dba" stroke-width="0.5"></polygon><circle r="0.5" cx="111.52519243266006" cy="-88.71193894822413" fill="#d6f0ff" stroke="#3d8dba"></circle><polygon points="102.25823397787823,-71.35921385485014 102.25823397787823,-56.82865175470514 109.79228937440259,-50.24851194584821 123.89734050116897,-48.96460813848353 122.14780171058096,-71.35921385485014" fill="#d6f0ff" stroke="#3d8dba" stroke-width="0.5"></polygon><circle r="0.5" cx="112.0707799083818" cy="-59.75203990974743" fill="#d6f0ff" stroke="#3d8dba"></circle><polygon points="-24.534670641846812,117.74047680867419 43.749213330629054,157.62312899177968 49.59124504455444,158.7134150273368 62.11129681392978,116.51543015287949 41.717560711331814,105.10146056777812" fill="#eaeaea" stroke-width="0.5"></polygon><polygon points="-16.109306368577503,119.18726275346133 0.5327991227011248,128.90743779755746 1.3469851767453846,128.90743779755746 1.3469851767453846,115.85710544644155" fill="#d6f0ff" stroke="#3d8dba" stroke-width="0.5"></polygon><circle r="0.5" cx="-3.2206342230964022" cy="123.21481094875445" fill="#d6f0ff" stroke="#3d8dba"></circle><polygon points="7.346985176745385,114.71247837658305 7.346985176745385,128.90743779755746 30.229640995337583,128.90743779755746 30.229640995337583,110.34712716321374" fill="#d6f0ff" stroke="#3d8dba" stroke-width="0.5"></polygon><circle r="0.5" cx="18.788313086041484" cy="120.71862028372792" fill="#d6f0ff" stroke="#3d8dba"></circle><polygon points="14.013663331805098,135.8095488403337 30.229640995337583,146.03934027553709 30.229640995337583,135.05104344422503" fill="#d6f0ff" stroke="#3d8dba" stroke-width="0.5"></polygon><circle r="0.5" cx="24.82431510749342" cy="138.96664418669857" fill="#d6f0ff" stroke="#3d8dba"></circle><polygon points="36.22964099533758,109.20250009335524 36.22964099533758,128.90743779755746 55.30535492724056,128.90743779755746 58.55290979102427,117.96177450915775 41.206134646655116,108.2531285356424" fill="#d6f0ff" stroke="#3d8dba" stroke-width="0.5"></polygon><circle r="0.5" cx="45.50473627111902" cy="118.64645574665406" fill="#d6f0ff" stroke="#3d8dba"></circle><polygon points="36.22964099533758,134.90743779755746 36.22964099533758,149.7569361801559 44.81207967869035,154.76969170866332 47.48412292948719,155.26836949498966 53.52516777281266,134.90743779755746" fill="#d6f0ff" stroke="#3d8dba" stroke-width="0.5"></polygon><circle r="0.5" cx="43.656130474333075" cy="145.92197459578477" fill="#d6f0ff" stroke="#3d8dba"></circle><polygon points="-23.396266255691742,125.35383993936716 -12.626306347221252,152.2787397105434 29.455907174671147,156.22327394657722" fill="#eaeaea" stroke-width="0.5"></polygon><polygon points="-17.36682803310807,132.34968828512459 -10.521552783133384,149.46287641006128 0.029820459489702245,150.45189883805324 0.029820459489702245,142.51057018899655" fill="#d6f0ff" stroke="#3d8dba" stroke-width="0.5"></polygon><circle r="0.5" cx="-6.9571849743155125" cy="143.69375843055892" fill="#d6f0ff" stroke="#3d8dba"></circle><polygon points="6.029820459489702,146.0149975762127 6.029820459489702,151.0143028428685 16.225467366774456,151.9699816182584" fill="#d6f0ff" stroke="#3d8dba" stroke-width="0.5"></polygon><circle r="0.5" cx="9.42836942858462" cy="149.66642734577988" fill="#d6f0ff" stroke="#3d8dba"></circle><polygon points="-31.121016303913663,-106.04196481881232 38.25349132170684,-115.52544381013526 46.587912226427406,-135.26941699188114 29.759609037231016,-194 4.062197768561407,-194" fill="#eaeaea" stroke-width="0.5"></polygon><polygon points="-9.098310383395427,-153.02098240940617 4.733447961256868,-153.02098240940617 4.733447961256868,-187.6003782710369" fill="#d6f0ff" stroke="#3d8dba" stroke-width="0.5"></polygon><circle r="0.5" cx="0.12286184637276953" cy="-164.54744769661642" fill="#d6f0ff" stroke="#3d8dba"></circle><polygon points="-26.421804772210983,-109.71224643736728 4.733447961256868,-113.97116221031445 4.733447961256868,-147.02098240940614 -11.498310383395435,-147.02098240940614" fill="#d6f0ff" stroke="#3d8dba" stroke-width="0.5"></polygon><circle r="0.5" cx="-7.1133048082731705" cy="-129.4313433666235" fill="#d6f0ff" stroke="#3d8dba"></circle><polygon points="10.733447961256868,-191 10.733447961256868,-153.02098240940617 38.38076340889261,-153.02098240940617 27.498487257232682,-191" fill="#d6f0ff" stroke="#3d8dba" stroke-width="0.5"></polygon><circle r="0.5" cx="21.836536647159758" cy="-172.0104912047031" fill="#d6f0ff" stroke="#3d8dba"></circle><polygon points="10.733447961256868,-147.02098240940614 10.733447961256868,-114.79136080912834 36.15417032515145,-118.26636761974557 43.41235740081498,-135.46077771833177 40.09996682836523,-147.02098240940614" fill="#d6f0ff" stroke="#3d8dba" stroke-width="0.5"></polygon><circle r="0.5" cx="28.226678095369078" cy="-132.51209419320358" fill="#d6f0ff" stroke="#3d8dba"></circle><polygon points="104.5958799123031,100.35323922518378 132.7426406871193,128.5 192.30291323934202,128.5 144,41.55475616918437 144,34.76771242576652 123.69518847421601,51.996037356734746" fill="#eaeaea" stroke-width="0.5"></polygon><polygon points="122.5700148864924,63.011474950511015 130.8312243546494,63.011474950511015 130.8312243546494,49.87559812637595 126.20930140468045,53.797229720289" fill="#d6f0ff" stroke="#3d8dba" stroke-width="0.5"></polygon><circle r="0.5" cx="127.61044125011792" cy="57.423944436921744" fill="#d6f0ff" stroke="#3d8dba"></circle><polygon points="110.2294877809912,94.2562374752555 130.8312243546494,94.2562374752555 130.8312243546494,69.01147495051102 120.20023650925658,69.01147495051102" fill="#d6f0ff" stroke="#3d8dba" stroke-width="0.5"></polygon><circle r="0.5" cx="123.02304324988665" cy="81.63385621288326" fill="#d6f0ff" stroke="#3d8dba"></circle><polygon points="111.83803184954111,101.45042240025987 130.41544608203006,121.09685913247003 130.77555050549128,100.42593152934076" fill="#d6f0ff" stroke="#3d8dba" stroke-width="0.5"></polygon><circle r="0.5" cx="124.34300947902084" cy="107.65773768735689" fill="#d6f0ff" stroke="#3d8dba"></circle><polygon points="136.8312243546494,44.784689035466855 136.8312243546494,63.011474950511015 152.4885226092969,63.011474950511015 141,42.33213425377657 141,41.24754606365423" fill="#d6f0ff" stroke="#3d8dba" stroke-width="0.5"></polygon><circle r="0.5" cx="141.63019426371915" cy="50.87746385078394" fill="#d6f0ff" stroke="#3d8dba"></circle><polygon points="136.8312243546494,69.01147495051102 136.8312243546494,94.2562374752555 160.06756879699572,94.2562374752555 160.06756879699572,76.65375808836885 155.82185594263026,69.01147495051102" fill="#d6f0ff" stroke="#3d8dba" stroke-width="0.5"></polygon><circle r="0.5" cx="149.9238884491841" cy="80.63783658798039" fill="#d6f0ff" stroke="#3d8dba"></circle><polygon points="136.8312243546494,100.25623747525552 136.8312243546494,125.5 160.06756879699572,125.5 160.06756879699572,100.25623747525552" fill="#d6f0ff" stroke="#3d8dba" stroke-width="0.5"></polygon><circle r="0.5" cx="148.44939657582256" cy="112.87811873762774" fill="#d6f0ff" stroke="#3d8dba"></circle><polygon points="166.06756879699572,87.45375808836884 166.06756879699572,94.2562374752555 169.84672401193274,94.2562374752555" fill="#d6f0ff" stroke="#3d8dba" stroke-width="0.5"></polygon><circle r="0.5" cx="167.3272872019747" cy="91.98874434629329" fill="#d6f0ff" stroke="#3d8dba"></circle><polygon points="166.06756879699572,100.25623747525552 166.06756879699572,125.5 187.20436985901304,125.5 173.1800573452661,100.25623747525552" fill="#d6f0ff" stroke="#3d8dba" stroke-width="0.5"></polygon><circle r="0.5" cx="173.12989119956762" cy="112.87811873762774" fill="#d6f0ff" stroke="#3d8dba"></circle><polygon points="127.1482536393489,-122.90561295222966 133.32635323757268,-43.82413998176544 144,-34.7677124257665 144,-41.55475616918437 192.30291323934202,-128.5 132.7426406871193,-128.5" fill="#eaeaea" stroke-width="0.5"></polygon><polygon points="130.2467767255528,-121.7614953513143 131.9268367959235,-100.2562374752555 156.72558343934548,-100.2562374752555 156.72558343934548,-125.5 133.98528137423858,-125.5" fill="#d6f0ff" stroke="#3d8dba" stroke-width="0.5"></polygon><circle r="0.5" cx="141.9220123548812" cy="-114.65479406036506" fill="#d6f0ff" stroke="#3d8dba"></circle><polygon points="132.39557613773104,-94.25623747525549 134.36777836605356,-69.011474950511 155.82185594263024,-69.011474950511 156.72558343934548,-70.63818444459844 156.72558343934548,-94.25623747525549" fill="#d6f0ff" stroke="#3d8dba" stroke-width="0.5"></polygon><circle r="0.5" cx="147.20727546502116" cy="-79.43472185922629" fill="#d6f0ff" stroke="#3d8dba"></circle><polygon points="134.83651770786105,-63.011474950511 136.21993267245915,-45.303360765810055 141,-41.24754606365421 141,-42.33213425377656 152.4885226092969,-63.011474950511" fill="#d6f0ff" stroke="#3d8dba" stroke-width="0.5"></polygon><circle r="0.5" cx="141.1089945979234" cy="-50.98119819685257" fill="#d6f0ff" stroke="#3d8dba"></circle><polygon points="162.72558343934543,-125.5 162.72558343934543,-100.25623747525552 173.1800573452661,-100.25623747525552 187.20436985901298,-125.5" fill="#d6f0ff" stroke="#3d8dba" stroke-width="0.5"></polygon><circle r="0.5" cx="171.45889852074248" cy="-112.87811873762776" fill="#d6f0ff" stroke="#3d8dba"></circle><polygon points="162.72558343934543,-94.25623747525549 162.72558343934543,-81.43818444459836 169.84672401193274,-94.25623747525549" fill="#d6f0ff" stroke="#3d8dba" stroke-width="0.5"></polygon><circle r="0.5" cx="165.0992969635412" cy="-89.98355313170312" fill="#d6f0ff" stroke="#3d8dba"></circle><polygon points="54.72683259794064,162.49818094362746 56.7775625616889,194 128.5,194 128.5,132.74264068711926 100.35323922518381,104.59587991230308 68.13028418555257,117.322756929563" fill="#eaeaea" stroke-width="0.5"></polygon><polygon points="67.0837699005975,131.39691994153537 76.31755506529376,131.39691994153537 76.31755506529376,117.31460472952911 70.59088453426985,119.57642806252478" fill="#d6f0ff" stroke="#3d8dba" stroke-width="0.5"></polygon><circle r="0.5" cx="72.57744114136372" cy="124.92121816878115" fill="#d6f0ff" stroke="#3d8dba"></circle><polygon points="58.72219540503284,160.48332858038123 76.31755506529376,161.09317931917917 76.31755506529376,137.39691994153537 65.32654505254013,137.39691994153537" fill="#d6f0ff" stroke="#3d8dba" stroke-width="0.5"></polygon><circle r="0.5" cx="69.17096264704011" cy="149.09258694565779" fill="#d6f0ff" stroke="#3d8dba"></circle><polygon points="58.03919763003425,167.1989599707677 59.58861628008026,191 76.31755506529376,191 76.31755506529376,167.1989599707677" fill="#d6f0ff" stroke="#3d8dba" stroke-width="0.5"></polygon><circle r="0.5" cx="67.56573101017551" cy="179.09947998538382" fill="#d6f0ff" stroke="#3d8dba"></circle><polygon points="82.31755506529376,114.94482635229329 82.31755506529376,131.39691994153537 100.90927753264688,131.39691994153537 100.90927753264688,109.39455890688544 99.62409927087698,108.10938064511552" fill="#d6f0ff" stroke="#3d8dba" stroke-width="0.5"></polygon><circle r="0.5" cx="93.21555289335166" cy="119.04852115747299" fill="#d6f0ff" stroke="#3d8dba"></circle><polygon points="82.31755506529376,137.39691994153537 82.31755506529376,161.1989599707677 100.90927753264688,161.1989599707677 100.90927753264688,137.39691994153537" fill="#d6f0ff" stroke="#3d8dba" stroke-width="0.5"></polygon><circle r="0.5" cx="91.61341629897032" cy="149.29793995615154" fill="#d6f0ff" stroke="#3d8dba"></circle><polygon points="82.31755506529376,167.1989599707677 82.31755506529376,191 100.90927753264688,191 100.90927753264688,167.1989599707677" fill="#d6f0ff" stroke="#3d8dba" stroke-width="0.5"></polygon><circle r="0.5" cx="91.61341629897032" cy="179.09947998538382" fill="#d6f0ff" stroke="#3d8dba"></circle><polygon points="106.90927753264688,115.56741095489856 106.90927753264688,131.29431458305586 121.64488039107776,130.79866419819265" fill="#d6f0ff" stroke="#3d8dba" stroke-width="0.5"></polygon><circle r="0.5" cx="111.82114515212385" cy="125.88679657871569" fill="#d6f0ff" stroke="#3d8dba"></circle><polygon points="106.90927753264688,137.39691994153537 106.90927753264688,161.1989599707677 125.5,161.1989599707677 125.5,137.39691994153537" fill="#d6f0ff" stroke="#3d8dba" stroke-width="0.5"></polygon><circle r="0.5" cx="116.20463876632344" cy="149.29793995615154" fill="#d6f0ff" stroke="#3d8dba"></circle><polygon points="106.90927753264688,167.1989599707677 106.90927753264688,191 125.5,191 125.5,167.1989599707677" fill="#d6f0ff" stroke="#3d8dba" stroke-width="0.5"></polygon><circle r="0.5" cx="116.20463876632344" cy="179.09947998538382" fill="#d6f0ff" stroke="#3d8dba"></circle><polygon points="-10.121886408816755,158.53978955655464 4.062197768561395,194 50.76486244959208,194 48.856154670406156,164.6798222319305 42.27030764172679,163.45071951573524" fill="#eaeaea" stroke-width="0.5"></polygon><polygon points="-5.512712906324397,161.98497610208378 -0.9987454358469794,173.26989477827732 17.321488020387662,173.26989477827732 17.321488020387662,164.12531711007364" fill="#d6f0ff" stroke="#3d8dba" stroke-width="0.5"></polygon><circle r="0.5" cx="7.032879424650987" cy="168.16252069217802" fill="#d6f0ff" stroke="#3d8dba"></circle><polygon points="1.4012545641530214,179.26989477827732 6.0932966528420955,191 17.321488020387662,191 17.321488020387662,179.26989477827732" fill="#d6f0ff" stroke="#3d8dba" stroke-width="0.5"></polygon><circle r="0.5" cx="10.534381814442611" cy="185.1349473891387" fill="#d6f0ff" stroke="#3d8dba"></circle><polygon points="23.321488020387662,164.6877211148889 23.321488020387662,173.26989477827732 46.40900785052772,173.26989477827732 46.01394218119062,167.201183904177 41.85426830088589,166.42487275657444" fill="#d6f0ff" stroke="#3d8dba" stroke-width="0.5"></polygon><circle r="0.5" cx="36.18403887467591" cy="168.970713466439" fill="#d6f0ff" stroke="#3d8dba"></circle><polygon points="23.321488020387662,179.26989477827732 23.321488020387662,191 47.56321605588661,191 46.79960052584183,179.26989477827732" fill="#d6f0ff" stroke="#3d8dba" stroke-width="0.5"></polygon><circle r="0.5" cx="35.251448155625944" cy="185.1349473891387" fill="#d6f0ff" stroke="#3d8dba"></circle><polygon points="36.0010560167003,-194 52.11520613428003,-137.7618029313032 122.99635072359929,-127.23899141071857 128.5,-132.7426406871193 128.5,-194" fill="#eaeaea" stroke-width="0.5"></polygon><polygon points="39.98138121617125,-191 47.826823984543076,-163.6194957053593 56.12529201252523,-163.6194957053593 56.12529201252523,-191" fill="#d6f0ff" stroke="#3d8dba" stroke-width="0.5"></polygon><circle r="0.5" cx="50.01469730644119" cy="-177.30974785267966" fill="#d6f0ff" stroke="#3d8dba"></circle><polygon points="49.546027404015696,-157.61949570535927 54.46694521652024,-140.44554959717593 56.12529201252523,-140.19935618606166 56.12529201252523,-157.61949570535927" fill="#d6f0ff" stroke="#3d8dba" stroke-width="0.5"></polygon><circle r="0.5" cx="54.0658891613966" cy="-148.970974298489" fill="#d6f0ff" stroke="#3d8dba"></circle><polygon points="62.12529201252523,-191 62.12529201252523,-163.6194957053593 79.25052800835016,-163.6194957053593 79.25052800835016,-191" fill="#d6f0ff" stroke="#3d8dba" stroke-width="0.5"></polygon><circle r="0.5" cx="70.68791001043769" cy="-177.30974785267966" fill="#d6f0ff" stroke="#3d8dba"></circle><polygon points="62.12529201252523,-157.61949570535927 62.12529201252523,-139.30861338712242 79.25052800835016,-136.76624994655305 79.25052800835016,-157.61949570535927" fill="#d6f0ff" stroke="#3d8dba" stroke-width="0.5"></polygon><circle r="0.5" cx="70.68791001043769" cy="-147.8284636860985" fill="#d6f0ff" stroke="#3d8dba"></circle><polygon points="85.25052800835016,-191 85.25052800835016,-163.6194957053593 102.3757640041751,-163.6194957053593 102.3757640041751,-191" fill="#d6f0ff" stroke="#3d8dba" stroke-width="0.5"></polygon><circle r="0.5" cx="93.81314600626263" cy="-177.30974785267966" fill="#d6f0ff" stroke="#3d8dba"></circle><polygon points="85.25052800835016,-157.61949570535927 85.25052800835016,-135.8755071476138 102.3757640041751,-133.3331437070444 102.3757640041751,-157.61949570535927" fill="#d6f0ff" stroke="#3d8dba" stroke-width="0.5"></polygon><circle r="0.5" cx="93.81314600626263" cy="-146.1119105663442" fill="#d6f0ff" stroke="#3d8dba"></circle><polygon points="108.37576400417507,-191 108.37576400417507,-163.6194957053593 125.5,-163.6194957053593 125.5,-191" fill="#d6f0ff" stroke="#3d8dba" stroke-width="0.5"></polygon><circle r="0.5" cx="116.93788200208753" cy="-177.30974785267966" fill="#d6f0ff" stroke="#3d8dba"></circle><polygon points="108.37576400417507,-157.61949570535927 108.37576400417507,-132.44240090810516 121.94297089405356,-130.4282522682921 125.5,-133.98528137423858 125.5,-157.61949570535927" fill="#d6f0ff" stroke="#3d8dba" stroke-width="0.5"></polygon><circle r="0.5" cx="117.93889978048074" cy="-142.4189851922709" fill="#d6f0ff" stroke="#3d8dba"></circle><polygon points="134.5,-193.5 134.5,-134.5 193.5,-134.5 193.5,-193.5" fill="#eaeaea" stroke-width="0.5"></polygon><polygon points="137.5,-190.5 137.5,-167 161,-167 161,-190.5" fill="#d6f0ff" stroke="#3d8dba" stroke-width="0.5"></polygon><circle r="0.5" cx="149.25" cy="-178.75" fill="#d6f0ff" stroke="#3d8dba"></circle><polygon points="137.5,-161 137.5,-137.5 161,-137.5 161,-161" fill="#d6f0ff" stroke="#3d8dba" stroke-width="0.5"></polygon><circle r="0.5" cx="149.25" cy="-149.25" fill="#d6f0ff" stroke="#3d8dba"></circle><polygon points="167,-190.5 167,-167 190.5,-167 190.5,-190.5" fill="#d6f0ff" stroke="#3d8dba" stroke-width="0.5"></polygon><circle r="0.5" cx="178.75" cy="-178.75" fill="#d6f0ff" stroke="#3d8dba"></circle><polygon points="167,-161 167,-137.5 190.5,-137.5 190.5,-161" fill="#d6f0ff" stroke="#3d8dba" stroke-width="0.5"></polygon><circle r="0.5" cx="178.75" cy="-149.25" fill="#d6f0ff" stroke="#3d8dba"></circle><polygon points="134.5,134.5 134.5,193.5 193.5,193.5 193.5,134.5" fill="#eaeaea" stroke-width="0.5"></polygon><polygon points="137.5,137.5 137.5,161 161,161 161,137.5" fill="#d6f0ff" stroke="#3d8dba" stroke-width="0.5"></polygon><circle r="0.5" cx="149.25" cy="149.25" fill="#d6f0ff" stroke="#3d8dba"></circle><polygon points="137.5,167 137.5,190.5 161,190.5 161,167" fill="#d6f0ff" stroke="#3d8dba" stroke-width="0.5"></polygon><circle r="0.5" cx="149.25" cy="178.75" fill="#d6f0ff" stroke="#3d8dba"></circle><polygon points="167,137.5 167,161 190.5,161 190.5,137.5" fill="#d6f0ff" stroke="#3d8dba" stroke-width="0.5"></polygon><circle r="0.5" cx="178.75" cy="149.25" fill="#d6f0ff" stroke="#3d8dba"></circle><polygon points="167,167 167,190.5 190.5,190.5 190.5,167" fill="#d6f0ff" stroke="#3d8dba" stroke-width="0.5"></polygon><circle r="0.5" cx="178.75" cy="178.75" fill="#d6f0ff" stroke="#3d8dba"></circle><polygon points="-124.93959207434933,31.273259298721197 -91.09916264174741,38.99711648727295 -63.96124528390323,17.35534956470232 -63.96124528390324,-17.35534956470233 -91.09916264174743,-38.99711648727295 -124.93959207434935,-31.273259298721193 -140,0" fill="#f6f6f6" stroke="#888888" stroke-width="0.5"></polygon><polygon points="-133.34050241495154,1.9247588275507245e-15 -120.78746324456877,26.066654429310493 -92.58104026405222,32.50458641050176 -69.96124528390324,14.465901851857149 -69.96124528390324,-14.465901851857156 -92.58104026405223,-32.50458641050176 -120.78746324456877,-26.066654429310493" fill="#eaeaea" stroke-width="0.5"></polygon><polygon points="-118.71139882967849,23.463351994605148 -93.32197907520462,29.258321372116168 -72.96124528390324,13.02117799543456 -72.96124528390324,-13.021177995434568 -93.32197907520464,-29.258321372116168 -118.71139882967847,-23.463351994605144 -130.01075362242733,5.560414390702096e-15" fill="#d6f0ff" stroke="#3d8dba" stroke-width="0.5"></polygon><circle r="0.5" cx="-100" cy="-2.220446049250313e-16" fill="#d6f0ff" stroke="#3d8dba"></circle><polygon points="-230,-200 -300,-130 -300,130 -230,200 -20,200 -80,80 -150,70 -190,0 -150,-70 -80,-80 -20,-200" fill="#f6f6f6" stroke="#888888" stroke-width="0.5"></polygon><polygon points="-224.2,-27.85377041646624 -224.2,27.853770416466197 -187.8913869327886,15.783459490067768 -196.91050664139877,-1.7763568394002505e-15 -187.8913869327886,-15.783459490067777" fill="#eaeaea" stroke-width="0.5"></polygon><polygon points="-221.2,23.695032745603125 -192.31318847851733,14.092000096266421 -200.36575996209814,-2.0301221021717147e-15 -192.3131884785173,-14.092000096266434 -221.2,-23.695032745603164" fill="#d6f0ff" stroke="#3d8dba" stroke-width="0.5"></polygon><circle r="0.5" cx="-205.47842738382656" cy="-9.992007221626409e-15" fill="#d6f0ff" stroke="#3d8dba"></circle><polygon points="-224.61141850775246,-35.11893798687115 -224.55132525451575,-34.69619023556092 -184.8551091518712,-21.09694560667323 -166.03185972346432,-54.037632106385274 -179.96565948942134,-62.0823151520949" fill="#eaeaea" stroke-width="0.5"></polygon><polygon points="-186.2292633070826,-24.738869146277217 -170.11839326002274,-52.932891728631944 -179.91813191005699,-58.59077347621719 -217.5574248599777,-35.4713614228585" fill="#d6f0ff" stroke="#3d8dba" stroke-width="0.5"></polygon><circle r="0.5" cx="-188.455803334285" cy="-42.93347394349621" fill="#d6f0ff" stroke="#3d8dba"></circle><polygon points="-224.55258265326012,35.52493552540546 -224.486981445919,35.99019067100468 -180,62.102141655121606 -166.03185972346432,54.037632106385274 -184.59886089778993,21.545380051315444" fill="#eaeaea" stroke-width="0.5"></polygon><polygon points="-179.98754638460167,58.63084994178125 -170.11839326002274,52.93289172863195 -185.95106767390712,25.225711504334267 -217.45998499836963,36.63613489177196" fill="#d6f0ff" stroke="#3d8dba" stroke-width="0.5"></polygon><circle r="0.5" cx="-188.3792480792253" cy="43.356397016629856" fill="#d6f0ff" stroke="#3d8dba"></circle><polygon points="-294,-31.930361487836652 -294,31.93036148783666 -230.866892691697,30.570191326512134 -230.866892691697,-30.570191326512163" fill="#eaeaea" stroke-width="0.5"></polygon><polygon points="-291,-28.865031872286565 -291,-2.9999999999999964 -265.4334463458485,-2.9999999999999964 -265.4334463458485,-28.314213690021916" fill="#d6f0ff" stroke="#3d8dba" stroke-width="0.5"></polygon><circle r="0.5" cx="-278.2167231729243" cy="-15.794811390577117" fill="#d6f0ff" stroke="#3d8dba"></circle><polygon points="-291,3.0000000000000036 -291,28.865031872286572 -265.4334463458485,28.31421369002191 -265.4334463458485,3.0000000000000036" fill="#d6f0ff" stroke="#3d8dba" stroke-width="0.5"></polygon><circle r="0.5" cx="-278.2167231729243" cy="15.79481139057712" fill="#d6f0ff" stroke="#3d8dba"></circle><polygon points="-259.4334463458485,-28.18494679162432 -259.4334463458485,-2.9999999999999964 -233.866892691697,-2.9999999999999964 -233.866892691697,-27.63412860935967" fill="#d6f0ff" stroke="#3d8dba" stroke-width="0.5"></polygon><circle r="0.5" cx="-246.65016951877277" cy="-15.454768850245996" fill="#d6f0ff" stroke="#3d8dba"></circle><polygon points="-259.4334463458485,3.0000000000000036 -259.4334463458485,28.184946791624306 -233.866892691697,27.634128609359646 -233.866892691697,3.0000000000000036" fill="#d6f0ff" stroke="#3d8dba" stroke-width="0.5"></polygon><circle r="0.5" cx="-246.65016951877277" cy="15.45476885024599" fill="#d6f0ff" stroke="#3d8dba"></circle><polygon points="-239.3354412656501,-125.22698810181119 -224.971625956507,-43.065964533512606 -183,-67.29829407782823 -183,-92.70170592217175" fill="#eaeaea" stroke-width="0.5"></polygon><polygon points="-235.2744286027987,-119.41825973259371 -232.0265359186119,-100.840313579045 -214.16772063282505,-100.840313579045 -214.16772063282505,-107.23229620442258" fill="#d6f0ff" stroke="#3d8dba" stroke-width="0.5"></polygon><circle r="0.5" cx="-223.9091014467652" cy="-107.08279577377658" fill="#d6f0ff" stroke="#3d8dba"></circle><polygon points="-230.97758486966083,-94.840313579045 -227.2384809321143,-73.45263905627881 -214.16772063282505,-73.45263905627881 -214.16772063282505,-94.840313579045" fill="#d6f0ff" stroke="#3d8dba" stroke-width="0.5"></polygon><circle r="0.5" cx="-221.63787676685632" cy="-84.14647631766191" fill="#d6f0ff" stroke="#3d8dba"></circle><polygon points="-226.18952988316326,-67.4526390562788 -222.75542996127447,-47.80958750307486 -214.16772063282505,-52.76770379557738 -214.16772063282505,-67.4526390562788" fill="#d6f0ff" stroke="#3d8dba" stroke-width="0.5"></polygon><circle r="0.5" cx="-219.32010027752196" cy="-58.870642352802456" fill="#d6f0ff" stroke="#3d8dba"></circle><polygon points="-208.16772063282505,-94.840313579045 -208.16772063282505,-73.45263905627881 -186,-73.45263905627881 -186,-90.96965511460289 -192.7041771191603,-94.840313579045" fill="#d6f0ff" stroke="#3d8dba" stroke-width="0.5"></polygon><circle r="0.5" cx="-196.20792367696208" cy="-85.51111207705011" fill="#d6f0ff" stroke="#3d8dba"></circle><polygon points="-208.16772063282505,-67.27996346447033 -208.16772063282505,-56.486751215212294 -192.51028614227394,-66.4032693488106" fill="#d6f0ff" stroke="#3d8dba" stroke-width="0.5"></polygon><circle r="0.5" cx="-202.94857580264136" cy="-63.389994676164406" fill="#d6f0ff" stroke="#3d8dba"></circle><polygon points="-239.33544126565013,125.2269881018112 -183,92.70170592217178 -183,67.29829407782823 -224.971625956507,43.06596453351265" fill="#eaeaea" stroke-width="0.5"></polygon><polygon points="-226.18952988316326,67.45263905627884 -214.16772063282505,67.45263905627884 -214.16772063282505,52.7677037955774 -222.75542996127444,47.80958750307491" fill="#d6f0ff" stroke="#3d8dba" stroke-width="0.5"></polygon><circle r="0.5" cx="-219.32010027752196" cy="58.8706423528025" fill="#d6f0ff" stroke="#3d8dba"></circle><polygon points="-230.97758486966086,94.84031357904503 -214.16772063282505,94.84031357904503 -214.16772063282505,73.45263905627884 -227.2384809321143,73.45263905627884" fill="#d6f0ff" stroke="#3d8dba" stroke-width="0.5"></polygon><circle r="0.5" cx="-221.63787676685632" cy="84.14647631766194" fill="#d6f0ff" stroke="#3d8dba"></circle><polygon points="-235.27442860279874,119.41825973259371 -214.16772063282505,107.23229620442261 -214.16772063282505,100.84031357904502 -232.0265359186119,100.84031357904502" fill="#d6f0ff" stroke="#3d8dba" stroke-width="0.5"></polygon><circle r="0.5" cx="-223.9091014467652" cy="107.0827957737766" fill="#d6f0ff" stroke="#3d8dba"></circle><polygon points="-208.16772063282505,56.486751215212294 -208.16772063282505,67.27996346447036 -192.51028614227394,66.40326934881064" fill="#d6f0ff" stroke="#3d8dba" stroke-width="0.5"></polygon><circle r="0.5" cx="-202.94857580264136" cy="63.38999467616443" fill="#d6f0ff" stroke="#3d8dba"></circle><polygon points="-208.16772063282505,73.45263905627884 -208.16772063282505,94.84031357904503 -192.7041771191603,94.84031357904503 -186,90.96965511460289 -186,73.45263905627884" fill="#d6f0ff" stroke="#3d8dba" stroke-width="0.5"></polygon><circle r="0.5" cx="-196.20792367696208" cy="85.51111207705011" fill="#d6f0ff" stroke="#3d8dba"></circle><polygon points="-177,-67.29829407782823 -163.05499658344033,-59.24714260142726 -153.75353773208371,-75.52469559130131 -133,-78.4894866958847 -133,-92.70170592217178 -155,-105.40341184434354 -177,-92.70170592217175" fill="#eaeaea" stroke-width="0.5"></polygon><polygon points="-164.16466697997475,-63.351912718715916 -155.63030659812557,-78.28704338695195 -136,-81.0913729009699 -136,-90.9696551146029 -155,-101.93931022920577 -174,-90.96965511460287 -174,-69.03034488539711" fill="#d6f0ff" stroke="#3d8dba" stroke-width="0.5"></polygon><circle r="0.5" cx="-156.3992819397286" cy="-82.23418490720664" fill="#d6f0ff" stroke="#3d8dba"></circle><polygon points="-177,92.70170592217175 -155,105.40341184434352 -133,92.70170592217175 -133,78.4894866958847 -153.75353773208371,75.52469559130131 -163.05499658344033,59.24714260142724 -177,67.29829407782825" fill="#eaeaea" stroke-width="0.5"></polygon><polygon points="-155,101.93931022920577 -136,90.96965511460287 -136,81.0913729009699 -155.63030659812557,78.28704338695195 -164.16466697997475,63.35191271871591 -174,69.03034488539713 -174,90.96965511460289" fill="#d6f0ff" stroke="#3d8dba" stroke-width="0.5"></polygon><circle r="0.5" cx="-156.3992819397286" cy="82.23418490720663" fill="#d6f0ff" stroke="#3d8dba"></circle><polygon points="-294,-127.51471862576142 -294,-38.07752373325764 -231.38128870081783,-39.5776907256242 -246.25475654234464,-129.92967128574682 -264.0860438372057,-157.42867478855572" fill="#eaeaea" stroke-width="0.5"></polygon><polygon points="-286.36290899133496,-130.5913870247312 -265.7643017358458,-130.5913870247312 -266.2244492371221,-149.56007032378656" fill="#d6f0ff" stroke="#3d8dba" stroke-width="0.5"></polygon><circle r="0.5" cx="-272.7838866547676" cy="-136.91428145774967" fill="#d6f0ff" stroke="#3d8dba"></circle><polygon points="-290.99613836421065,-100.75309926090668 -265.6906443504089,-100.75309926090668 -265.6906443504089,-124.58770716132426 -290.9655177501053,-124.55672345839646" fill="#d6f0ff" stroke="#3d8dba" stroke-width="0.5"></polygon><circle r="0.5" cx="-278.3357362037834" cy="-112.66265728538352" fill="#d6f0ff" stroke="#3d8dba"></circle><polygon points="-291,-94.75309926090668 -291,-70.91481149708216 -265.6906443504089,-70.91481149708216 -265.6906443504089,-94.75309926090668" fill="#d6f0ff" stroke="#3d8dba" stroke-width="0.5"></polygon><circle r="0.5" cx="-278.34532217520444" cy="-82.83395537899442" fill="#d6f0ff" stroke="#3d8dba"></circle><polygon points="-291,-64.91481149708217 -291,-41.15025603289667 -265.6906443504089,-41.75659652052147 -265.6906443504089,-64.91481149708217" fill="#d6f0ff" stroke="#3d8dba" stroke-width="0.5"></polygon><circle r="0.5" cx="-278.34532217520444" cy="-53.18411888689562" fill="#d6f0ff" stroke="#3d8dba"></circle><polygon points="-259.6906443504089,-144.84605466849246 -259.6906443504089,-130.80972369724398 -251.26015197997765,-131.40247311285268" fill="#d6f0ff" stroke="#3d8dba" stroke-width="0.5"></polygon><circle r="0.5" cx="-256.8804802269318" cy="-135.68608382619638" fill="#d6f0ff" stroke="#3d8dba"></circle><polygon points="-259.6906443504089,-124.5913870247312 -259.6906443504089,-100.75309926090668 -244.4921745263808,-100.75309926090668 -248.41636085029182,-124.5913870247312" fill="#d6f0ff" stroke="#3d8dba" stroke-width="0.5"></polygon><circle r="0.5" cx="-253.07245601937262" cy="-112.67224314281894" fill="#d6f0ff" stroke="#3d8dba"></circle><polygon points="-259.6906443504089,-94.7530992609067 -259.6906443504089,-70.91481149708216 -239.58028647754995,-70.91481149708216 -243.50447280146093,-94.7530992609067" fill="#d6f0ff" stroke="#3d8dba" stroke-width="0.5"></polygon><circle r="0.5" cx="-250.6165119949572" cy="-82.83395537899443" fill="#d6f0ff" stroke="#3d8dba"></circle><polygon points="-259.6906443504089,-64.91481149708217 -259.6906443504089,-41.90033952907995 -234.90177373406888,-42.49421066927322 -238.59258475263005,-64.91481149708217" fill="#d6f0ff" stroke="#3d8dba" stroke-width="0.5"></polygon><circle r="0.5" cx="-248.21891179687918" cy="-53.55604329812938" fill="#d6f0ff" stroke="#3d8dba"></circle><polygon points="-294,38.07752373325765 -294,127.51471862576142 -264.0860438372057,157.42867478855575 -246.25475654234464,129.92967128574685 -231.38128870081783,39.577690725624215" fill="#eaeaea" stroke-width="0.5"></polygon><polygon points="-291,41.15025603289668 -291,64.91481149708218 -265.6906443504089,64.91481149708218 -265.6906443504089,41.75659652052148" fill="#d6f0ff" stroke="#3d8dba" stroke-width="0.5"></polygon><circle r="0.5" cx="-278.34532217520444" cy="53.184118886895625" fill="#d6f0ff" stroke="#3d8dba"></circle><polygon points="-291,70.91481149708218 -291,94.75309926090671 -265.6906443504089,94.75309926090671 -265.6906443504089,70.91481149708218" fill="#d6f0ff" stroke="#3d8dba" stroke-width="0.5"></polygon><circle r="0.5" cx="-278.34532217520444" cy="82.83395537899443" fill="#d6f0ff" stroke="#3d8dba"></circle><polygon points="-290.9961383642106,100.75309926090671 -290.9655177501053,124.55672345839645 -265.6906443504089,124.58770716132429 -265.6906443504089,100.75309926090671" fill="#d6f0ff" stroke="#3d8dba" stroke-width="0.5"></polygon><circle r="0.5" cx="-278.3357362037834" cy="112.66265728538353" fill="#d6f0ff" stroke="#3d8dba"></circle><polygon points="-286.36290899133496,130.59138702473126 -266.22444923712214,149.5600703237866 -265.7643017358458,130.59138702473126" fill="#d6f0ff" stroke="#3d8dba" stroke-width="0.5"></polygon><circle r="0.5" cx="-272.7838866547676" cy="136.9142814577497" fill="#d6f0ff" stroke="#3d8dba"></circle><polygon points="-259.6906443504089,41.90033952907996 -259.6906443504089,64.91481149708218 -238.59258475263005,64.91481149708218 -234.90177373406888,42.49421066927324" fill="#d6f0ff" stroke="#3d8dba" stroke-width="0.5"></polygon><circle r="0.5" cx="-248.21891179687918" cy="53.55604329812939" fill="#d6f0ff" stroke="#3d8dba"></circle><polygon points="-259.6906443504089,70.91481149708218 -259.6906443504089,94.75309926090671 -243.50447280146093,94.75309926090671 -239.58028647754995,70.91481149708218" fill="#d6f0ff" stroke="#3d8dba" stroke-width="0.5"></polygon><circle r="0.5" cx="-250.6165119949572" cy="82.83395537899443" fill="#d6f0ff" stroke="#3d8dba"></circle><polygon points="-259.6906443504089,100.75309926090671 -259.6906443504089,124.59138702473123 -248.41636085029182,124.59138702473123 -244.4921745263808,100.75309926090671" fill="#d6f0ff" stroke="#3d8dba" stroke-width="0.5"></polygon><circle r="0.5" cx="-253.07245601937262" cy="112.67224314281897" fill="#d6f0ff" stroke="#3d8dba"></circle><polygon points="-259.6906443504089,130.80972369724404 -259.6906443504089,144.84605466849249 -251.26015197997765,131.4024731128527" fill="#d6f0ff" stroke="#3d8dba" stroke-width="0.5"></polygon><circle r="0.5" cx="-256.8804802269318" cy="135.6860838261964" fill="#d6f0ff" stroke="#3d8dba"></circle><polygon points="-257.7844472407703,158.73860484773343 -157.99999999999997,146.62939239387012 -158,110.59956426705016 -180,97.8978583448784 -241.27176961811384,133.27313102762113" fill="#eaeaea" stroke-width="0.5"></polygon><polygon points="-251.7766187502861,154.98752324896637 -227.52329816051352,152.04429291744415 -227.52329816051352,131.3182315963059 -231.88578447938835,131.3182315963059 -239.14708530772617,135.51054558421356" fill="#d6f0ff" stroke="#3d8dba" stroke-width="0.5"></polygon><circle r="0.5" cx="-235.57121697168554" cy="141.03576498864717" fill="#d6f0ff" stroke="#3d8dba"></circle><polygon points="-221.49347963397508,125.3182315963059 -194.26114908025676,125.3182315963059 -194.26114908025676,109.59563822045575" fill="#d6f0ff" stroke="#3d8dba" stroke-width="0.5"></polygon><circle r="0.5" cx="-203.33859259816285" cy="120.07736713768918" fill="#d6f0ff" stroke="#3d8dba"></circle><polygon points="-221.52329816051352,131.3182315963059 -221.52329816051352,151.3161706826447 -194.26114908025676,148.00780786368585 -194.26114908025676,131.3182315963059" fill="#d6f0ff" stroke="#3d8dba" stroke-width="0.5"></polygon><circle r="0.5" cx="-207.89222362038512" cy="140.49011043473558" fill="#d6f0ff" stroke="#3d8dba"></circle><polygon points="-188.26114908025676,106.131536605318 -188.26114908025676,125.3182315963059 -161,125.3182315963059 -161,112.33161507461904 -180,101.36195996001616" fill="#d6f0ff" stroke="#3d8dba" stroke-width="0.5"></polygon><circle r="0.5" cx="-175.7044596321027" cy="114.092314966513" fill="#d6f0ff" stroke="#3d8dba"></circle><polygon points="-188.26114908025676,131.3182315963059 -188.26114908025676,147.2796856288864 -161,143.97144416363335 -161,131.3182315963059" fill="#d6f0ff" stroke="#3d8dba" stroke-width="0.5"></polygon><circle r="0.5" cx="-174.63057454012838" cy="138.47189824628288" fill="#d6f0ff" stroke="#3d8dba"></circle><polygon points="-127,-92.70170592217178 -127,-79.34662955302755 -83.96064986029218,-85.49510814441439 -77.80408479708808,-97.80823827082259 -102.37500058778866,-106.9189559616064" fill="#eaeaea" stroke-width="0.5"></polygon><polygon points="-124,-90.96965511460292 -124,-82.80565861525562 -105.40204239854404,-85.46250970117791 -105.40204239854404,-101.70719094218077" fill="#d6f0ff" stroke="#3d8dba" stroke-width="0.5"></polygon><circle r="0.5" cx="-114.70102119927202" cy="-90.2362535933043" fill="#d6f0ff" stroke="#3d8dba"></circle><polygon points="-99.40009714530434,-86.31993045164072 -85.94097479043829,-88.24266221662158 -81.98388136030366,-96.15684907689081 -99.39094346539807,-102.60218463222523" fill="#d6f0ff" stroke="#3d8dba" stroke-width="0.5"></polygon><circle r="0.5" cx="-91.67897419036109" cy="-93.3304065943446" fill="#d6f0ff" stroke="#3d8dba"></circle><polygon points="-127,79.34662955302755 -127,92.70170592217175 -61.4284850747938,130.55943771541112 -83.96064986029218,85.49510814441439" fill="#eaeaea" stroke-width="0.5"></polygon><polygon points="-124,82.80565861525562 -124,90.96965511460287 -104.97623036526365,101.95303363421934 -97.2142425373969,101.95303363421934 -97.2142425373969,86.63219539562749" fill="#d6f0ff" stroke="#3d8dba" stroke-width="0.5"></polygon><circle r="0.5" cx="-109.48094308801149" cy="92.86271527878493" fill="#d6f0ff" stroke="#3d8dba"></circle><polygon points="-91.2142425373969,87.48933825277035 -91.2142425373969,101.95303363421934 -79.08578908163938,101.95303363421934 -85.94097479043828,88.24266221662158" fill="#d6f0ff" stroke="#3d8dba" stroke-width="0.5"></polygon><circle r="0.5" cx="-86.86381223671788" cy="94.90951693445764" fill="#d6f0ff" stroke="#3d8dba"></circle><polygon points="-91.2142425373969,107.95303363421934 -91.2142425373969,109.89852101122256 -68.57873810428882,122.96713558892047 -76.08578908163939,107.95303363421934" fill="#d6f0ff" stroke="#3d8dba" stroke-width="0.5"></polygon><circle r="0.5" cx="-81.77325306518051" cy="112.19293096714543" fill="#d6f0ff" stroke="#3d8dba"></circle><polygon points="-152.00000000000006,-168.20926024288943 -152,-110.59956426705017 -130,-97.8978583448784 -106.11512423906078,-111.68779779501746 -116.15693744641013,-151.6826408235685" fill="#eaeaea" stroke-width="0.5"></polygon><polygon points="-149.00000000000006,-163.52247192928408 -149.00000000000003,-136.0535592938839 -132.05756211953042,-136.0535592938839 -132.05756211953042,-155.71060533815864" fill="#d6f0ff" stroke="#3d8dba" stroke-width="0.5"></polygon><circle r="0.5" cx="-140.52878105976524" cy="-147.83504896380265" fill="#d6f0ff" stroke="#3d8dba"></circle><polygon points="-149.00000000000003,-130.05355929388392 -149.00000000000003,-112.36851322403393 -132.4608353291635,-103.22010040253764 -132.09836073846319,-130.05355929388392" fill="#d6f0ff" stroke="#3d8dba" stroke-width="0.5"></polygon><circle r="0.5" cx="-140.6397990169067" cy="-118.92393305358485" fill="#d6f0ff" stroke="#3d8dba"></circle><polygon points="-126.05756211953042,-152.9441085755656 -126.05756211953042,-136.0535592938839 -115.32593855134756,-136.0535592938839 -118.71697682291872,-149.5594909991299" fill="#d6f0ff" stroke="#3d8dba" stroke-width="0.5"></polygon><circle r="0.5" cx="-121.53950990333178" cy="-143.65267954061582" fill="#d6f0ff" stroke="#3d8dba"></circle><polygon points="-126.05756211953042,-130.05355929388392 -126.05756211953042,-103.63812753156867 -109.576270818382,-113.15360550087935 -113.81947235016546,-130.05355929388392" fill="#d6f0ff" stroke="#3d8dba" stroke-width="0.5"></polygon><circle r="0.5" cx="-118.87771685190208" cy="-119.22471290505396" fill="#d6f0ff" stroke="#3d8dba"></circle><polygon points="-259.7479872609142,-161.7667313648472 -241.27176961811384,-133.27313102762113 -180,-97.89785834487839 -158,-110.59956426705017 -158.00000000000006,-171.8485666197249 -175.61650077421538,-194 -227.51471862576142,-194" fill="#eaeaea" stroke-width="0.5"></polygon><polygon points="-252.17094635266045,-164.96628611495944 -228.91213823315275,-164.96628611495944 -229.49243170316228,-187.06450729444808" fill="#d6f0ff" stroke="#3d8dba" stroke-width="0.5"></polygon><circle r="0.5" cx="-236.8585054296585" cy="-172.33235984145566" fill="#d6f0ff" stroke="#3d8dba"></circle><polygon points="-254.1644148935457,-158.882676202746 -239.14150331019684,-135.50732281643744 -234.68017242672144,-132.9315722299189 -228.8323248406095,-132.9315722299189 -228.8323248406095,-158.9574212359393" fill="#d6f0ff" stroke="#3d8dba" stroke-width="0.5"></polygon><circle r="0.5" cx="-237.1301480623366" cy="-143.84211294299212" fill="#d6f0ff" stroke="#3d8dba"></circle><polygon points="-222.8323248406095,-191 -222.8323248406095,-164.96628611495944 -194.91566242030476,-164.96628611495944 -194.91566242030476,-191" fill="#d6f0ff" stroke="#3d8dba" stroke-width="0.5"></polygon><circle r="0.5" cx="-208.8739936304571" cy="-177.9831430574797" fill="#d6f0ff" stroke="#3d8dba"></circle><polygon points="-222.8323248406095,-158.96628611495947 -222.8323248406095,-132.9315722299189 -194.91566242030476,-132.9315722299189 -194.91566242030476,-158.96628611495947" fill="#d6f0ff" stroke="#3d8dba" stroke-width="0.5"></polygon><circle r="0.5" cx="-208.8739936304571" cy="-145.9489291724392" fill="#d6f0ff" stroke="#3d8dba"></circle><polygon points="-222.8323248406095,-126.93157222991891 -222.8323248406095,-126.09121423675951 -194.91566242030476,-109.97352167352066 -194.91566242030476,-126.93157222991891" fill="#d6f0ff" stroke="#3d8dba" stroke-width="0.5"></polygon><circle r="0.5" cx="-208.8739936304571" cy="-122.48197009252951" fill="#d6f0ff" stroke="#3d8dba"></circle><polygon points="-188.91566242030476,-191 -188.91566242030476,-164.96628611495944 -161.00000000000006,-164.96628611495944 -161.00000000000006,-170.80108468295498 -177.06371024449774,-191" fill="#d6f0ff" stroke="#3d8dba" stroke-width="0.5"></polygon><circle r="0.5" cx="-175.37900701702148" cy="-176.54673138257476" fill="#d6f0ff" stroke="#3d8dba"></circle><polygon points="-188.91566242030476,-158.96628611495947 -188.91566242030476,-132.9315722299189 -161.00000000000003,-132.9315722299189 -161.00000000000006,-158.96628611495947" fill="#d6f0ff" stroke="#3d8dba" stroke-width="0.5"></polygon><circle r="0.5" cx="-174.9578312101524" cy="-145.9489291724392" fill="#d6f0ff" stroke="#3d8dba"></circle><polygon points="-188.91566242030476,-126.93157222991891 -188.91566242030476,-106.50942005838291 -180,-101.36195996001615 -161.00000000000003,-112.33161507461905 -161.00000000000003,-126.93157222991891" fill="#d6f0ff" stroke="#3d8dba" stroke-width="0.5"></polygon><circle r="0.5" cx="-175.96626496812192" cy="-114.81322791057119" fill="#d6f0ff" stroke="#3d8dba"></circle><polygon points="-256.84598139134897,164.66873723441245 -227.51471862576142,194 -100.59374931032148,194 -155.83857879905958,152.41111461661453" fill="#eaeaea" stroke-width="0.5"></polygon><polygon points="-250.2403886654556,166.88913342575685 -229.35717174761868,187.11098578470734 -228.69580718873218,164.27461862364834" fill="#d6f0ff" stroke="#3d8dba" stroke-width="0.5"></polygon><circle r="0.5" cx="-236.09778920060216" cy="172.75824594470419" fill="#d6f0ff" stroke="#3d8dba"></circle><polygon points="-222.59613497514346,163.5344007963646 -222.59613497514346,191 -197.34528855893797,191 -197.34528855893797,160.47011700917363" fill="#d6f0ff" stroke="#3d8dba" stroke-width="0.5"></polygon><circle r="0.5" cx="-209.9707117670407" cy="176.50112945138454" fill="#d6f0ff" stroke="#3d8dba"></circle><polygon points="-191.34528855893797,159.74199477437418 -191.34528855893797,191 -166.09444214273248,191 -166.09444214273248,156.67771098718322" fill="#d6f0ff" stroke="#3d8dba" stroke-width="0.5"></polygon><circle r="0.5" cx="-178.71986535083522" cy="174.60492644038936" fill="#d6f0ff" stroke="#3d8dba"></circle><polygon points="-160.09444214273245,155.94958875238373 -160.09444214273245,191 -134.84359572652696,191 -134.84359572652696,171.97142231901097 -156.67715759811918,155.53488860912216" fill="#d6f0ff" stroke="#3d8dba" stroke-width="0.5"></polygon><circle r="0.5" cx="-149.3106466673276" cy="173.0911799361034" fill="#d6f0ff" stroke="#3d8dba"></circle><polygon points="-128.84359572652696,176.48828506634158 -128.84359572652696,191 -109.5668776873509,191" fill="#d6f0ff" stroke="#3d8dba" stroke-width="0.5"></polygon><circle r="0.5" cx="-122.4180230468016" cy="186.16276168878053" fill="#d6f0ff" stroke="#3d8dba"></circle><polygon points="-152,110.59956426705014 -152,147.790707115569 -90.61762625609134,194 -29.7082039324994,194 -56.5585560400981,140.2992957848026 -130,97.89785834487837" fill="#eaeaea" stroke-width="0.5"></polygon><polygon points="-149,112.33161507461902 -149,126.93157222991891 -124.42755098312485,126.93157222991891 -124.42755098312485,104.57921489995448 -130,101.36195996001614" fill="#d6f0ff" stroke="#3d8dba" stroke-width="0.5"></polygon><circle r="0.5" cx="-135.37102039324992" cy="114.42718687888551" fill="#d6f0ff" stroke="#3d8dba"></circle><polygon points="-149,132.9315722299189 -149,146.2940736070311 -132.16679533986184,158.96628611495947 -124.42755098312485,158.96628611495947 -124.42755098312485,132.9315722299189" fill="#d6f0ff" stroke="#3d8dba" stroke-width="0.5"></polygon><circle r="0.5" cx="-135.80437946122228" cy="146.01795805935757" fill="#d6f0ff" stroke="#3d8dba"></circle><polygon points="-118.42755098312485,108.04331651509223 -118.42755098312485,126.93157222991891 -93.8541019662497,126.93157222991891 -93.8541019662497,122.23080391990266" fill="#d6f0ff" stroke="#3d8dba" stroke-width="0.5"></polygon><circle r="0.5" cx="-106.14082647468727" cy="121.03431622370817" fill="#d6f0ff" stroke="#3d8dba"></circle><polygon points="-118.42755098312485,132.9315722299189 -118.42755098312485,158.96628611495947 -93.8541019662497,158.96628611495947 -93.8541019662497,132.9315722299189" fill="#d6f0ff" stroke="#3d8dba" stroke-width="0.5"></polygon><circle r="0.5" cx="-106.14082647468727" cy="145.9489291724392" fill="#d6f0ff" stroke="#3d8dba"></circle><polygon points="-118.42755098312485,164.96628611495947 -118.42755098312485,169.30933295019574 -93.8541019662497,187.80848235648767 -93.8541019662497,164.96628611495947" fill="#d6f0ff" stroke="#3d8dba" stroke-width="0.5"></polygon><circle r="0.5" cx="-106.14082647468727" cy="171.76259688415058" fill="#d6f0ff" stroke="#3d8dba"></circle><polygon points="-87.85410196624969,132.9315722299189 -87.85410196624969,158.96628611495947 -63.28065294937454,158.96628611495947 -63.28065294937454,139.8823929398509 -75.31982757327863,132.9315722299189" fill="#d6f0ff" stroke="#3d8dba" stroke-width="0.5"></polygon><circle r="0.5" cx="-75.51786748090542" cy="144.73562192592152" fill="#d6f0ff" stroke="#3d8dba"></circle><polygon points="-87.8429774296823,164.96628611495947 -87.74691526199624,190.91971222017298 -63.28065294937454,190.9912191610412 -63.28065294937454,164.96628611495947" fill="#d6f0ff" stroke="#3d8dba" stroke-width="0.5"></polygon><circle r="0.5" cx="-75.5377996476069" cy="177.9608759027833" fill="#d6f0ff" stroke="#3d8dba"></circle><polygon points="-57.28065294937454,145.56330589874912 -57.28065294937454,158.96628611495947 -50.57916284126935,158.96628611495947" fill="#d6f0ff" stroke="#3d8dba" stroke-width="0.5"></polygon><circle r="0.5" cx="-55.04682291333947" cy="154.49862604288936" fill="#d6f0ff" stroke="#3d8dba"></circle><polygon points="-57.28065294937454,164.96628611495947 -57.28065294937454,191 -34.562305898749116,191 -47.57916284126935,164.96628611495947" fill="#d6f0ff" stroke="#3d8dba" stroke-width="0.5"></polygon><circle r="0.5" cx="-49.17569365969189" cy="177.98314305747977" fill="#d6f0ff" stroke="#3d8dba"></circle><polygon points="-110.00014397886824,-151.7998811664571 -100.12915318288522,-112.48539490090144 -75.1049104934971,-103.20658687800457 -39.642981639211655,-174.1304445865755" fill="#eaeaea" stroke-width="0.5"></polygon><polygon points="-106.40338988783493,-149.79397168490715 -104.36326909419965,-141.66851573229005 -77.82156280903996,-141.66851573229005 -77.82156280903996,-158.86551864646134" fill="#d6f0ff" stroke="#3d8dba" stroke-width="0.5"></polygon><circle r="0.5" cx="-91.60244615002863" cy="-147.99913044898716" fill="#d6f0ff" stroke="#3d8dba"></circle><polygon points="-102.85680289301753,-135.66851573229002 -97.6098449974954,-114.77077016824799 -77.94613652669604,-107.74205299700998 -77.83366896421931,-135.66851573229002" fill="#d6f0ff" stroke="#3d8dba" stroke-width="0.5"></polygon><circle r="0.5" cx="-89.06161334535707" cy="-123.46246365745951" fill="#d6f0ff" stroke="#3d8dba"></circle><polygon points="-71.82156280903993,-160.76985043110457 -71.82156280903993,-141.66851573229005 -59.22804803260408,-141.66851573229005 -45.500354559950665,-169.12390267759685" fill="#d6f0ff" stroke="#3d8dba" stroke-width="0.5"></polygon><circle r="0.5" cx="-62.09288205265864" cy="-153.30769614332036" fill="#d6f0ff" stroke="#3d8dba"></circle><polygon points="-71.82156280903993,-135.66851573229002 -71.82156280903993,-116.48148617941827 -62.22804803260405,-135.66851573229002" fill="#d6f0ff" stroke="#3d8dba" stroke-width="0.5"></polygon><circle r="0.5" cx="-68.62372455022796" cy="-129.2728392146661" fill="#d6f0ff" stroke="#3d8dba"></circle><polygon points="-167.95042652671182,-194 -153.0960229194305,-175.3216974172292 -113.39642623541145,-157.01689646679802 -35.90179886189458,-181.61281014120965 -29.7082039324994,-194" fill="#eaeaea" stroke-width="0.5"></polygon><polygon points="-161.73156174949062,-191 -151.7973318696568,-178.508448233399 -143.30258200786932,-178.508448233399 -143.30258200786932,-191" fill="#d6f0ff" stroke="#3d8dba" stroke-width="0.5"></polygon><circle r="0.5" cx="-150.03351440872152" cy="-184.7542241166995" fill="#d6f0ff" stroke="#3d8dba"></circle><polygon points="-137.30258200786932,-191 -137.30258200786932,-178.508448233399 -115.65373748902685,-178.508448233399 -115.65373748902685,-191" fill="#d6f0ff" stroke="#3d8dba" stroke-width="0.5"></polygon><circle r="0.5" cx="-126.47815974844809" cy="-184.7542241166995" fill="#d6f0ff" stroke="#3d8dba"></circle><polygon points="-137.30258200786932,-172.50844823339898 -137.30258200786932,-171.36176109601337 -115.9327213961509,-161.73495917371176 -115.71498210359242,-172.50844823339898" fill="#d6f0ff" stroke="#3d8dba" stroke-width="0.5"></polygon><circle r="0.5" cx="-126.56321687887049" cy="-169.52840418413078" fill="#d6f0ff" stroke="#3d8dba"></circle><polygon points="-109.65373748902684,-191 -109.65373748902684,-178.508448233399 -88.00489297018436,-178.508448233399 -88.00489297018436,-191" fill="#d6f0ff" stroke="#3d8dba" stroke-width="0.5"></polygon><circle r="0.5" cx="-98.8293152296056" cy="-184.7542241166995" fill="#d6f0ff" stroke="#3d8dba"></circle><polygon points="-109.65373748902684,-172.508448233399 -109.65373748902684,-161.35226166115913 -88.00489297018436,-168.2233587808309 -88.00489297018436,-172.508448233399" fill="#d6f0ff" stroke="#3d8dba" stroke-width="0.5"></polygon><circle r="0.5" cx="-98.8293152296056" cy="-168.648129227197" fill="#d6f0ff" stroke="#3d8dba"></circle><polygon points="-82.00489297018434,-191 -82.00489297018434,-178.508448233399 -60.35604845134185,-178.508448233399 -60.35604845134185,-191" fill="#d6f0ff" stroke="#3d8dba" stroke-width="0.5"></polygon><circle r="0.5" cx="-71.1804707107631" cy="-184.7542241166995" fill="#d6f0ff" stroke="#3d8dba"></circle><polygon points="-54.17046584408408,-191 -53.47804564036798,-179.47099121099367 -38.005439448006086,-184.11373290148603 -34.562305898749116,-191" fill="#d6f0ff" stroke="#3d8dba" stroke-width="0.5"></polygon><circle r="0.5" cx="-45.054064207801815" cy="-186.39618102811994" fill="#d6f0ff" stroke="#3d8dba"></circle><line x1="-27" y1="0" x2="-63.96124528390324" y2="-3.552713678800501e-15" stroke="#888888" stroke-width="10"></line><line x1="-115" y1="-75" x2="-108.01937735804839" y2="-35.13518789299707" stroke="#888888" stroke-width="10"></line><line x1="-170" y1="-35" x2="-132.46979603717466" y2="-15.636629649360597" stroke="#888888" stroke-width="10"></line><line x1="-170" y1="35" x2="-132.46979603717466" y2="15.636629649360598" stroke="#888888" stroke-width="10"></line><line x1="-115" y1="75" x2="-108.01937735804837" y2="35.135187892997074" stroke="#888888" stroke-width="10"></line><line x1="-50" y1="-140" x2="-28.16" y2="-129.6" stroke="#888888" stroke-width="10"></line><line x1="-50" y1="140" x2="-28.16" y2="129.6" stroke="#888888" stroke-width="10"></line></svg>