<svg class="d-block" xmlns="http://www.w3.org/2000/svg" version="1.1" xmlns:xlink="http://www.w3.org/1999/xlink" xmlns:svgjs="http://svgjs.dev/svgjs" width="1000" height="1000" viewBox="-500 -500 1000 1000"><polygon points="64.20344193564601,-445.00317576340314 69.44335336102202,-454.4782837921974 72.2826301253854,-495 -20.27141208735502,-494.99999999999994 3.0596035210216836,-461.6496696504473" fill="#d6f0ff" stroke="#3d8dba"></polygon><circle r="2" cx="37.74352337114401" cy="-470.22622584120955" stroke="#3d8dba" fill="#3d8dba"></circle><circle r="2" cx="58.821542318636034" cy="-478.41498907152913" stroke="blue" fill="blue"></circle><polygon points="495,-439.63287728126113 495,-495 440.862350416294,-495 444.6278760989127,-453.8408663930776" fill="#d6f0ff" stroke="#3d8dba"></polygon><circle r="2" cx="468.8725566288017" cy="-470.86843591858474" stroke="#3d8dba" fill="#3d8dba"></circle><circle r="2" cx="480.54131888331403" cy="-477.8259186953832" stroke="blue" fill="blue"></circle><polygon points="142.86655061564434,-495 82.30714771283972,-495 79.94208925256002,-461.2462536427637 142.65754276099406,-491.2828329750367" fill="#d6f0ff" stroke="#3d8dba"></polygon><circle r="2" cx="111.94333258550955" cy="-485.6322716544501" stroke="#3d8dba" fill="#3d8dba"></circle><circle r="2" cx="93.2749276033777" cy="-476.0009082909676" stroke="blue" fill="blue"></circle><polygon points="-367.5,-442.5 -367.5,-495 -477.92893218813464,-495 -425.4289321881346,-442.5" fill="#d6f0ff" stroke="#3d8dba"></polygon><circle r="2" cx="-409.58946609406735" cy="-468.75" stroke="#3d8dba" fill="#3d8dba"></circle><circle r="2" cx="-395" cy="-470" stroke="blue" fill="blue"></circle><polygon points="-302.5,-442.5 -302.5,-495 -357.5,-495 -357.5,-442.5" fill="#d6f0ff" stroke="#3d8dba"></polygon><circle r="2" cx="-330" cy="-468.75" stroke="#3d8dba" fill="#3d8dba"></circle><circle r="2" cx="-330" cy="-470" stroke="blue" fill="blue"></circle><polygon points="-237.5,-442.5 -237.5,-495 -292.5,-495 -292.5,-442.5" fill="#d6f0ff" stroke="#3d8dba"></polygon><circle r="2" cx="-265" cy="-468.75" stroke="#3d8dba" fill="#3d8dba"></circle><circle r="2" cx="-265" cy="-470" stroke="blue" fill="blue"></circle><polygon points="-169.57106781186553,-442.5 -139.37477161826902,-472.6962961935965 -126.84732741529398,-495 -227.5,-495 -227.5,-442.5" fill="#d6f0ff" stroke="#3d8dba"></polygon><circle r="2" cx="-178.15863336908572" cy="-469.5392592387193" stroke="#3d8dba" fill="#3d8dba"></circle><circle r="2" cx="-200" cy="-470" stroke="blue" fill="blue"></circle><polygon points="169.57106781186542,-442.5 227.5,-442.5 227.5,-495 152.8823459277641,-495 152.50793003021334,-488.3410807439443 158.54782047207775,-453.52324733978764" fill="#d6f0ff" stroke="#3d8dba"></polygon><circle r="2" cx="181.41819404032012" cy="-469.4773880139553" stroke="#3d8dba" fill="#3d8dba"></circle><circle r="2" cx="200" cy="-470" stroke="blue" fill="blue"></circle><polygon points="292.5,-442.5 292.5,-495 237.5,-495 237.5,-442.5" fill="#d6f0ff" stroke="#3d8dba"></polygon><circle r="2" cx="265" cy="-468.75" stroke="#3d8dba" fill="#3d8dba"></circle><circle r="2" cx="265" cy="-470" stroke="blue" fill="blue"></circle><polygon points="357.5,-442.5 357.5,-495 302.5,-495 302.5,-442.5" fill="#d6f0ff" stroke="#3d8dba"></polygon><circle r="2" cx="330" cy="-468.75" stroke="#3d8dba" fill="#3d8dba"></circle><circle r="2" cx="330" cy="-470" stroke="blue" fill="blue"></circle><polygon points="425.42893218813464,-442.5 434.7691475120004,-451.84021532386583 430.82058826373327,-495 367.5,-495 367.5,-442.5" fill="#d6f0ff" stroke="#3d8dba"></polygon><circle r="2" cx="405.20373359277363" cy="-465.36804306477313" stroke="#3d8dba" fill="#3d8dba"></circle><circle r="2" cx="395" cy="-470" stroke="blue" fill="blue"></circle><polygon points="148.39706432910978,-453.5313761456348 143.68621340620575,-480.6877665146728 77.95559162750018,-449.20711979734955 72.55023620889654,-439.4328464618756 88.95498616671934,-415.57437890263935" fill="#d6f0ff" stroke="#3d8dba"></polygon><circle r="2" cx="106.30881834768631" cy="-447.68669756443444" stroke="#3d8dba" fill="#3d8dba"></circle><circle r="2" cx="104.11520083530695" cy="-453.36675130607716" stroke="blue" fill="blue"></circle><polygon points="-77.96814583513995,-386.1691018828817 -68.49902552616592,-495 -115.37789247645638,-495 -129.97099838660915,-469.01861811859214 -104.0819658529299,-378.6764869915542" fill="#d6f0ff" stroke="#3d8dba"></polygon><circle r="2" cx="-99.17960561546026" cy="-444.7728413986056" stroke="#3d8dba" fill="#3d8dba"></circle><circle r="2" cx="-101.41160190138305" cy="-414.6253112504783" stroke="blue" fill="blue"></circle><polygon points="39.999999999999964,-368.86751345948124 81.85910298773938,-393.0348778374889 82.50248637501215,-407.30880607282427 63.596959951660075,-434.8043113393788 4.9999999999999325,-450.75741407100895 4.9999999999999565,-389.0747728811182" fill="#d6f0ff" stroke="#3d8dba"></polygon><circle r="2" cx="46.32642488573524" cy="-407.3079492768834" stroke="#3d8dba" fill="#3d8dba"></circle><circle r="2" cx="39.99999999999994" cy="-409.2820323027551" stroke="blue" fill="blue"></circle><polygon points="-5.0000000000000435,-389.07477288111824 -5.00000000000007,-455.7253361382414 -32.475523809458565,-494.99999999999994 -58.461245240937565,-495 -68.02779111591468,-385.04936620504515 -40.000000000000014,-368.8675134594813" fill="#d6f0ff" stroke="#3d8dba"></polygon><circle r="2" cx="-34.82742669438516" cy="-431.45283144731434" stroke="#3d8dba" fill="#3d8dba"></circle><circle r="2" cx="-40.000000000000036" cy="-409.28203230275506" stroke="blue" fill="blue"></circle><polygon points="-432.5,-374.5710678118654 -432.5,-435.4289321881346 -492.0710678118654,-495 -495,-495 -495,-382.7175723084 -433.5509666922828,-373.5201011195826" fill="#d6f0ff" stroke="#3d8dba"></polygon><circle r="2" cx="-463.4370057506914" cy="-426.0396122379971" stroke="#3d8dba" fill="#3d8dba"></circle><circle r="2" cx="-460" cy="-405" stroke="blue" fill="blue"></circle><polygon points="-367.5,-377.5 -367.5,-432.5 -422.5,-432.5 -422.5,-377.5" fill="#d6f0ff" stroke="#3d8dba"></polygon><circle r="2" cx="-395" cy="-405" stroke="#3d8dba" fill="#3d8dba"></circle><circle r="2" cx="-395" cy="-405" stroke="blue" fill="blue"></circle><polygon points="-302.5,-377.5 -302.5,-432.5 -357.5,-432.5 -357.5,-377.5" fill="#d6f0ff" stroke="#3d8dba"></polygon><circle r="2" cx="-330" cy="-405" stroke="#3d8dba" fill="#3d8dba"></circle><circle r="2" cx="-330" cy="-405" stroke="blue" fill="blue"></circle><polygon points="-237.5,-377.5 -237.5,-432.5 -292.5,-432.5 -292.5,-377.5" fill="#d6f0ff" stroke="#3d8dba"></polygon><circle r="2" cx="-265" cy="-405" stroke="#3d8dba" fill="#3d8dba"></circle><circle r="2" cx="-265" cy="-405" stroke="blue" fill="blue"></circle><polygon points="-172.5,-377.5 -172.5,-432.5 -227.5,-432.5 -227.5,-377.5" fill="#d6f0ff" stroke="#3d8dba"></polygon><circle r="2" cx="-200" cy="-405" stroke="#3d8dba" fill="#3d8dba"></circle><circle r="2" cx="-200" cy="-405" stroke="blue" fill="blue"></circle><polygon points="-139.71762709480754,-351.788694906673 -113.20748793722072,-374.2203511169388 -137.82021919665542,-460.1087129914791 -162.5,-435.42893218813447 -162.5,-374.5710678118654" fill="#d6f0ff" stroke="#3d8dba"></polygon><circle r="2" cx="-143.14906684573674" cy="-399.2235518030181" stroke="#3d8dba" fill="#3d8dba"></circle><circle r="2" cx="-135" cy="-405" stroke="blue" fill="blue"></circle><polygon points="162.5,-374.5710678118654 162.5,-435.4289321881346 153.19724858419332,-444.7316836039413 92.4510285435037,-405.9419208990143 91.83629751561526,-392.3036660890665 139.71762709480757,-351.78869490667296" fill="#d6f0ff" stroke="#3d8dba"></polygon><circle r="2" cx="133.7003669563533" cy="-400.79432758311583" stroke="#3d8dba" fill="#3d8dba"></circle><circle r="2" cx="135" cy="-405" stroke="blue" fill="blue"></circle><polygon points="227.5,-377.5 227.5,-432.5 172.5,-432.5 172.5,-377.5" fill="#d6f0ff" stroke="#3d8dba"></polygon><circle r="2" cx="200" cy="-405" stroke="#3d8dba" fill="#3d8dba"></circle><circle r="2" cx="200" cy="-405" stroke="blue" fill="blue"></circle><polygon points="292.5,-377.5 292.5,-432.5 237.5,-432.5 237.5,-377.5" fill="#d6f0ff" stroke="#3d8dba"></polygon><circle r="2" cx="265" cy="-405" stroke="#3d8dba" fill="#3d8dba"></circle><circle r="2" cx="265" cy="-405" stroke="blue" fill="blue"></circle><polygon points="357.5,-377.5 357.5,-432.5 302.5,-432.5 302.5,-377.5" fill="#d6f0ff" stroke="#3d8dba"></polygon><circle r="2" cx="330" cy="-405" stroke="#3d8dba" fill="#3d8dba"></circle><circle r="2" cx="330" cy="-405" stroke="blue" fill="blue"></circle><polygon points="422.5,-377.5 422.5,-432.5 367.5,-432.5 367.5,-377.5" fill="#d6f0ff" stroke="#3d8dba"></polygon><circle r="2" cx="395" cy="-405" stroke="#3d8dba" fill="#3d8dba"></circle><circle r="2" cx="395" cy="-405" stroke="blue" fill="blue"></circle><polygon points="462.0710678118654,-345 495,-345 495,-429.242698478999 441.4251251154624,-444.354057303597 432.5,-435.4289321881346 432.5,-374.5710678118654" fill="#d6f0ff" stroke="#3d8dba"></polygon><circle r="2" cx="459.7493654878879" cy="-395.5994592970994" stroke="#3d8dba" fill="#3d8dba"></circle><circle r="2" cx="460" cy="-405" stroke="blue" fill="blue"></circle><polygon points="-436.8721413340157,-363.90580793188275 -495,-372.6061775971107 -495,-308.8376698292746 -437.6723746061772,-317.0883561379992" fill="#d6f0ff" stroke="#3d8dba"></polygon><circle r="2" cx="-466.13612898504823" cy="-340.6095028740668" stroke="#3d8dba" fill="#3d8dba"></circle><circle r="2" cx="-469.5382711872315" cy="-341.27405491687216" stroke="blue" fill="blue"></circle><polygon points="-367.5,-312.5 -367.5,-367.5 -425.42893218813447,-367.5 -426.8332499448332,-366.0956822433012 -427.7103456357254,-314.7814134475908 -425.4289321881346,-312.5" fill="#d6f0ff" stroke="#3d8dba"></polygon><circle r="2" cx="-406.7335766594713" cy="-340.1461826151487" stroke="#3d8dba" fill="#3d8dba"></circle><circle r="2" cx="-395" cy="-340" stroke="blue" fill="blue"></circle><polygon points="-302.5,-312.5 -302.5,-367.5 -357.5,-367.5 -357.5,-312.5" fill="#d6f0ff" stroke="#3d8dba"></polygon><circle r="2" cx="-330" cy="-340" stroke="#3d8dba" fill="#3d8dba"></circle><circle r="2" cx="-330" cy="-340" stroke="blue" fill="blue"></circle><polygon points="-237.5,-312.5 -237.5,-367.5 -292.5,-367.5 -292.5,-312.5" fill="#d6f0ff" stroke="#3d8dba"></polygon><circle r="2" cx="-265" cy="-340" stroke="#3d8dba" fill="#3d8dba"></circle><circle r="2" cx="-265" cy="-340" stroke="blue" fill="blue"></circle><polygon points="-169.57106781186545,-312.5 -145,-337.0710678118654 -145,-342.9289321881346 -169.57106781186545,-367.5 -227.5,-367.5 -227.5,-312.5" fill="#d6f0ff" stroke="#3d8dba"></polygon><circle r="2" cx="-180.69035593728847" cy="-340" stroke="#3d8dba" fill="#3d8dba"></circle><circle r="2" cx="-200" cy="-340" stroke="blue" fill="blue"></circle><polygon points="-86.18540392272604,-296.0143365368937 -45.00000000000001,-319.7927405783631 -45.00000000000002,-360.2072594216369 -73.94648790095339,-376.9195220033465 -105.1001678197007,-367.98086324258924 -135,-342.68100524387444 -135,-337.31899475612556" fill="#d6f0ff" stroke="#3d8dba"></polygon><circle r="2" cx="-89.31886566334002" cy="-342.9878173975471" stroke="#3d8dba" fill="#3d8dba"></circle><circle r="2" cx="-80" cy="-340" stroke="blue" fill="blue"></circle><polygon points="0,-299.58548115672625 35,-319.7927405783631 34.99999999999999,-360.2072594216369 -4.922784477141926e-14,-380.4145188432737 -35.00000000000001,-360.20725942163676 -35,-319.7927405783631" fill="#d6f0ff" stroke="#3d8dba"></polygon><circle r="2" cx="-8.43769498715119e-15" cy="-340" stroke="#3d8dba" fill="#3d8dba"></circle><circle r="2" cx="0" cy="-340" stroke="blue" fill="blue"></circle><polygon points="86.18540392272607,-296.0143365368937 135,-337.31899475612556 135,-342.68100524387444 86.18540392272604,-383.98566346310633 45,-360.2072594216369 45.000000000000014,-319.7927405783631" fill="#d6f0ff" stroke="#3d8dba"></polygon><circle r="2" cx="88.72846797424204" cy="-340" stroke="#3d8dba" fill="#3d8dba"></circle><circle r="2" cx="80" cy="-340" stroke="blue" fill="blue"></circle><polygon points="169.57106781186542,-312.5 227.5,-312.5 227.5,-367.5 169.57106781186548,-367.5 145,-342.9289321881346 145,-337.0710678118654" fill="#d6f0ff" stroke="#3d8dba"></polygon><circle r="2" cx="180.69035593728847" cy="-340" stroke="#3d8dba" fill="#3d8dba"></circle><circle r="2" cx="200" cy="-340" stroke="blue" fill="blue"></circle><polygon points="292.5,-312.5 292.5,-367.5 237.5,-367.5 237.5,-312.5" fill="#d6f0ff" stroke="#3d8dba"></polygon><circle r="2" cx="265" cy="-340" stroke="#3d8dba" fill="#3d8dba"></circle><circle r="2" cx="265" cy="-340" stroke="blue" fill="blue"></circle><polygon points="357.5,-312.5 357.5,-367.5 302.5,-367.5 302.5,-312.5" fill="#d6f0ff" stroke="#3d8dba"></polygon><circle r="2" cx="330" cy="-340" stroke="#3d8dba" fill="#3d8dba"></circle><circle r="2" cx="330" cy="-340" stroke="blue" fill="blue"></circle><polygon points="425.42893218813464,-312.5 452.9289321881346,-340 425.4289321881346,-367.5 367.5,-367.5 367.5,-312.5" fill="#d6f0ff" stroke="#3d8dba"></polygon><circle r="2" cx="407.75735931288074" cy="-340" stroke="#3d8dba" fill="#3d8dba"></circle><circle r="2" cx="395" cy="-340" stroke="blue" fill="blue"></circle><polygon points="-432.5,-244.57106781186545 -432.5,-305.42893218813447 -434.51133027932156,-307.440262467456 -495,-298.7346334505747 -495,-280.6958330647401 -445.3854582521619,-231.68560955970352" fill="#d6f0ff" stroke="#3d8dba"></polygon><circle r="2" cx="-455.8161314219139" cy="-278.0927230904124" stroke="#3d8dba" fill="#3d8dba"></circle><circle r="2" cx="-460" cy="-275" stroke="blue" fill="blue"></circle><polygon points="-367.5,-247.5 -367.5,-302.5 -422.5,-302.5 -422.5,-247.5" fill="#d6f0ff" stroke="#3d8dba"></polygon><circle r="2" cx="-395" cy="-275" stroke="#3d8dba" fill="#3d8dba"></circle><circle r="2" cx="-395" cy="-275" stroke="blue" fill="blue"></circle><polygon points="-302.5,-247.5 -302.5,-302.5 -357.5,-302.5 -357.5,-247.5" fill="#d6f0ff" stroke="#3d8dba"></polygon><circle r="2" cx="-330" cy="-275" stroke="#3d8dba" fill="#3d8dba"></circle><circle r="2" cx="-330" cy="-275" stroke="blue" fill="blue"></circle><polygon points="-237.5,-247.5 -237.5,-302.5 -292.5,-302.5 -292.5,-247.5" fill="#d6f0ff" stroke="#3d8dba"></polygon><circle r="2" cx="-265" cy="-275" stroke="#3d8dba" fill="#3d8dba"></circle><circle r="2" cx="-265" cy="-275" stroke="blue" fill="blue"></circle><polygon points="-172.5,-247.5 -172.5,-302.5 -227.5,-302.5 -227.5,-247.5" fill="#d6f0ff" stroke="#3d8dba"></polygon><circle r="2" cx="-200" cy="-275" stroke="#3d8dba" fill="#3d8dba"></circle><circle r="2" cx="-200" cy="-275" stroke="blue" fill="blue"></circle><polygon points="-127.52041281274208,-211.5228417012326 -94.902915799707,-219.6611776134746 -91.8362975156153,-287.6963339109335 -139.71762709480757,-328.211305093327 -162.5,-305.4289321881346 -162.5,-244.65111803728817" fill="#d6f0ff" stroke="#3d8dba"></polygon><circle r="2" cx="-129.829542203812" cy="-266.1952847573984" stroke="#3d8dba" fill="#3d8dba"></circle><circle r="2" cx="-135" cy="-275" stroke="blue" fill="blue"></circle><polygon points="150.8286761099087,-232.8997439217742 162.5,-244.57106781186548 162.5,-305.4289321881346 139.71762709480757,-328.21130509332704 91.83629751561531,-287.69633391093356 92.68661124432462,-268.8315055967205" fill="#d6f0ff" stroke="#3d8dba"></polygon><circle r="2" cx="133.34486866077603" cy="-277.9398147537926" stroke="#3d8dba" fill="#3d8dba"></circle><circle r="2" cx="135" cy="-275" stroke="blue" fill="blue"></circle><polygon points="227.5,-247.5 227.5,-302.5 172.5,-302.5 172.5,-247.5" fill="#d6f0ff" stroke="#3d8dba"></polygon><circle r="2" cx="200" cy="-275" stroke="#3d8dba" fill="#3d8dba"></circle><circle r="2" cx="200" cy="-275" stroke="blue" fill="blue"></circle><polygon points="292.5,-247.5 292.5,-302.5 237.5,-302.5 237.5,-247.5" fill="#d6f0ff" stroke="#3d8dba"></polygon><circle r="2" cx="265" cy="-275" stroke="#3d8dba" fill="#3d8dba"></circle><circle r="2" cx="265" cy="-275" stroke="blue" fill="blue"></circle><polygon points="357.5,-247.5 357.5,-302.5 302.5,-302.5 302.5,-247.5" fill="#d6f0ff" stroke="#3d8dba"></polygon><circle r="2" cx="330" cy="-275" stroke="#3d8dba" fill="#3d8dba"></circle><circle r="2" cx="330" cy="-275" stroke="blue" fill="blue"></circle><polygon points="422.5,-247.5 422.5,-302.5 367.5,-302.5 367.5,-247.5" fill="#d6f0ff" stroke="#3d8dba"></polygon><circle r="2" cx="395" cy="-275" stroke="#3d8dba" fill="#3d8dba"></circle><circle r="2" cx="395" cy="-275" stroke="blue" fill="blue"></circle><polygon points="453.67006211443794,-223.40100569742754 495,-232.42260929004897 495,-335 462.07106781186536,-335 432.5,-305.4289321881346 432.5,-244.5710678118655" fill="#d6f0ff" stroke="#3d8dba"></polygon><circle r="2" cx="461.7901883210505" cy="-279.3039358312461" stroke="#3d8dba" fill="#3d8dba"></circle><circle r="2" cx="460" cy="-275" stroke="blue" fill="blue"></circle><polygon points="43.884154860357874,-221.34806025009146 82.72804557358174,-267.6869991082062 81.85910298773942,-286.96512216251114 40.000000000000014,-311.1324865405187 4.999999999999997,-290.9252271188818 5.000000000000046,-218.3260398761671" fill="#d6f0ff" stroke="#3d8dba"></polygon><circle r="2" cx="43.07855057027985" cy="-266.0639891760627" stroke="#3d8dba" fill="#3d8dba"></circle><circle r="2" cx="40.00000000000001" cy="-270.71796769724494" stroke="blue" fill="blue"></circle><polygon points="-4.999999999999953,-215.3002400285084 -5.000000000000003,-290.9252271188818 -40.00000000000001,-311.13248654051876 -81.8591029877394,-286.965122162511 -84.92674089205101,-218.907344849132 -30.203629030677966,-194.79522909222084" fill="#d6f0ff" stroke="#3d8dba"></polygon><circle r="2" cx="-41.16491215174472" cy="-253.00427496529548" stroke="#3d8dba" fill="#3d8dba"></circle><circle r="2" cx="-39.999999999999986" cy="-270.7179676972449" stroke="blue" fill="blue"></circle><polygon points="-450.9815258852359,-223.15724359300623 -495,-266.6395610490424 -495,-172.01700191608086 -464.63434341771205,-175.07968441247954" fill="#d6f0ff" stroke="#3d8dba"></polygon><circle r="2" cx="-476.40396732573697" cy="-209.22337274265226" stroke="#3d8dba" fill="#3d8dba"></circle><circle r="2" cx="-495.90329755933567" cy="-238.65399852829376" stroke="blue" fill="blue"></circle><polygon points="144.28478673613427,-203.53751431053607 146.28593088106084,-223.9516345360284 88.86282811465657,-259.43907805920674 53.28606558302786,-216.99766981063576 68.39934611864506,-203.28042728372498" fill="#d6f0ff" stroke="#3d8dba"></polygon><circle r="2" cx="100.22379148670493" cy="-221.44126480002643" stroke="#3d8dba" fill="#3d8dba"></circle><circle r="2" cx="100.83739869316048" cy="-219.72065691829675" stroke="blue" fill="blue"></circle><polygon points="-367.5,-214.79810318690087 -367.5,-237.5 -425.42893218813447,-237.5 -440.90914228999986,-222.01978989813463 -455.01281585983713,-172.35456884733415 -431.2297953225393,-154.1987298062827" fill="#d6f0ff" stroke="#3d8dba"></polygon><circle r="2" cx="-414.5967809434185" cy="-206.39519862310874" stroke="#3d8dba" fill="#3d8dba"></circle><circle r="2" cx="-395" cy="-210" stroke="blue" fill="blue"></circle><polygon points="-329.0211394042411,-179.11267833054904 -302.5,-211.8264576380727 -302.5,-237.5 -357.5,-237.5 -357.5,-214.41816072758843" fill="#d6f0ff" stroke="#3d8dba"></polygon><circle r="2" cx="-329.80422788084826" cy="-216.07145933924204" stroke="#3d8dba" fill="#3d8dba"></circle><circle r="2" cx="-330" cy="-210" stroke="blue" fill="blue"></circle><polygon points="-238.8703371294895,-171.27564030820528 -237.59705784064002,-237.5 -292.5,-237.5 -292.5,-212.51676579704642" fill="#d6f0ff" stroke="#3d8dba"></polygon><circle r="2" cx="-265.3668487425324" cy="-214.69810152631294" stroke="#3d8dba" fill="#3d8dba"></circle><circle r="2" cx="-265" cy="-210" stroke="blue" fill="blue"></circle><polygon points="-203.33261654856227,-173.1719109560586 -139.91096963587447,-207.839901824009 -169.57106781186548,-237.5 -227.5,-237.5 -227.5,-168.80573975405204" fill="#d6f0ff" stroke="#3d8dba"></polygon><circle r="2" cx="-193.56293079926044" cy="-204.96351050682392" stroke="#3d8dba" fill="#3d8dba"></circle><circle r="2" cx="-200" cy="-210" stroke="blue" fill="blue"></circle><polygon points="216.27058599600886,-169.48156172597152 227.5,-177.32942191383063 227.5,-237.5 169.5710678118655,-237.5 156.36768021185105,-224.29661239998552 153.8999476909329,-199.12271950771316 162.7671358619605,-172.4674954133414" fill="#d6f0ff" stroke="#3d8dba"></polygon><circle r="2" cx="187.69663108180268" cy="-202.5282587086917" stroke="#3d8dba" fill="#3d8dba"></circle><circle r="2" cx="200" cy="-210" stroke="blue" fill="blue"></circle><polygon points="292.5,-171.65064193525419 292.5,-237.5 237.5,-237.5 237.5,-179.09273566881848" fill="#d6f0ff" stroke="#3d8dba"></polygon><circle r="2" cx="265" cy="-206.43584440101816" stroke="#3d8dba" fill="#3d8dba"></circle><circle r="2" cx="265" cy="-210" stroke="blue" fill="blue"></circle><polygon points="317.44661256879374,-153.55454878856295 357.5,-156.89233107449678 357.5,-237.5 302.5,-237.5 302.5,-168.045110234774" fill="#d6f0ff" stroke="#3d8dba"></polygon><circle r="2" cx="327.48932251375874" cy="-190.69839801956675" stroke="#3d8dba" fill="#3d8dba"></circle><circle r="2" cx="330" cy="-210" stroke="blue" fill="blue"></circle><polygon points="392.7836079876718,-143.9118374983354 423.3331290265608,-167.6013205062019 446.0660346824415,-216.8628975056928 425.42893218813447,-237.5 367.5,-237.5 367.5,-155.50015782601835" fill="#d6f0ff" stroke="#3d8dba"></polygon><circle r="2" cx="403.7686173141348" cy="-193.1460355560414" stroke="#3d8dba" fill="#3d8dba"></circle><circle r="2" cx="395" cy="-210" stroke="blue" fill="blue"></circle><polygon points="-391.28109317685835,-129.14379845800627 -344.8574570566816,-142.90994021015175 -334.2830695257235,-162.02923238487557 -334.0795109031912,-169.4560075432353 -362.9858058827293,-205.29138393170246 -424.248477182112,-147.03794888493417 -417.1568973375487,-137.3163583142018" fill="#d6f0ff" stroke="#3d8dba"></polygon><circle r="2" cx="-372.6989015806921" cy="-156.1692385324439" stroke="#3d8dba" fill="#3d8dba"></circle><circle r="2" cx="-366.78511855816123" cy="-180.3276037518698" stroke="blue" fill="blue"></circle><polygon points="-296.84639501661906,-202.9208812847765 -324.079230325442,-169.32922631732407 -324.18350971658833,-165.52462407517902 -250.494764472074,-163.33573483980496" fill="#d6f0ff" stroke="#3d8dba"></polygon><circle r="2" cx="-298.9009748826808" cy="-175.2776166292711" stroke="#3d8dba" fill="#3d8dba"></circle><circle r="2" cx="-290.8312535823395" cy="-178.24580326635527" stroke="blue" fill="blue"></circle><polygon points="149.32374974850708,-161.02945581538341 153.62885566885058,-168.2574443522723 145.21809668325847,-193.54061881982463 73.10413670744991,-193.2963089309856 80.10095156334336,-168.88905908597118" fill="#d6f0ff" stroke="#3d8dba"></polygon><circle r="2" cx="120.27515807428185" cy="-177.00257740088745" stroke="#3d8dba" fill="#3d8dba"></circle><circle r="2" cx="100.98192435712133" cy="-177.06041915273767" stroke="blue" fill="blue"></circle><polygon points="494.89227742908867,-222.16363117833197 455.5640205327014,-213.57895958529937 434.11074434477666,-167.09030420527722 493.5402771837919,-143.40046415181698" fill="#d6f0ff" stroke="#3d8dba"></polygon><circle r="2" cx="469.52682987258964" cy="-186.5583397801814" stroke="#3d8dba" fill="#3d8dba"></circle><circle r="2" cx="483.0586514396264" cy="-169.3632778873116" stroke="blue" fill="blue"></circle><polygon points="33.922890109561614,-125.50113238503283 58.231997434676536,-124.50361241668473 70.99141170958161,-164.37778283495786 62.06160245167551,-195.52796904325137 44.60312166081993,-211.37378190930627 1.9442163206045449,-208.05839337815746 -24.077807143640655,-186.88755821512603 -20.618912754461423,-162.20224247094183" fill="#d6f0ff" stroke="#3d8dba"></polygon><circle r="2" cx="28.382314973602202" cy="-172.3040590816823" stroke="#3d8dba" fill="#3d8dba"></circle><circle r="2" cx="48.449331556551556" cy="-162.00092543428786" stroke="blue" fill="blue"></circle><polygon points="-134.4716487180999,-197.53039373010265 -193.68387395387256,-166.8863388935499 -139.84775948146236,-105.32136477247923" fill="#d6f0ff" stroke="#3d8dba"></polygon><circle r="2" cx="-156.00109405114495" cy="-156.5793657987106" stroke="#3d8dba" fill="#3d8dba"></circle><circle r="2" cx="-165.7372372377983" cy="-147.31967766939658" stroke="blue" fill="blue"></circle><polygon points="138.96967422933994,-125.45886399340377 145.6837476062569,-151.37849310228796 79.72756946264671,-158.86720212653674 67.66681349143293,-121.17639370790651 80.9792496444934,-110.955311347332" fill="#d6f0ff" stroke="#3d8dba"></polygon><circle r="2" cx="102.605410886834" cy="-133.5672528554934" stroke="#3d8dba" fill="#3d8dba"></circle><circle r="2" cx="97.4902977695433" cy="-146.308210130387" stroke="blue" fill="blue"></circle><polygon points="-94.43927014679508,-97.0983732187987 -40.79415918105436,-140.78805949521833 -30.438301131713875,-160.21606768200323 -33.985844465477584,-185.5340500939823 -90.43860206104205,-210.4082829298148 -121.46426328676853,-201.53882926964963 -126.81207467424358,-92.35882612074289" fill="#d6f0ff" stroke="#3d8dba"></polygon><circle r="2" cx="-76.91035927815643" cy="-155.42035554431567" stroke="#3d8dba" fill="#3d8dba"></circle><circle r="2" cx="-96.87520437801146" cy="-141.63812241555144" stroke="blue" fill="blue"></circle><polygon points="-249.18569874509154,-114.28531169197043 -245.43563775590246,-120.24726802160826 -242.7099748592794,-151.37647727279213 -326.4518673333231,-155.52674703173062 -335.23350234353296,-139.6488869627253 -297.73405607705547,-103.77585948160991" fill="#d6f0ff" stroke="#3d8dba"></polygon><circle r="2" cx="-282.79178951903083" cy="-130.81009174373943" stroke="#3d8dba" fill="#3d8dba"></circle><circle r="2" cx="-292.75722075085093" cy="-139.38468220629375" stroke="blue" fill="blue"></circle><polygon points="291.930537466954,-111.59748532771363 309.50520498098473,-147.3255937842727 295.20017419593097,-161.1941493935583 233.76407709487373,-169.50711654356604 223.22202734485612,-162.13963214035599 235.93969266937393,-93.67764955817093" fill="#d6f0ff" stroke="#3d8dba"></polygon><circle r="2" cx="264.92695229216224" cy="-140.90693779127292" stroke="#3d8dba" fill="#3d8dba"></circle><circle r="2" cx="254.4564348073808" cy="-132.07890596987653" stroke="blue" fill="blue"></circle><polygon points="-203.4929996087334,-162.87032110988787 -230.93211911688323,-156.838976377247 -232.39957159230391,-154.48456379962946 -235.21077794748453,-122.37838112124429 -149.55069464306098,-100.00754576855843" fill="#d6f0ff" stroke="#3d8dba"></polygon><circle r="2" cx="-210.31723258169322" cy="-139.3159576353134" stroke="#3d8dba" fill="#3d8dba"></circle><circle r="2" cx="-185.54641601758692" cy="-129.9973408761428" stroke="blue" fill="blue"></circle><polygon points="450.86189090841674,-82.16264312239143 488.9920275453455,-133.66294465583096 428.32691268023706,-158.59550734793254 401.3559475267082,-134.9574246633492" fill="#d6f0ff" stroke="#3d8dba"></polygon><circle r="2" cx="442.38419466517684" cy="-127.34462994737603" stroke="#3d8dba" fill="#3d8dba"></circle><circle r="2" cx="463.47041683352336" cy="-121.70181135220957" stroke="blue" fill="blue"></circle><polygon points="205.55919152964844,-58.31086659048353 226.75896278190842,-88.34640402360256 213.51908750737473,-159.61955733484484 161.84118895788959,-162.50361019096508 156.62863399442148,-153.7520746373764 148.39615365519668,-121.97064702109513 187.09969939389333,-49.92839873259632" fill="#d6f0ff" stroke="#3d8dba"></polygon><circle r="2" cx="185.6861311171904" cy="-113.49022264728055" stroke="#3d8dba" fill="#3d8dba"></circle><circle r="2" cx="195.0353373994668" cy="-121.04069758696494" stroke="blue" fill="blue"></circle><polygon points="494.8681596011084,-34.75687705134767 493.62301557342346,-121.55618789135474 457.0184431295346,-73.60311762084699 465.13934406169705,-53.532463316929466" fill="#d6f0ff" stroke="#3d8dba"></polygon><circle r="2" cx="477.6622405914409" cy="-70.86216147011972" stroke="#3d8dba" fill="#3d8dba"></circle><circle r="2" cx="493.0369246269196" cy="-99.81116317208182" stroke="blue" fill="blue"></circle><polygon points="-460.0572662083856,-51.684377139370575 -425.9362035002967,-132.38318673517995 -434.4858023764162,-144.10352291405638 -462.2162851291712,-165.27283488601998 -495,-161.96626684163328 -495,-39.52626681704936 -482.65356324008997,-39.61919638221803" fill="#d6f0ff" stroke="#3d8dba"></polygon><circle r="2" cx="-465.0498743506228" cy="-104.9365216736468" stroke="#3d8dba" fill="#3d8dba"></circle><circle r="2" cx="-481.5749351357983" cy="-96.59221665854386" stroke="blue" fill="blue"></circle><polygon points="-324.7012828828072,-50 -305.2003319630336,-97.0794601896897 -342.83294423089256,-133.0798780219362 -384.58340370404284,-120.69948752781895 -355.2987171171928,-50" fill="#d6f0ff" stroke="#3d8dba"></polygon><circle r="2" cx="-342.5233359795938" cy="-90.17176514788898" stroke="#3d8dba" fill="#3d8dba"></circle><circle r="2" cx="-340" cy="-90" stroke="blue" fill="blue"></circle><polygon points="13.58006256812814,-70 26.551064769638508,-118.40843924112455 -23.455151137659584,-152.05755860685193 -31.515509747704648,-136.9360001306472 -13.58006256812821,-70" fill="#d6f0ff" stroke="#3d8dba"></polygon><circle r="2" cx="-5.683919223145159" cy="-109.48039959572475" stroke="#3d8dba" fill="#3d8dba"></circle><circle r="2" cx="-1.6431300764452317e-14" cy="-90" stroke="blue" fill="blue"></circle><polygon points="355.23376288513305,-50 387.8912244091978,-133.00346517448472 361.44098541112635,-147.18608437643041 318.83441737073275,-143.63553703973096 300.9641531565314,-107.30650051698458 324.70128288280716,-50" fill="#d6f0ff" stroke="#3d8dba"></polygon><circle r="2" cx="341.5109710192548" cy="-105.18859785127177" stroke="#3d8dba" fill="#3d8dba"></circle><circle r="2" cx="340" cy="-90" stroke="blue" fill="blue"></circle><polygon points="-205.92451658367332,-34.40844164059622 -144.71173641834432,-85.85489359399273 -238.32892763494473,-112.76393192728845 -240.75026199455908,-108.91442394512802 -227.37511351383884,-47.927920590193274" fill="#d6f0ff" stroke="#3d8dba"></polygon><circle r="2" cx="-211.41811122907205" cy="-77.97392233943974" stroke="#3d8dba" fill="#3d8dba"></circle><circle r="2" cx="-199.22895908803423" cy="-80.5555553130236" stroke="blue" fill="blue"></circle><polygon points="47.62191044138037,-54.692978253245926 74.81372276974777,-81.88479058161334 74.84595183292863,-103.05685252235789 60.044991392901714,-114.42080078349872 36.09863816787716,-115.4034352007815 22.92194772551199,-66.22735699426735 26.71282650046351,-61.73132996675843" fill="#d6f0ff" stroke="#3d8dba"></polygon><circle r="2" cx="49.008569832973016" cy="-85.34536347178901" stroke="#3d8dba" fill="#3d8dba"></circle><circle r="2" cx="44.99999999999994" cy="-77.94228634059951" stroke="blue" fill="blue"></circle><polygon points="-26.712826500463553,-61.731329966758445 -22.92194772551205,-66.22735699426735 -39.68645974277664,-128.79336760679783 -84.89970174313548,-91.97076955500089 -47.62191044138043,-54.69297825324586" fill="#d6f0ff" stroke="#3d8dba"></polygon><circle r="2" cx="-44.36856923065363" cy="-80.68316047521407" stroke="#3d8dba" fill="#3d8dba"></circle><circle r="2" cx="-45.00000000000004" cy="-77.94228634059947" stroke="blue" fill="blue"></circle><polygon points="136.16374332270348,-33.45542808628164 176.5148211465896,-44.6119674153851 140.41569083557167,-115.5125036086954 84.84376677641255,-101.61382409383405 84.8134814769699,-81.71866821865812 124.81356442864528,-37.04485775764822" fill="#d6f0ff" stroke="#3d8dba"></polygon><circle r="2" cx="124.5941779978154" cy="-68.9928748634171" stroke="#3d8dba" fill="#3d8dba"></circle><circle r="2" cx="114.61529289712553" cy="-77.8363148164554" stroke="blue" fill="blue"></circle><polygon points="-237.59151278017228,-47.83094531002639 -249.88853800283127,-103.90154303673131 -295.6542593381479,-93.99445889055946 -315.4624875576944,-46.17316567634909 -293.8268343236509,-24.53751244230566" fill="#d6f0ff" stroke="#3d8dba"></polygon><circle r="2" cx="-278.48472640049937" cy="-63.28752507119438" stroke="#3d8dba" fill="#3d8dba"></circle><circle r="2" cx="-276.3603896932107" cy="-63.639610306789294" stroke="blue" fill="blue"></circle><polygon points="454.6132289860109,-52.88631487484085 447.04556098681377,-71.58966436370825 396.5979579922533,-123.57392813875705 364.5375124423057,-46.17316567634909 386.17316567634913,-24.53751244230566" fill="#d6f0ff" stroke="#3d8dba"></polygon><circle r="2" cx="409.79348521674655" cy="-63.75211709919219" stroke="#3d8dba" fill="#3d8dba"></circle><circle r="2" cx="403.6396103067893" cy="-63.639610306789294" stroke="blue" fill="blue"></circle><polygon points="-364.5375124423057,-46.17316567634913 -395.05496644645484,-119.84881702226318 -417.3954332913089,-126.90478333624117 -449.57440334332773,-50.79916495520814 -386.17316567634913,-24.53751244230566" fill="#d6f0ff" stroke="#3d8dba"></polygon><circle r="2" cx="-402.54709623994927" cy="-73.65268868647345" stroke="#3d8dba" fill="#3d8dba"></circle><circle r="2" cx="-403.6396103067893" cy="-63.63961030678928" stroke="blue" fill="blue"></circle><polygon points="315.4624875576944,-46.17316567634912 292.6204885724623,-101.31862941820883 235.17921831973655,-82.93458586530191 216.5530877348534,-56.545346294767235 293.82683432365087,-24.537512442305655" fill="#d6f0ff" stroke="#3d8dba"></polygon><circle r="2" cx="270.7284233016795" cy="-62.30184793938653" stroke="#3d8dba" fill="#3d8dba"></circle><circle r="2" cx="276.3603896932107" cy="-63.63961030678928" stroke="blue" fill="blue"></circle><polygon points="66.22735699426737,-22.92194772551204 112.85051158144445,-35.41458434573755 79.61003921862554,-72.53897140676017 54.69297825324586,-47.62191044138046 61.731329966758416,-26.71282650046355" fill="#d6f0ff" stroke="#3d8dba"></polygon><circle r="2" cx="75.02244320286835" cy="-41.042048083970755" stroke="#3d8dba" fill="#3d8dba"></circle><circle r="2" cx="77.94228634059945" cy="-45.00000000000004" stroke="blue" fill="blue"></circle><polygon points="-66.226141824026,-22.92297231078424 -61.731329966758445,-26.712826500463528 -54.692978253245904,-47.6219104413804 -94.00313186681679,-86.93206405495121 -123.60032527101393,-81.13351144597671 -110.40067671377982,-34.78315795726735" fill="#d6f0ff" stroke="#3d8dba"></polygon><circle r="2" cx="-85.10909731594016" cy="-50.01774045180391" stroke="#3d8dba" fill="#3d8dba"></circle><circle r="2" cx="-77.9422863405995" cy="-44.99999999999997" stroke="blue" fill="blue"></circle><polygon points="4.943378057865402,-25.000000000000004 18.008353301095593,-56.541640424275094 15.092396205742068,-60 -15.09239620574213,-60.00000000000001 -18.008353301095628,-56.54164042427513 -4.94337805786541,-24.999999999999996" fill="#d6f0ff" stroke="#3d8dba"></polygon><circle r="2" cx="-1.7763568394002505e-14" cy="-47.1805468080917" stroke="#3d8dba" fill="#3d8dba"></circle><circle r="2" cx="-7.549516567451064e-15" cy="-40" stroke="blue" fill="blue"></circle><polygon points="51.20993855567163,-26.623812079514035 45.01810730675794,-45.018107306758 26.62381207951401,-51.209938555671634 14.182173382978268,-21.173165676349107 21.1731656763491,-14.18217338297828" fill="#d6f0ff" stroke="#3d8dba"></polygon><circle r="2" cx="31.64143940025419" cy="-31.641439400254214" stroke="#3d8dba" fill="#3d8dba"></circle><circle r="2" cx="28.284271247461895" cy="-28.28427124746191" stroke="blue" fill="blue"></circle><polygon points="-14.18217338297828,-21.173165676349097 -26.623812079514035,-51.20993855567165 -45.01810730675798,-45.01810730675795 -51.20993855567164,-26.623812079514018 -21.1731656763491,-14.182173382978274" fill="#d6f0ff" stroke="#3d8dba"></polygon><circle r="2" cx="-31.641439400254214" cy="-31.641439400254193" stroke="#3d8dba" fill="#3d8dba"></circle><circle r="2" cx="-28.28427124746191" cy="-28.2842712474619" stroke="blue" fill="blue"></circle><polygon points="-120.59376928732284,-33.6128465589798 -134.31296957885047,-77.4649292373453 -199.87977641568608,-26.278085871573857 -194.3355006691432,-3.5239923628653673" fill="#d6f0ff" stroke="#3d8dba"></polygon><circle r="2" cx="-162.28050398775065" cy="-35.21996350769108" stroke="#3d8dba" fill="#3d8dba"></circle><circle r="2" cx="-153.00490326550903" cy="-23.63388205963048" stroke="blue" fill="blue"></circle><polygon points="-158.4551774391261,52.28913101029862 -140.22136450022606,45.58247401660556 -129.05479174951307,31.260778697301827 -120.72170906832052,-22.726510897706607 -192.52423499419984,6.538894670867759 -189.4299434819722,42.730532584083846" fill="#d6f0ff" stroke="#3d8dba"></polygon><circle r="2" cx="-155.06787020555964" cy="25.9458833469085" stroke="#3d8dba" fill="#3d8dba"></circle><circle r="2" cx="-146.95629934942264" cy="-8.80997011177476" stroke="blue" fill="blue"></circle><polygon points="-356.56854249492386,40.00000000000001 -323.43145750507625,40 -300,16.568542494923776 -300,-16.56854249492384 -323.43145750507614,-40 -356.56854249492375,-40 -380,-16.568542494923776 -380,16.568542494923843" fill="#d6f0ff" stroke="#3d8dba"></polygon><circle r="2" cx="-340" cy="1.3322676295501878e-15" stroke="#3d8dba" fill="#3d8dba"></circle><circle r="2" cx="-340" cy="0" stroke="blue" fill="blue"></circle><polygon points="-209.03846852398706,48.834081485053545 -199.38681254825187,43.661711905859924 -202.76860420584586,4.107397554441585 -209.8807826449673,-25.081477720259183 -232.287935683119,-39.20383686979326 -290,-15.298717117192794 -290,15.298717117192762" fill="#d6f0ff" stroke="#3d8dba"></polygon><circle r="2" cx="-233.33751480088156" cy="4.616839479328939" stroke="#3d8dba" fill="#3d8dba"></circle><circle r="2" cx="-250" cy="0" stroke="blue" fill="blue"></circle><polygon points="-6.213203435596428,15.000000000000002 6.2132034355964265,14.999999999999998 15,6.2132034355964265 15,-6.213203435596431 6.213203435596424,-15.000000000000002 -6.21320343559643,-14.999999999999998 -15,-6.213203435596425 -14.999999999999996,6.213203435596429" fill="#d6f0ff" stroke="#3d8dba"></polygon><circle r="2" cx="0" cy="0" stroke="#3d8dba" fill="#3d8dba"></circle><circle r="2" cx="0" cy="0" stroke="blue" fill="blue"></circle><polygon points="56.5416404242751,18.008353301095614 60,15.09239620574209 60,-15.092396205742121 56.5416404242751,-18.008353301095624 25,-4.943378057865413 25,4.943378057865406" fill="#d6f0ff" stroke="#3d8dba"></polygon><circle r="2" cx="47.1805468080917" cy="-8.43769498715119e-15" stroke="#3d8dba" fill="#3d8dba"></circle><circle r="2" cx="40" cy="0" stroke="blue" fill="blue"></circle><polygon points="103.9853514198702,22.686410035570304 128.88990832845792,-25.267598717241945 121.88543617570639,-27.482723290345298 70,-13.580062568128199 70,13.58006256812817" fill="#d6f0ff" stroke="#3d8dba"></polygon><circle r="2" cx="98.9521391848069" cy="-6.012782394403393" stroke="#3d8dba" fill="#3d8dba"></circle><circle r="2" cx="90" cy="0" stroke="blue" fill="blue"></circle><polygon points="323.4314575050762,40.00000000000001 356.56854249492375,40 380,16.568542494923776 380,-16.56854249492384 356.56854249492386,-40 323.43145750507625,-40 300,-16.568542494923776 300,16.568542494923843" fill="#d6f0ff" stroke="#3d8dba"></polygon><circle r="2" cx="340" cy="1.3322676295501878e-15" stroke="#3d8dba" fill="#3d8dba"></circle><circle r="2" cx="340" cy="0" stroke="blue" fill="blue"></circle><polygon points="443.5528936847999,37.48105198576138 474.52343423041395,27.75936363188489 495,17.496808181782633 495,-22.84622654198084 460.62845751403034,-44.5539821089961 390,-15.298717117192794 390,15.298717117192762" fill="#d6f0ff" stroke="#3d8dba"></polygon><circle r="2" cx="449.8149693470349" cy="2.191002164064561" stroke="#3d8dba" fill="#3d8dba"></circle><circle r="2" cx="430" cy="0" stroke="blue" fill="blue"></circle><polygon points="-56.5416404242751,18.00835330109562 -25.000000000000004,4.94337805786541 -24.999999999999996,-4.943378057865403 -56.54164042427511,-18.008353301095607 -60,-15.09239620574208 -60,15.092396205742109" fill="#d6f0ff" stroke="#3d8dba"></polygon><circle r="2" cx="-47.1805468080917" cy="8.215650382226158e-15" stroke="#3d8dba" fill="#3d8dba"></circle><circle r="2" cx="-40" cy="4.884981308350689e-15" stroke="blue" fill="blue"></circle><polygon points="-390,15.298717117192794 -390,-15.298717117192762 -455.8710224588267,-42.583387987021545 -474.59929261573205,-32.58352100019577 -438.0227100836748,35.190374935762065" fill="#d6f0ff" stroke="#3d8dba"></polygon><circle r="2" cx="-429.6986050316467" cy="-7.995306810291044" stroke="#3d8dba" fill="#3d8dba"></circle><circle r="2" cx="-430" cy="1.1102230246251565e-14" stroke="blue" fill="blue"></circle><polygon points="-70,-13.58006256812815 -110.3280469173561,-24.385930171958126 -118.19824235208534,26.494742682969004 -70,13.580062568128184" fill="#d6f0ff" stroke="#3d8dba"></polygon><circle r="2" cx="-92.13157231736037" cy="0.5272031277527276" stroke="#3d8dba" fill="#3d8dba"></circle><circle r="2" cx="-90" cy="1.1102230246251565e-14" stroke="blue" fill="blue"></circle><polygon points="290,15.298717117192808 290,-15.298717117192776 209.0867215413157,-48.814094430850595 189.44491465901524,-38.72868991045735 208.3879439044604,49.103537605119115" fill="#d6f0ff" stroke="#3d8dba"></polygon><circle r="2" cx="237.38391602095825" cy="-7.6878493472377585" stroke="#3d8dba" fill="#3d8dba"></circle><circle r="2" cx="250" cy="1.1102230246251565e-14" stroke="blue" fill="blue"></circle><polygon points="195.71613070270226,69.93746802955181 199.60546715061676,55.9080114062918 178.8583428667033,-33.369506246104514 139.45410202655924,-23.912083225646533 111.96009523434165,29.0279408512022 132.05662750954934,93.04630911864298" fill="#d6f0ff" stroke="#3d8dba"></polygon><circle r="2" cx="159.60846091507878" cy="31.773023322322956" stroke="#3d8dba" fill="#3d8dba"></circle><circle r="2" cx="139.46214403013278" cy="25.68779572045605" stroke="blue" fill="blue"></circle><polygon points="-445.8788515685202,41.68901681083327 -484.3557860350198,-29.606100773803966 -495,-29.525983555001233 -495,49.346571851042086 -452.6779073207655,56.108258772511135" fill="#d6f0ff" stroke="#3d8dba"></polygon><circle r="2" cx="-474.58250898486114" cy="17.60235262111626" stroke="#3d8dba" fill="#3d8dba"></circle><circle r="2" cx="-480.6421869389345" cy="27.33084920964461" stroke="blue" fill="blue"></circle><polygon points="45.01810730675796,45.01810730675796 51.20993855567163,26.623812079514025 21.173165676349104,14.182173382978274 14.182173382978275,21.173165676349097 26.623812079514032,51.20993855567163" fill="#d6f0ff" stroke="#3d8dba"></polygon><circle r="2" cx="31.6414394002542" cy="31.641439400254193" stroke="#3d8dba" fill="#3d8dba"></circle><circle r="2" cx="28.284271247461902" cy="28.2842712474619" stroke="blue" fill="blue"></circle><polygon points="-26.623812079514018,51.209938555671634 -14.182173382978274,21.173165676349107 -21.1731656763491,14.182173382978277 -51.20993855567164,26.62381207951404 -45.01810730675795,45.01810730675796" fill="#d6f0ff" stroke="#3d8dba"></polygon><circle r="2" cx="-31.641439400254193" cy="31.641439400254207" stroke="#3d8dba" fill="#3d8dba"></circle><circle r="2" cx="-28.2842712474619" cy="28.284271247461902" stroke="blue" fill="blue"></circle><polygon points="15.092396205742105,60.00000000000001 18.00835330109562,56.5416404242751 4.94337805786541,25 -4.943378057865407,25.000000000000004 -18.00835330109561,56.541640424275094 -15.092396205742078,60" fill="#d6f0ff" stroke="#3d8dba"></polygon><circle r="2" cx="6.8833827526759706e-15" cy="47.1805468080917" stroke="#3d8dba" fill="#3d8dba"></circle><circle r="2" cx="2.4424906541753444e-15" cy="40" stroke="blue" fill="blue"></circle><polygon points="122.00436502694153,99.36951554880677 123.183146610948,98.16760207924774 102.62360340126041,32.674292557789954 66.22735699426735,22.921947725512013 61.73132996675843,26.712826500463528 54.69297825324589,47.621910441380415 108.92896236072198,101.85789454885648" fill="#d6f0ff" stroke="#3d8dba"></polygon><circle r="2" cx="91.34167751630623" cy="61.332284200293834" stroke="#3d8dba" fill="#3d8dba"></circle><circle r="2" cx="77.94228634059948" cy="44.99999999999999" stroke="blue" fill="blue"></circle><polygon points="-54.69297825324586,47.621910441380415 -61.731329966758416,26.71282650046355 -66.22735699426737,22.921947725512034 -121.39904649072284,37.705157371147955 -129.50312012445045,48.09904240808002 -80.43582773649261,73.36475992462717" fill="#d6f0ff" stroke="#3d8dba"></polygon><circle r="2" cx="-85.66494326098957" cy="42.737607395201856" stroke="#3d8dba" fill="#3d8dba"></circle><circle r="2" cx="-77.94228634059947" cy="45.00000000000003" stroke="blue" fill="blue"></circle><polygon points="-280.601476829365,97.37041386778287 -233.22129717892017,84.70613867803272 -216.08566600568963,56.73895871433478 -293.82683432365087,24.53751244230565 -315.4624875576944,46.17316567634913 -294.63141233684814,96.46382999333007" fill="#d6f0ff" stroke="#3d8dba"></polygon><circle r="2" cx="-272.304862372028" cy="67.6650032286892" stroke="#3d8dba" fill="#3d8dba"></circle><circle r="2" cx="-276.3603896932107" cy="63.63961030678927" stroke="blue" fill="blue"></circle><polygon points="401.2501357194806,131.9250483039221 436.7960601138723,45.506201884909224 386.1731656763491,24.53751244230565 364.5375124423056,46.17316567634912 400.0272034261982,131.85285897409253" fill="#d6f0ff" stroke="#3d8dba"></polygon><circle r="2" cx="397.75681547564113" cy="75.99895745631572" stroke="#3d8dba" fill="#3d8dba"></circle><circle r="2" cx="403.6396103067893" cy="63.63961030678927" stroke="blue" fill="blue"></circle><polygon points="-394.83955298982215,119.32876293374309 -364.5375124423056,46.173165676349086 -386.1731656763491,24.53751244230566 -436.580770516634,45.41702601389537 -444.4813863058877,62.17242483142702 -436.9707054432053,93.02231662934814" fill="#d6f0ff" stroke="#3d8dba"></polygon><circle r="2" cx="-410.597182229034" cy="65.1085347545114" stroke="#3d8dba" fill="#3d8dba"></circle><circle r="2" cx="-403.6396103067893" cy="63.63961030678928" stroke="blue" fill="blue"></circle><polygon points="295.821082008136,93.59171333816323 315.46248755769443,46.173165676349086 293.8268343236509,24.537512442305662 208.93064920118363,59.70266371376857 205.4115795349689,72.39650902583024 230.66113894653012,99.49331859628995" fill="#d6f0ff" stroke="#3d8dba"></polygon><circle r="2" cx="258.3522952620273" cy="65.98248046545112" stroke="#3d8dba" fill="#3d8dba"></circle><circle r="2" cx="276.3603896932107" cy="63.63961030678928" stroke="blue" fill="blue"></circle><polygon points="-36.894639627015835,118.37415308918584 -22.921947725512013,66.22735699426737 -26.712826500463535,61.73132996675844 -47.62191044138039,54.6929782532459 -73.67919874437918,80.75026655624471 -60.76343965615185,115.64810766630771" fill="#d6f0ff" stroke="#3d8dba"></polygon><circle r="2" cx="-44.76566044915046" cy="82.90403208766833" stroke="#3d8dba" fill="#3d8dba"></circle><circle r="2" cx="-44.99999999999998" cy="77.94228634059948" stroke="blue" fill="blue"></circle><polygon points="99.16744540704747,106.23851321891296 47.621910441380415,54.69297825324589 26.712826500463546,61.73132996675843 22.92194772551203,66.22735699426737 42.59296788373658,139.64060366147297" fill="#d6f0ff" stroke="#3d8dba"></polygon><circle r="2" cx="47.80341959162801" cy="85.70615641893153" stroke="#3d8dba" fill="#3d8dba"></circle><circle r="2" cx="45.00000000000001" cy="77.94228634059948" stroke="blue" fill="blue"></circle><polygon points="-453.82917179891194,66.05114809744659 -495,59.47339560530823 -495,122.47459177495554 -447.07663317084103,93.78699386774278" fill="#d6f0ff" stroke="#3d8dba"></polygon><circle r="2" cx="-472.7264512424382" cy="85.44653233636328" stroke="#3d8dba" fill="#3d8dba"></circle><circle r="2" cx="-489.7942787478199" cy="84.61473150751897" stroke="blue" fill="blue"></circle><polygon points="469.89139298455564,39.69446366697407 447.0503331349427,46.864298665595804 410.9128892185965,134.72124060730414 447.81029493954617,153.053928551251" fill="#d6f0ff" stroke="#3d8dba"></polygon><circle r="2" cx="443.91622756941024" cy="93.58348287278125" stroke="#3d8dba" fill="#3d8dba"></circle><circle r="2" cx="456.8462886281419" cy="85.52465787751703" stroke="blue" fill="blue"></circle><polygon points="495,179.1494521429228 495,28.682454286314382 480.842193248694,35.77814008011675 457.0119999813603,158.11707229116115 488.1751844870255,178.61391747462486" fill="#d6f0ff" stroke="#3d8dba"></polygon><circle r="2" cx="483.205875543416" cy="116.06820725502799" stroke="#3d8dba" fill="#3d8dba"></circle><circle r="2" cx="474.5965816487085" cy="88.98220737208192" stroke="blue" fill="blue"></circle><polygon points="-370.4058021343889,143.16801619572007 -320.11287926770035,118.84111338089389 -303.86820060872947,100.29550977211304 -324.7012828828072,50 -355.2987171171928,50 -387.0086223443747,126.55448326102821 -381.51774771428126,138.0750411382694" fill="#d6f0ff" stroke="#3d8dba"></polygon><circle r="2" cx="-348.98760743849635" cy="103.84773767828923" stroke="#3d8dba" fill="#3d8dba"></circle><circle r="2" cx="-340" cy="90" stroke="blue" fill="blue"></circle><polygon points="33.32798461042638,146.84185072786764 33.96537257807613,146.07901268516815 13.58006256812818,70 -13.580062568128158,70 -27.460666841872417,121.80312038937127 -7.623966849349579,136.19382938245752" fill="#d6f0ff" stroke="#3d8dba"></polygon><circle r="2" cx="5.368120582880091" cy="115.1529688641441" stroke="#3d8dba" fill="#3d8dba"></circle><circle r="2" cx="5.551115123125783e-15" cy="90" stroke="blue" fill="blue"></circle><polygon points="361.6086275356525,147.20005455347422 390.1430905818031,134.12175899065525 355.2987171171928,50 324.7012828828072,50 305.04556532525237,97.45309990562376 344.44475449283925,145.7697317999065" fill="#d6f0ff" stroke="#3d8dba"></polygon><circle r="2" cx="346.87367298925784" cy="104.09077420827661" stroke="#3d8dba" fill="#3d8dba"></circle><circle r="2" cx="340" cy="90" stroke="blue" fill="blue"></circle><polygon points="-74.4805613055229,121.88872771840181 -70.33334110157949,118.60135788039479 -83.49578617216308,83.03698155877032 -137.4916646051845,55.23343778953323 -152.4692013448269,60.742389858955804 -141.8355364918802,107.71634742089309" fill="#d6f0ff" stroke="#3d8dba"></polygon><circle r="2" cx="-110.0176818368595" cy="91.20320703782484" stroke="#3d8dba" fill="#3d8dba"></circle><circle r="2" cx="-106.65461202307011" cy="100.76077855209837" stroke="blue" fill="blue"></circle><polygon points="-184.8232114930093,160.59363144700265 -165.00907993776275,163.5623622370696 -151.15328367596277,111.84791025899084 -162.5530110246983,61.48989013117332 -193.60357131955152,51.90790212335687 -205.20831221637286,58.126939451256504 -224.69120169176512,89.92509562436273 -220.9973751510319,107.05440126565135" fill="#d6f0ff" stroke="#3d8dba"></polygon><circle r="2" cx="-188.50488081376935" cy="100.56351656735798" stroke="#3d8dba" fill="#3d8dba"></circle><circle r="2" cx="-186.33535846284013" cy="118.79839762551671" stroke="blue" fill="blue"></circle><polygon points="-230.97402635661436,108.22864292327233 -233.78204409830153,95.20708015818008 -273.8267626083427,105.91065576402903 -258.61545371099794,156.34849450900276" fill="#d6f0ff" stroke="#3d8dba"></polygon><circle r="2" cx="-249.2995716935641" cy="116.42371833862106" stroke="#3d8dba" fill="#3d8dba"></circle><circle r="2" cx="-257.5142487784648" cy="134.1476756227546" stroke="blue" fill="blue"></circle><polygon points="296.6074844156298,173.63901523856808 334.49262839555865,149.38879829943926 297.08779617153147,103.51791750673141 234.30331436766232,109.20437471545176 240.93072506063248,160.03154582991348" fill="#d6f0ff" stroke="#3d8dba"></polygon><circle r="2" cx="280.68438968220295" cy="139.15633031802082" stroke="#3d8dba" fill="#3d8dba"></circle><circle r="2" cx="282.96053008710976" cy="136.5121176085696" stroke="blue" fill="blue"></circle><polygon points="-104.41126506840824,180.88398813292326 -80.47061302254731,130.84731266508584 -142.39975857478663,117.81659890062018 -155.83037391165368,167.94413388677842 -143.5220591160172,182.5694874066915" fill="#d6f0ff" stroke="#3d8dba"></polygon><circle r="2" cx="-125.3268139386826" cy="156.01230419841986" stroke="#3d8dba" fill="#3d8dba"></circle><circle r="2" cx="-114.49975557962892" cy="138.04523172742813" stroke="blue" fill="blue"></circle><polygon points="-266.4338104803086,167.74838691524891 -283.9325158780984,107.17602494648447 -295.92259461718766,106.40125217347497 -310.4521230653407,122.9887686691088 -271.68434800576404,169.74326755697314" fill="#d6f0ff" stroke="#3d8dba"></polygon><circle r="2" cx="-285.6850784093399" cy="134.81154005225807" stroke="#3d8dba" fill="#3d8dba"></circle><circle r="2" cx="-281.3815888439728" cy="141.3457136697475" stroke="blue" fill="blue"></circle><polygon points="-391.3711191741994,140.6439131168734 -396.36538166777996,130.16531107484303 -441.4018780398286,102.04478494254067 -495,134.12937066992728 -495,202.93623022968205 -462.3020461369671,204.42902953657276" fill="#d6f0ff" stroke="#3d8dba"></polygon><circle r="2" cx="-446.90673750312914" cy="152.39143992840656" stroke="#3d8dba" fill="#3d8dba"></circle><circle r="2" cx="-454.0353221711785" cy="144.35098405097403" stroke="blue" fill="blue"></circle><polygon points="-195.03183461250296,163.34648205542848 -225.2888185275884,118.56491801603597 -253.66064926318904,169.08315385643212 -232.25566543536857,182.52051399305523" fill="#d6f0ff" stroke="#3d8dba"></polygon><circle r="2" cx="-226.55924195966224" cy="158.37876698023797" stroke="#3d8dba" fill="#3d8dba"></circle><circle r="2" cx="-231.3214507259711" cy="149.1935724972733" stroke="blue" fill="blue"></circle><polygon points="179.92832755330406,177.6811532616677 229.55574396216295,164.87896685669958 231.19401989089587,162.70002349325966 223.9220805320418,106.92981047197829 198.44257830560187,79.58623553958465 131.6252725219398,103.84138086597697 130.17197391489523,105.32319835854533 141.8781200351321,141.2179744883151" fill="#d6f0ff" stroke="#3d8dba"></polygon><circle r="2" cx="183.3397645894967" cy="130.26984291700342" stroke="#3d8dba" fill="#3d8dba"></circle><circle r="2" cx="184.35922443968218" cy="149.36885019982435" stroke="blue" fill="blue"></circle><polygon points="-298.1786005420077,189.92578979840098 -280.28585109471624,175.0364814450296 -318.3699709336702,129.10648066682361 -363.4513844345143,150.91255401628925 -358.8542140517987,159.3684842203683" fill="#d6f0ff" stroke="#3d8dba"></polygon><circle r="2" cx="-323.8280042113414" cy="160.86995802938233" stroke="#3d8dba" fill="#3d8dba"></circle><circle r="2" cx="-305.49323763826237" cy="161.33854856280107" stroke="blue" fill="blue"></circle><polygon points="-17.046203438726387,141.71269775040713 -35.05302380615263,128.64949107308252 -62.89927183836559,125.46918301822083 -69.18449813876079,130.4512824363615 -93.49571125024053,182.3956536590988 -59.74330641754711,193.29023934317027" fill="#d6f0ff" stroke="#3d8dba"></polygon><circle r="2" cx="-56.237002481632175" cy="150.32809121339017" stroke="#3d8dba" fill="#3d8dba"></circle><circle r="2" cx="-55.04249025952129" cy="165.87265968925146" stroke="blue" fill="blue"></circle><polygon points="109.90400429422058,208.29284073982475 132.23808447855046,143.9111660477359 121.08859430887183,109.72327453407816 109.0556844323814,112.0132568015846 42.751217204482536,151.16002241120933 40.334697997402074,154.05215856004847 43.2772728959321,181.16795679213885" fill="#d6f0ff" stroke="#3d8dba"></polygon><circle r="2" cx="85.52136508740584" cy="151.47438226951712" stroke="#3d8dba" fill="#3d8dba"></circle><circle r="2" cx="102.86276266045468" cy="175.94679810012383" stroke="blue" fill="blue"></circle><polygon points="-1.3946290071980547,230.73093114594514 20.971662498533465,212.4637139676461 33.51357122702391,183.8864496286488 30.53602722207017,156.44841143093672 -7.97385452022907,146.4353588611712 -51.65244701746284,199.19852694676504 -31.314649969006418,225.53968796562145" fill="#d6f0ff" stroke="#3d8dba"></polygon><circle r="2" cx="-1.0449027951812622" cy="193.52901142096206" stroke="#3d8dba" fill="#3d8dba"></circle><circle r="2" cx="-25.982785626776263" cy="189.9289672006688" stroke="blue" fill="blue"></circle><polygon points="156.75087154911245,229.70324128272262 172.6904457181861,184.5955050572356 139.6822459356963,152.96403789425995 118.44845012071305,214.17396117543697 126.62094414171749,226.16773559105243" fill="#d6f0ff" stroke="#3d8dba"></polygon><circle r="2" cx="142.83859149308506" cy="201.52089620014152" stroke="#3d8dba" fill="#3d8dba"></circle><circle r="2" cx="144.9114623584112" cy="190.53354246787114" stroke="blue" fill="blue"></circle><polygon points="-367.5,237.5 -367.5,164.40197498372905 -373.9457166266158,152.5458710388194 -384.34886840542464,147.77775980686536 -453.2191264453803,209.70980574275424 -425.4289321881346,237.5" fill="#d6f0ff" stroke="#3d8dba"></polygon><circle r="2" cx="-395.32377394425924" cy="191.57256859536133" stroke="#3d8dba" fill="#3d8dba"></circle><circle r="2" cx="-395" cy="210" stroke="blue" fill="blue"></circle><polygon points="-302.5,237.5 -302.5,198.94602201136996 -357.5,171.24705516828075 -357.5,237.5" fill="#d6f0ff" stroke="#3d8dba"></polygon><circle r="2" cx="-330" cy="211.29826929491267" stroke="#3d8dba" fill="#3d8dba"></circle><circle r="2" cx="-330" cy="210" stroke="blue" fill="blue"></circle><polygon points="-237.5,237.5 -237.5,191.21708258915052 -261.37461951379373,177.99376751019875 -270.9522925068075,180.27909460978924 -292.5,198.20984707013628 -292.5,237.5" fill="#d6f0ff" stroke="#3d8dba"></polygon><circle r="2" cx="-265.3878186701002" cy="203.78329862987914" stroke="#3d8dba" fill="#3d8dba"></circle><circle r="2" cx="-265" cy="210" stroke="blue" fill="blue"></circle><polygon points="-169.5710678118655,237.5 -163.08843672165835,231.01736890979294 -151.2912651455778,188.86814387764485 -163.94397166167766,173.83356693886907 -186.88140931713403,170.3968744336675 -227.5,191.31955052041383 -227.5,237.5" fill="#d6f0ff" stroke="#3d8dba"></polygon><circle r="2" cx="-184.25373580827335" cy="204.3479292400555" stroke="#3d8dba" fill="#3d8dba"></circle><circle r="2" cx="-200" cy="210" stroke="blue" fill="blue"></circle><polygon points="227.5,237.5 227.5,175.736652543202 182.30722966470614,187.39485101202393 165.8992384107907,233.82817059892525 169.57106781186548,237.5" fill="#d6f0ff" stroke="#3d8dba"></polygon><circle r="2" cx="194.55550717747246" cy="214.39193483083022" stroke="#3d8dba" fill="#3d8dba"></circle><circle r="2" cx="200" cy="210" stroke="blue" fill="blue"></circle><polygon points="292.5,237.5 292.5,182.92946931324727 238.43095582828278,169.71492750001582 237.5,170.9531194236812 237.5,237.5" fill="#d6f0ff" stroke="#3d8dba"></polygon><circle r="2" cx="259.68619116565657" cy="199.71950324738887" stroke="#3d8dba" fill="#3d8dba"></circle><circle r="2" cx="265" cy="210" stroke="blue" fill="blue"></circle><polygon points="357.5,237.5 357.5,156.89233107449678 343.1830635731935,155.69925303892958 302.5,181.7404136036351 302.5,237.5" fill="#d6f0ff" stroke="#3d8dba"></polygon><circle r="2" cx="332.6366127146387" cy="193.8663995434123" stroke="#3d8dba" fill="#3d8dba"></circle><circle r="2" cx="330" cy="210" stroke="blue" fill="blue"></circle><polygon points="425.4289321881345,237.5 478.6263747289955,184.3025574591391 448.96793483908203,164.79542234282567 403.20501233410397,142.0578514677426 397.5561917625652,141.72440326817596 367.5,155.50015782601835 367.5,237.5" fill="#d6f0ff" stroke="#3d8dba"></polygon><circle r="2" cx="412.6834922646973" cy="180.4829131948431" stroke="#3d8dba" fill="#3d8dba"></circle><circle r="2" cx="395" cy="210" stroke="blue" fill="blue"></circle><polygon points="-41.01619146238172,229.33748217706645 -61.04320736097244,203.3988394983593 -94.75044715883145,192.97677212004194 -81.67551897516324,262.5237932289283" fill="#d6f0ff" stroke="#3d8dba"></polygon><circle r="2" cx="-69.62134123933721" cy="222.059221756099" stroke="#3d8dba" fill="#3d8dba"></circle><circle r="2" cx="-75.03093047417491" cy="227.7986425272651" stroke="blue" fill="blue"></circle><polygon points="-106.12052118046198,191.2415249529657 -141.93344110014016,192.5355947622263 -152.74926645659994,231.1786418619359 -92.97538939289196,264.5024207810227" fill="#d6f0ff" stroke="#3d8dba"></polygon><circle r="2" cx="-123.4446545325235" cy="219.86454558953767" stroke="#3d8dba" fill="#3d8dba"></circle><circle r="2" cx="-110.99961507390242" cy="234.91037048746614" stroke="blue" fill="blue"></circle><polygon points="117.70495045776372,230.8417189554502 109.61788805483923,218.97332212378626 41.25086485836128,191.13993556655748 30.947739316430866,214.61603864652778 86.48283680903937,275.82421415530416" fill="#d6f0ff" stroke="#3d8dba"></polygon><circle r="2" cx="77.20085589928689" cy="226.2790458895252" stroke="#3d8dba" fill="#3d8dba"></circle><circle r="2" cx="78.50168123340734" cy="235.7848137001938" stroke="blue" fill="blue"></circle><polygon points="39.999999999999964,311.1324865405187 81.85910298773938,286.9651221625111 81.91728618601883,285.6742856050687 24.55304394440866,222.45011268415573 4.999999999999932,238.41966669528045 4.999999999999956,290.9252271188818" fill="#d6f0ff" stroke="#3d8dba"></polygon><circle r="2" cx="39.72157218636112" cy="272.5944834677361" stroke="#3d8dba" fill="#3d8dba"></circle><circle r="2" cx="39.99999999999994" cy="270.7179676972449" stroke="blue" fill="blue"></circle><polygon points="-40,311.13248654051876 -5.000000000000044,290.9252271188818 -5.000000000000069,240.25478700597435 -32.6449807792176,235.4582723871016 -81.26805052211238,276.40229280702727 -81.63163286622955,287.0964520983975" fill="#d6f0ff" stroke="#3d8dba"></polygon><circle r="2" cx="-40.924110694593274" cy="273.54491965965025" stroke="#3d8dba" fill="#3d8dba"></circle><circle r="2" cx="-40.000000000000036" cy="270.71796769724494" stroke="blue" fill="blue"></circle><polygon points="-432.5,305.4289321881346 -432.5,244.5710678118655 -462.6473884980981,214.42367931376745 -495,212.94664634013097 -495,335 -462.07106781186536,335" fill="#d6f0ff" stroke="#3d8dba"></polygon><circle r="2" cx="-463.2864093849939" cy="274.5617209423164" stroke="#3d8dba" fill="#3d8dba"></circle><circle r="2" cx="-460" cy="275" stroke="blue" fill="blue"></circle><polygon points="-367.5,302.5 -367.5,247.5 -422.5,247.5 -422.5,302.5" fill="#d6f0ff" stroke="#3d8dba"></polygon><circle r="2" cx="-395" cy="275" stroke="#3d8dba" fill="#3d8dba"></circle><circle r="2" cx="-395" cy="275" stroke="blue" fill="blue"></circle><polygon points="-302.5,302.5 -302.5,247.5 -357.5,247.5 -357.5,302.5" fill="#d6f0ff" stroke="#3d8dba"></polygon><circle r="2" cx="-330" cy="275" stroke="#3d8dba" fill="#3d8dba"></circle><circle r="2" cx="-330" cy="275" stroke="blue" fill="blue"></circle><polygon points="-237.5,302.5 -237.5,247.5 -292.5,247.5 -292.5,302.5" fill="#d6f0ff" stroke="#3d8dba"></polygon><circle r="2" cx="-265" cy="275" stroke="#3d8dba" fill="#3d8dba"></circle><circle r="2" cx="-265" cy="275" stroke="blue" fill="blue"></circle><polygon points="-172.5,302.5 -172.5,247.5 -227.5,247.5 -227.5,302.5" fill="#d6f0ff" stroke="#3d8dba"></polygon><circle r="2" cx="-200" cy="275" stroke="#3d8dba" fill="#3d8dba"></circle><circle r="2" cx="-200" cy="275" stroke="blue" fill="blue"></circle><polygon points="-139.7176270948076,328.211305093327 -91.83629751561533,287.69633391093356 -92.21879606600392,279.2103254650053 -157.8487147070729,239.9197825189384 -162.5,244.57106781186548 -162.5,305.4289321881346" fill="#d6f0ff" stroke="#3d8dba"></polygon><circle r="2" cx="-134.43690589724994" cy="280.839624498034" stroke="#3d8dba" fill="#3d8dba"></circle><circle r="2" cx="-135" cy="275" stroke="blue" fill="blue"></circle><polygon points="162.5,305.4289321881346 162.5,244.57106781186548 157.82706669933665,239.8981345112021 126.1700770804447,236.18344029818965 91.9349883728803,285.50680548674444 91.83629751561526,287.6963339109335 139.71762709480757,328.2113050933269" fill="#d6f0ff" stroke="#3d8dba"></polygon><circle r="2" cx="133.21229382329778" cy="275.3565741857709" stroke="#3d8dba" fill="#3d8dba"></circle><circle r="2" cx="135" cy="275" stroke="blue" fill="blue"></circle><polygon points="227.5,302.5 227.5,247.5 172.5,247.5 172.5,302.5" fill="#d6f0ff" stroke="#3d8dba"></polygon><circle r="2" cx="200" cy="275" stroke="#3d8dba" fill="#3d8dba"></circle><circle r="2" cx="200" cy="275" stroke="blue" fill="blue"></circle><polygon points="292.5,302.5 292.5,247.5 237.5,247.5 237.5,302.5" fill="#d6f0ff" stroke="#3d8dba"></polygon><circle r="2" cx="265" cy="275" stroke="#3d8dba" fill="#3d8dba"></circle><circle r="2" cx="265" cy="275" stroke="blue" fill="blue"></circle><polygon points="357.5,302.5 357.5,247.5 302.5,247.5 302.5,302.5" fill="#d6f0ff" stroke="#3d8dba"></polygon><circle r="2" cx="330" cy="275" stroke="#3d8dba" fill="#3d8dba"></circle><circle r="2" cx="330" cy="275" stroke="blue" fill="blue"></circle><polygon points="422.5,302.5 422.5,247.5 367.5,247.5 367.5,302.5" fill="#d6f0ff" stroke="#3d8dba"></polygon><circle r="2" cx="395" cy="275" stroke="#3d8dba" fill="#3d8dba"></circle><circle r="2" cx="395" cy="275" stroke="blue" fill="blue"></circle><polygon points="462.0710678118654,335 495,335 495,189.18019161230015 488.40813178694776,188.66293602491766 432.5,244.57106781186542 432.5,305.4289321881346" fill="#d6f0ff" stroke="#3d8dba"></polygon><circle r="2" cx="467.5798665998022" cy="266.30718793953633" stroke="#3d8dba" fill="#3d8dba"></circle><circle r="2" cx="460" cy="275" stroke="blue" fill="blue"></circle><polygon points="-367.5,367.5 -367.5,312.5 -425.42893218813464,312.5 -452.9289321881346,340 -425.4289321881346,367.5" fill="#d6f0ff" stroke="#3d8dba"></polygon><circle r="2" cx="-407.7573593128808" cy="340" stroke="#3d8dba" fill="#3d8dba"></circle><circle r="2" cx="-395" cy="340" stroke="blue" fill="blue"></circle><polygon points="-302.5,367.5 -302.5,312.5 -357.5,312.5 -357.5,367.5" fill="#d6f0ff" stroke="#3d8dba"></polygon><circle r="2" cx="-330" cy="340" stroke="#3d8dba" fill="#3d8dba"></circle><circle r="2" cx="-330" cy="340" stroke="blue" fill="blue"></circle><polygon points="-237.5,367.5 -237.5,312.5 -292.5,312.5 -292.5,367.5" fill="#d6f0ff" stroke="#3d8dba"></polygon><circle r="2" cx="-265" cy="340" stroke="#3d8dba" fill="#3d8dba"></circle><circle r="2" cx="-265" cy="340" stroke="blue" fill="blue"></circle><polygon points="-169.57106781186548,367.5 -145,342.9289321881346 -145,337.0710678118654 -169.57106781186542,312.5 -227.5,312.5 -227.5,367.5" fill="#d6f0ff" stroke="#3d8dba"></polygon><circle r="2" cx="-180.69035593728847" cy="340" stroke="#3d8dba" fill="#3d8dba"></circle><circle r="2" cx="-200" cy="340" stroke="blue" fill="blue"></circle><polygon points="-86.18540392272602,383.9856634631063 -45.00000000000001,360.2072594216369 -45.00000000000002,319.7927405783631 -86.18540392272611,296.0143365368938 -135,337.31899475612556 -135,342.68100524387444" fill="#d6f0ff" stroke="#3d8dba"></polygon><circle r="2" cx="-88.72846797424204" cy="340.00000000000006" stroke="#3d8dba" fill="#3d8dba"></circle><circle r="2" cx="-80" cy="340" stroke="blue" fill="blue"></circle><polygon points="0,380.41451884327375 35,360.20725942163676 34.99999999999999,319.7927405783631 -4.922784477141926e-14,299.58548115672625 -35.00000000000001,319.79274057836307 -35,360.2072594216369" fill="#d6f0ff" stroke="#3d8dba"></polygon><circle r="2" cx="-8.43769498715119e-15" cy="339.99999999999994" stroke="#3d8dba" fill="#3d8dba"></circle><circle r="2" cx="0" cy="340" stroke="blue" fill="blue"></circle><polygon points="86.18540392272607,383.98566346310616 135,342.68100524387444 135,337.31899475612556 86.18540392272604,296.0143365368938 45,319.7927405783631 45.000000000000014,360.2072594216369" fill="#d6f0ff" stroke="#3d8dba"></polygon><circle r="2" cx="88.72846797424204" cy="340" stroke="#3d8dba" fill="#3d8dba"></circle><circle r="2" cx="80" cy="340" stroke="blue" fill="blue"></circle><polygon points="169.57106781186545,367.5 227.5,367.5 227.5,312.5 169.57106781186545,312.5 145,337.0710678118654 145,342.9289321881346" fill="#d6f0ff" stroke="#3d8dba"></polygon><circle r="2" cx="180.69035593728847" cy="340" stroke="#3d8dba" fill="#3d8dba"></circle><circle r="2" cx="200" cy="340" stroke="blue" fill="blue"></circle><polygon points="292.5,367.5 292.5,312.5 237.5,312.5 237.5,367.5" fill="#d6f0ff" stroke="#3d8dba"></polygon><circle r="2" cx="265" cy="340" stroke="#3d8dba" fill="#3d8dba"></circle><circle r="2" cx="265" cy="340" stroke="blue" fill="blue"></circle><polygon points="357.5,367.5 357.5,312.5 302.5,312.5 302.5,367.5" fill="#d6f0ff" stroke="#3d8dba"></polygon><circle r="2" cx="330" cy="340" stroke="#3d8dba" fill="#3d8dba"></circle><circle r="2" cx="330" cy="340" stroke="blue" fill="blue"></circle><polygon points="425.4289321881346,367.5 452.9289321881346,340 425.4289321881346,312.5 367.5,312.5 367.5,367.5" fill="#d6f0ff" stroke="#3d8dba"></polygon><circle r="2" cx="407.75735931288074" cy="340" stroke="#3d8dba" fill="#3d8dba"></circle><circle r="2" cx="395" cy="340" stroke="blue" fill="blue"></circle><polygon points="-432.5,435.42893218813447 -432.5,374.5710678118654 -462.0710678118654,345 -495,345 -495,448.4810518391731 -441.5165844151927,444.44551660332723" fill="#d6f0ff" stroke="#3d8dba"></polygon><circle r="2" cx="-459.7646087045097" cy="398.82109474041675" stroke="#3d8dba" fill="#3d8dba"></circle><circle r="2" cx="-460" cy="405" stroke="blue" fill="blue"></circle><polygon points="-367.5,432.5 -367.5,377.5 -422.5,377.5 -422.5,432.5" fill="#d6f0ff" stroke="#3d8dba"></polygon><circle r="2" cx="-395" cy="405" stroke="#3d8dba" fill="#3d8dba"></circle><circle r="2" cx="-395" cy="405" stroke="blue" fill="blue"></circle><polygon points="-302.5,432.5 -302.5,377.5 -357.5,377.5 -357.5,432.5" fill="#d6f0ff" stroke="#3d8dba"></polygon><circle r="2" cx="-330" cy="405" stroke="#3d8dba" fill="#3d8dba"></circle><circle r="2" cx="-330" cy="405" stroke="blue" fill="blue"></circle><polygon points="-237.5,432.5 -237.5,377.5 -292.5,377.5 -292.5,432.5" fill="#d6f0ff" stroke="#3d8dba"></polygon><circle r="2" cx="-265" cy="405" stroke="#3d8dba" fill="#3d8dba"></circle><circle r="2" cx="-265" cy="405" stroke="blue" fill="blue"></circle><polygon points="-172.5,432.5 -172.5,377.5 -227.5,377.5 -227.5,432.5" fill="#d6f0ff" stroke="#3d8dba"></polygon><circle r="2" cx="-200" cy="405" stroke="#3d8dba" fill="#3d8dba"></circle><circle r="2" cx="-200" cy="405" stroke="blue" fill="blue"></circle><polygon points="-154.66919948285826,443.25973270527635 -94.84441439496692,459.04092618739327 -91.83629751561531,392.3036660890665 -139.7176270948076,351.788694906673 -162.5,374.5710678118654 -162.5,435.4289321881346" fill="#d6f0ff" stroke="#3d8dba"></polygon><circle r="2" cx="-134.34458974804136" cy="409.39883664806825" stroke="#3d8dba" fill="#3d8dba"></circle><circle r="2" cx="-135" cy="405" stroke="blue" fill="blue"></circle><polygon points="160.55820294953799,434.67031369204614 162.43499011651178,374.50605792837723 139.71762709480757,351.788694906673 91.83629751561531,392.30366608906644 93.79436517993875,435.7448208862985" fill="#d6f0ff" stroke="#3d8dba"></polygon><circle r="2" cx="129.66829657128227" cy="397.8027107004923" stroke="#3d8dba" fill="#3d8dba"></circle><circle r="2" cx="135" cy="405" stroke="blue" fill="blue"></circle><polygon points="227.5,432.5 227.5,377.5 172.5,377.5 172.5,432.5" fill="#d6f0ff" stroke="#3d8dba"></polygon><circle r="2" cx="200" cy="405" stroke="#3d8dba" fill="#3d8dba"></circle><circle r="2" cx="200" cy="405" stroke="blue" fill="blue"></circle><polygon points="292.5,432.5 292.5,377.5 237.5,377.5 237.5,432.5" fill="#d6f0ff" stroke="#3d8dba"></polygon><circle r="2" cx="265" cy="405" stroke="#3d8dba" fill="#3d8dba"></circle><circle r="2" cx="265" cy="405" stroke="blue" fill="blue"></circle><polygon points="357.5,432.5 357.5,377.5 302.5,377.5 302.5,432.5" fill="#d6f0ff" stroke="#3d8dba"></polygon><circle r="2" cx="330" cy="405" stroke="#3d8dba" fill="#3d8dba"></circle><circle r="2" cx="330" cy="405" stroke="blue" fill="blue"></circle><polygon points="422.5,432.5 422.5,377.5 367.5,377.5 367.5,432.5" fill="#d6f0ff" stroke="#3d8dba"></polygon><circle r="2" cx="395" cy="405" stroke="#3d8dba" fill="#3d8dba"></circle><circle r="2" cx="395" cy="405" stroke="blue" fill="blue"></circle><polygon points="492.0710678118654,495 495,495 495,345 462.0710678118654,345 432.5,374.5710678118654 432.5,435.4289321881346" fill="#d6f0ff" stroke="#3d8dba"></polygon><circle r="2" cx="468.1903559372884" cy="415" stroke="#3d8dba" fill="#3d8dba"></circle><circle r="2" cx="460" cy="405" stroke="blue" fill="blue"></circle><polygon points="43.46690644797032,495 83.94441067908954,439.2989451474911 81.85910298773942,393.034877837489 40.000000000000014,368.8675134594813 4.999999999999997,389.0747728811182 5.0000000000000675,495" fill="#d6f0ff" stroke="#3d8dba"></polygon><circle r="2" cx="43.211736685799885" cy="430.0460182209299" stroke="#3d8dba" fill="#3d8dba"></circle><circle r="2" cx="40.00000000000001" cy="409.28203230275506" stroke="blue" fill="blue"></circle><polygon points="-4.9999999999999325,495 -5.000000000000003,389.0747728811182 -40.00000000000001,368.8675134594813 -81.8591029877394,393.0348778374889 -85.05463180072591,463.93000794624476 -62.43263233898668,495" fill="#d6f0ff" stroke="#3d8dba"></polygon><circle r="2" cx="-46.55772785457532" cy="434.1511953540555" stroke="#3d8dba" fill="#3d8dba"></circle><circle r="2" cx="-39.999999999999986" cy="409.2820323027551" stroke="blue" fill="blue"></circle><polygon points="-367.5,495 -367.5,442.5 -425.42893218813447,442.5 -433.3147277437058,450.38579555557146 -413.21080855772254,494.99999999999994" fill="#d6f0ff" stroke="#3d8dba"></polygon><circle r="2" cx="-401.39089369791253" cy="465.07715911111427" stroke="#3d8dba" fill="#3d8dba"></circle><circle r="2" cx="-395" cy="470" stroke="blue" fill="blue"></circle><polygon points="-302.5,495 -302.5,442.5 -357.5,442.5 -357.5,495" fill="#d6f0ff" stroke="#3d8dba"></polygon><circle r="2" cx="-330" cy="468.75" stroke="#3d8dba" fill="#3d8dba"></circle><circle r="2" cx="-330" cy="470" stroke="blue" fill="blue"></circle><polygon points="-237.5,495 -237.5,442.5 -292.5,442.5 -292.5,495" fill="#d6f0ff" stroke="#3d8dba"></polygon><circle r="2" cx="-265" cy="468.75" stroke="#3d8dba" fill="#3d8dba"></circle><circle r="2" cx="-265" cy="470" stroke="blue" fill="blue"></circle><polygon points="-193.01347656230658,495 -163.61207803613672,448.45898977572875 -169.57106781186542,442.5 -227.5,442.5 -227.5,495" fill="#d6f0ff" stroke="#3d8dba"></polygon><circle r="2" cx="-196.23932448206173" cy="464.6917979551457" stroke="#3d8dba" fill="#3d8dba"></circle><circle r="2" cx="-200" cy="470" stroke="blue" fill="blue"></circle><polygon points="190.53810523434151,495 227.5,495 227.5,442.65840407556055 170.5783850395262,444.4340390456146 171.3426403303423,466.41930809029645" fill="#d6f0ff" stroke="#3d8dba"></polygon><circle r="2" cx="197.491826120842" cy="468.7023502422943" stroke="#3d8dba" fill="#3d8dba"></circle><circle r="2" cx="200" cy="470" stroke="blue" fill="blue"></circle><polygon points="292.5,495 292.5,442.5 237.5,442.5 237.5,495" fill="#d6f0ff" stroke="#3d8dba"></polygon><circle r="2" cx="265" cy="468.75" stroke="#3d8dba" fill="#3d8dba"></circle><circle r="2" cx="265" cy="470" stroke="blue" fill="blue"></circle><polygon points="357.5,495 357.5,442.5 302.5,442.5 302.5,495" fill="#d6f0ff" stroke="#3d8dba"></polygon><circle r="2" cx="330" cy="468.75" stroke="#3d8dba" fill="#3d8dba"></circle><circle r="2" cx="330" cy="470" stroke="blue" fill="blue"></circle><polygon points="477.92893218813464,495 425.4289321881346,442.5 367.5,442.5 367.5,495" fill="#d6f0ff" stroke="#3d8dba"></polygon><circle r="2" cx="409.5894660940673" cy="468.75" stroke="#3d8dba" fill="#3d8dba"></circle><circle r="2" cx="395" cy="470" stroke="blue" fill="blue"></circle><polygon points="158.85901907645422,446.6344031161991 91.54389432602832,445.85203069533736 55.82846414704685,495 131.1820973806255,495 161.14110464678612,466.13981301967556" fill="#d6f0ff" stroke="#3d8dba"></polygon><circle r="2" cx="119.7109159153882" cy="469.7252493662424" stroke="#3d8dba" fill="#3d8dba"></circle><circle r="2" cx="134.1549986121605" cy="477.7037051920089" stroke="blue" fill="blue"></circle><polygon points="-154.98074949797646,453.51962448260093 -181.18518824404853,495 -74.80246142333544,495 -93.12364757094177,469.8369232797368" fill="#d6f0ff" stroke="#3d8dba"></polygon><circle r="2" cx="-126.02301168407556" cy="478.3391369405844" stroke="#3d8dba" fill="#3d8dba"></circle><circle r="2" cx="-158.98181746224446" cy="495.9124571168592" stroke="blue" fill="blue"></circle><polygon points="-495,458.50947793369954 -495,495 -424.17919807109445,494.99999999999994 -442.4105336164299,454.54139470070726" fill="#d6f0ff" stroke="#3d8dba"></polygon><circle r="2" cx="-464.1474329218811" cy="475.76271815860173" stroke="#3d8dba" fill="#3d8dba"></circle><circle r="2" cx="-453.11938527811304" cy="496.18958332487136" stroke="blue" fill="blue"></circle><polygon points="145.59597073775893,495 178.49203470243395,495 165.5694146934642,475.7591312328368" fill="#d6f0ff" stroke="#3d8dba"></polygon><circle r="2" cx="163.21914004455235" cy="488.58637707761227" stroke="#3d8dba" fill="#3d8dba"></circle><circle r="2" cx="155.5151209830109" cy="499.8770910314929" stroke="blue" fill="blue"></circle></svg>