<svg class="d-block" xmlns="http://www.w3.org/2000/svg" version="1.1" xmlns:xlink="http://www.w3.org/1999/xlink" xmlns:svgjs="http://svgjs.dev/svgjs" width="1000" height="1000" viewBox="-500 -500 1000 1000" transform="matrix(-1,0,0,1,0,0)"><polygon points="0,-200 -44,-90 -15,-25 -27,-7 -27,7 -15,25 -44,90 0,200 200,200 200,130 150,40 150,-40 200,-130 200,-200" fill="#f6f6f6" stroke="#888888" stroke-width="0.5"></polygon><polygon points="-16.999999999999996,-7.041630560342615 -16.999999999999996,7.041630560342621 -7.0416305603426155,17.000000000000004 7.041630560342618,16.999999999999996 17,7.041630560342618 17,-7.0416305603426235 7.0416305603426155,-17.000000000000004 -7.041630560342622,-16.999999999999996" fill="#eaeaea" stroke-width="0.5"></polygon><polygon points="-13.999999999999996,5.798989873223336 -5.798989873223328,14.000000000000004 5.798989873223334,13.999999999999998 14,5.798989873223334 14,-5.798989873223336 5.798989873223331,-14.000000000000004 -5.798989873223335,-13.999999999999996 -13.999999999999996,-5.798989873223331" fill="#d6f0ff" stroke="#3d8dba" stroke-width="0.5"></polygon><circle r="0.5" cx="1.3322676295501878e-15" cy="1.3322676295501878e-15" fill="#d6f0ff" stroke="#3d8dba"></circle><polygon points="-20.362996454389247,-56.99999999999999 -6.279735333704014,-22.999999999999996 6.279735333704,-23.000000000000004 20.362996454389226,-57.00000000000001" fill="#eaeaea" stroke-width="0.5"></polygon><polygon points="-4.275199419946121,-26 4.275199419946102,-26 15.87317916639276,-54 -15.873179166392777,-54" fill="#d6f0ff" stroke="#3d8dba" stroke-width="0.5"></polygon><circle r="0.5" cx="-9.325873406851315e-15" cy="-40" fill="#d6f0ff" stroke="#3d8dba"></circle><polygon points="11.82301252877172,-20.703899405809466 20.703899405809462,-11.823012528771732 54.703899405809466,-25.90627364945697 25.906273649456942,-54.703899405809466" fill="#eaeaea" stroke-width="0.5"></polygon><polygon points="21.407798811618925,-15.36175381008156 49.407798811618925,-26.95973355652822 26.959733556528196,-49.407798811618925 15.361753810081543,-21.407798811618928" fill="#d6f0ff" stroke="#3d8dba" stroke-width="0.5"></polygon><circle r="0.5" cx="28.284271247461895" cy="-28.28427124746191" fill="#d6f0ff" stroke="#3d8dba"></circle><polygon points="23,-6.279735333704011 23,6.279735333704005 57,20.362996454389233 57,-20.362996454389247" fill="#eaeaea" stroke-width="0.5"></polygon><polygon points="26,4.275199419946109 54,15.873179166392765 54,-15.87317916639278 26,-4.275199419946114" fill="#d6f0ff" stroke="#3d8dba" stroke-width="0.5"></polygon><circle r="0.5" cx="40" cy="-5.773159728050814e-15" fill="#d6f0ff" stroke="#3d8dba"></circle><polygon points="11.823012528771727,20.703899405809455 25.90627364945696,54.70389940580945 54.703899405809466,25.90627364945695 20.70389940580946,11.823012528771725" fill="#eaeaea" stroke-width="0.5"></polygon><polygon points="26.95973355652821,49.40779881161891 49.40779881161892,26.959733556528203 21.40779881161892,15.36175381008155 15.361753810081552,21.407798811618914" fill="#d6f0ff" stroke="#3d8dba" stroke-width="0.5"></polygon><circle r="0.5" cx="28.2842712474619" cy="28.284271247461895" fill="#d6f0ff" stroke="#3d8dba"></circle><polygon points="-20.36299645438923,57.00000000000001 20.362996454389243,56.99999999999999 6.279735333704012,22.999999999999996 -6.279735333704004,23.000000000000004" fill="#eaeaea" stroke-width="0.5"></polygon><polygon points="15.873179166392777,54 4.2751994199461185,26 -4.275199419946104,26 -15.873179166392761,54" fill="#d6f0ff" stroke="#3d8dba" stroke-width="0.5"></polygon><circle r="0.5" cx="7.549516567451064e-15" cy="40" fill="#d6f0ff" stroke="#3d8dba"></circle><polygon points="28.39155502369551,-60.70389940580947 60.70389940580947,-28.391555023695542 101.6954606022458,-45.370815614106164 43.201610285353645,-96.4585356779996" fill="#eaeaea" stroke-width="0.5"></polygon><polygon points="33.5942943049502,-65.42504535084757 62.04350781297066,-65.42504535084757 62.04350781297066,-76.01916469856295 44.37458141669079,-91.4509607022876" fill="#d6f0ff" stroke="#3d8dba" stroke-width="0.5"></polygon><circle r="0.5" cx="50.513972836895576" cy="-74.58005402563643" fill="#d6f0ff" stroke="#3d8dba"></circle><polygon points="35.646738149179725,-58.72719924317623 61.44548872217415,-31.945907977121966 62.04350781297066,-32.193615595087905 62.04350781297066,-59.353071642543256" fill="#d6f0ff" stroke="#3d8dba" stroke-width="0.5"></polygon><circle r="0.5" cx="55.294810624323794" cy="-45.55494861448234" fill="#d6f0ff" stroke="#3d8dba"></circle><polygon points="68.04350781297066,-70.7788476614258 68.04350781297066,-65.42504535084757 74.1734449209397,-65.42504535084757" fill="#d6f0ff" stroke="#3d8dba" stroke-width="0.5"></polygon><circle r="0.5" cx="70.08682018229366" cy="-67.20964612104031" fill="#d6f0ff" stroke="#3d8dba"></circle><polygon points="68.04350781297066,-59.42504535084758 68.04350781297066,-34.67889696932647 96.08013263075293,-46.292047212018005 81.0432582823975,-59.42504535084758" fill="#d6f0ff" stroke="#3d8dba" stroke-width="0.5"></polygon><circle r="0.5" cx="78.30260163477294" cy="-49.955258720759915" fill="#d6f0ff" stroke="#3d8dba"></circle><polygon points="-35.81552278007726,94.30569862840335 -28.57647006453579,112.40333041725702 38.047203967833475,99.69345361877724 22.848277828627815,62.99999999999999 -22.848277828627804,63.00000000000001" fill="#eaeaea" stroke-width="0.5"></polygon><polygon points="-28.590225283244877,84.7016652086285 -1.884159406121889,84.7016652086285 -1.884159406121889,66 -20.84374191486991,66" fill="#d6f0ff" stroke="#3d8dba" stroke-width="0.5"></polygon><circle r="0.5" cx="-13.30057150258964" cy="75.35083260431425" fill="#d6f0ff" stroke="#3d8dba"></circle><polygon points="-32.57652537023055,94.32544494231836 -26.709479427684286,108.993059798684 -1.8841594061218885,104.2571042462539 -1.8841594061218885,90.70166520862853 -31.075506657483466,90.70166520862853" fill="#d6f0ff" stroke="#3d8dba" stroke-width="0.5"></polygon><circle r="0.5" cx="-18.825966053528415" cy="97.79578788090267" fill="#d6f0ff" stroke="#3d8dba"></circle><polygon points="4.1158405938781115,65.99999999999999 4.1158405938781115,84.7016652086285 28.590225283244912,84.7016652086285 20.843741914869916,65.99999999999999" fill="#d6f0ff" stroke="#3d8dba" stroke-width="0.5"></polygon><circle r="0.5" cx="14.416412096467763" cy="75.35083260431423" fill="#d6f0ff" stroke="#3d8dba"></circle><polygon points="4.1158405938781115,90.70166520862853 4.1158405938781115,103.1124771763954 33.86542115965844,97.43711463764066 31.075506657483487,90.70166520862853" fill="#d6f0ff" stroke="#3d8dba" stroke-width="0.5"></polygon><circle r="0.5" cx="18.293152251224537" cy="95.48823055782329" fill="#d6f0ff" stroke="#3d8dba"></circle><polygon points="-35.81552278007727,-94.30569862840329 -22.848277828627822,-62.99999999999999 22.848277828627797,-63.00000000000001 38.939457899443,-101.84754516154977 37.81969459917371,-109.41034290030427 -33.68345035831127,-99.63587968281831" fill="#eaeaea" stroke-width="0.5"></polygon><polygon points="-32.57652537023057,-94.32544494231831 -30.455638646715894,-89.20517145015214 -13.897529220237182,-89.20517145015214 -13.897529220237182,-99.31270998218389 -31.546672881006202,-96.90007616537925" fill="#d6f0ff" stroke="#3d8dba" stroke-width="0.5"></polygon><circle r="0.5" cx="-24.474779067685404" cy="-93.78971479803714" fill="#d6f0ff" stroke="#3d8dba"></circle><polygon points="-27.97035727247731,-83.20517145015214 -20.843741914869927,-66 -13.897529220237182,-66 -13.897529220237182,-83.20517145015214" fill="#d6f0ff" stroke="#3d8dba" stroke-width="0.5"></polygon><circle r="0.5" cx="-19.1522894069554" cy="-74.60258572507607" fill="#d6f0ff" stroke="#3d8dba"></circle><polygon points="-7.897529220237182,-100.13290858099778 -7.897529220237182,-89.20517145015214 11.021464339602908,-89.20517145015214 11.021464339602908,-102.71913058245609" fill="#d6f0ff" stroke="#3d8dba" stroke-width="0.5"></polygon><circle r="0.5" cx="1.5619675596828628" cy="-95.31559551593953" fill="#d6f0ff" stroke="#3d8dba"></circle><polygon points="-7.897529220237182,-83.20517145015214 -7.897529220237182,-66 11.021464339602908,-66 11.021464339602908,-83.20517145015214" fill="#d6f0ff" stroke="#3d8dba" stroke-width="0.5"></polygon><circle r="0.5" cx="1.5619675596828628" cy="-74.60258572507607" fill="#d6f0ff" stroke="#3d8dba"></circle><polygon points="17.021464339602908,-103.53932918126998 17.021464339602908,-89.20517145015214 30.455638646715848,-89.20517145015214 35.8502766448695,-102.22897966938797 35.2865768800852,-106.03616580008358" fill="#d6f0ff" stroke="#3d8dba" stroke-width="0.5"></polygon><circle r="0.5" cx="27.127084170175273" cy="-98.04296351020916" fill="#d6f0ff" stroke="#3d8dba"></circle><polygon points="17.021464339602908,-83.20517145015214 17.021464339602908,-66 20.843741914869895,-66 27.97035727247727,-83.20517145015214" fill="#d6f0ff" stroke="#3d8dba" stroke-width="0.5"></polygon><circle r="0.5" cx="20.714256966638246" cy="-74.60258572507607" fill="#d6f0ff" stroke="#3d8dba"></circle><polygon points="28.39155502369553,60.70389940580946 44.602346459475896,99.840211946872 65.89216025808376,111.75569844465139 98.7701191139414,98.7701191139414 117.30686116469218,51.8372694547104 60.703899405809466,28.391555023695524" fill="#eaeaea" stroke-width="0.5"></polygon><polygon points="31.93029630500535,61.407798811618925 34.27715907259962,67.07362673417344 69.84920809419387,67.07362673417344 69.84920809419387,35.42684251539002 61.40779881161894,31.93029630500535" fill="#d6f0ff" stroke="#3d8dba" stroke-width="0.5"></polygon><circle r="0.5" cx="53.462734075522334" cy="52.58243822007224" fill="#d6f0ff" stroke="#3d8dba"></circle><polygon points="36.7624404468382,73.07362673417347 46.97570614294326,97.73063129383016 66.11463667933224,108.44231109270153 69.84920809419387,106.9672933281712 69.84920809419387,73.07362673417347" fill="#d6f0ff" stroke="#3d8dba" stroke-width="0.5"></polygon><circle r="0.5" cx="57.91023989150028" cy="91.85749783660997" fill="#d6f0ff" stroke="#3d8dba"></circle><polygon points="75.84920809419387,37.912123889628596 75.84920809419387,67.07362673417344 108.06354544337705,67.07362673417344 113.43264678563277,53.479693916240315" fill="#d6f0ff" stroke="#3d8dba" stroke-width="0.5"></polygon><circle r="0.5" cx="93.29865210434939" cy="56.38476781855395" fill="#d6f0ff" stroke="#3d8dba"></circle><polygon points="75.84920809419387,73.07362673417347 75.84920809419387,104.59751495093539 96.4578590483922,96.45785904839217 105.69376706614126,73.07362673417347" fill="#d6f0ff" stroke="#3d8dba" stroke-width="0.5"></polygon><circle r="0.5" cx="88.4625105757303" cy="86.80065686691862" fill="#d6f0ff" stroke="#3d8dba"></circle><polygon points="63,-22.848277828627822 63,22.8482778286278 120.63684226869023,46.72223958867818 144,26.898954240900174 144,-26.898954240900146 129.21557946768883,-39.443311056194474 107.77546877161102,-41.394884255442086" fill="#eaeaea" stroke-width="0.5"></polygon><polygon points="66,-20.84374191486992 66,-15.022842974068666 86.99966666666667,-15.022842974068666 86.99966666666667,-29.542088653517457" fill="#d6f0ff" stroke="#3d8dba" stroke-width="0.5"></polygon><circle r="0.5" cx="76.49983333333333" cy="-20.107879129131177" fill="#d6f0ff" stroke="#3d8dba"></circle><polygon points="66,-9.022842974068666 66,14.350198307304751 86.99966666666667,14.350198307304751 86.99966666666667,-9.022842974068666" fill="#d6f0ff" stroke="#3d8dba" stroke-width="0.5"></polygon><circle r="0.5" cx="76.49983333333333" cy="2.6636776666180424" fill="#d6f0ff" stroke="#3d8dba"></circle><polygon points="66,20.35019830730475 66,20.84374191486991 86.99966666666667,29.542088653517453 86.99966666666667,20.35019830730475" fill="#d6f0ff" stroke="#3d8dba" stroke-width="0.5"></polygon><circle r="0.5" cx="76.49983333333333" cy="22.771556795749216" fill="#d6f0ff" stroke="#3d8dba"></circle><polygon points="92.99966666666667,-32.02737002775603 92.99966666666667,-15.022842974068666 114.00033333333333,-15.022842974068666 114.00033333333333,-37.81586717251896 108.24014896948336,-38.340184494689844" fill="#d6f0ff" stroke="#3d8dba" stroke-width="0.5"></polygon><circle r="0.5" cx="104.44802979389667" cy="-27.645821528620434" fill="#d6f0ff" stroke="#3d8dba"></circle><polygon points="92.99966666666667,-9.022842974068666 92.99966666666667,14.350198307304751 114.00033333333333,14.350198307304751 114.00033333333333,-9.022842974068666" fill="#d6f0ff" stroke="#3d8dba" stroke-width="0.5"></polygon><circle r="0.5" cx="103.5" cy="2.6636776666180424" fill="#d6f0ff" stroke="#3d8dba"></circle><polygon points="92.99966666666667,20.35019830730475 92.99966666666667,32.02737002775602 114.00033333333333,40.72613097996594 114.00033333333333,20.35019830730475" fill="#d6f0ff" stroke="#3d8dba" stroke-width="0.5"></polygon><circle r="0.5" cx="103.5" cy="28.363474405582867" fill="#d6f0ff" stroke="#3d8dba"></circle><polygon points="120.00033333333336,-37.26972077610004 120.00033333333336,-15.022842974068666 141,-15.022842974068666 141,-25.510029693921528 127.99838513269148,-36.54170291466815" fill="#d6f0ff" stroke="#3d8dba" stroke-width="0.5"></polygon><circle r="0.5" cx="129.99981035987165" cy="-25.873427866565407" fill="#d6f0ff" stroke="#3d8dba"></circle><polygon points="120.00033333333336,-9.022842974068666 120.00033333333336,14.350198307304751 141,14.350198307304751 141,-9.022842974068666" fill="#d6f0ff" stroke="#3d8dba" stroke-width="0.5"></polygon><circle r="0.5" cx="130.50016666666667" cy="2.6636776666180424" fill="#d6f0ff" stroke="#3d8dba"></circle><polygon points="120.00033333333336,20.35019830730475 120.00033333333336,43.211412354204526 120.09260899362889,43.249634184175854 141,25.510029693921553 141,20.35019830730475" fill="#d6f0ff" stroke="#3d8dba" stroke-width="0.5"></polygon><circle r="0.5" cx="128.41865513205911" cy="30.53429456938229" fill="#d6f0ff" stroke="#3d8dba"></circle><polygon points="43.44358762977951,-112.39231935108607 44.83442725821298,-102.99869232798466 108.55153897407061,-47.349047981021265 127.1650571519276,-45.654763668102156 121.24499877656328,-121.43323388401511 51.62301346291559,-131.7691142283461" fill="#eaeaea" stroke-width="0.5"></polygon><polygon points="46.53436294129679,-112.00011870164715 47.413178497169355,-106.06466404159812 68.35041080382888,-106.06466404159812 68.35041080382888,-126.25293366598947 53.482559873791374,-128.46017219126165" fill="#d6f0ff" stroke="#3d8dba" stroke-width="0.5"></polygon><circle r="0.5" cx="56.82618458398306" cy="-115.76851052841889" fill="#d6f0ff" stroke="#3d8dba"></circle><polygon points="52.80619706298174,-100.04159698622101 68.35041080382888,-86.44866232033462 68.35041080382888,-100.06093041144352" fill="#d6f0ff" stroke="#3d8dba" stroke-width="0.5"></polygon><circle r="0.5" cx="63.169006223546496" cy="-95.51706323933304" fill="#d6f0ff" stroke="#3d8dba"></circle><polygon points="74.35041080382888,-125.36219086705022 74.35041080382888,-106.06466404159812 96.25823397787823,-106.06466404159812 96.25823397787823,-122.10981824493041" fill="#d6f0ff" stroke="#3d8dba" stroke-width="0.5"></polygon><circle r="0.5" cx="85.30432239085356" cy="-114.90033429879422" fill="#d6f0ff" stroke="#3d8dba"></circle><polygon points="74.35041080382888,-100.06466404159812 74.35041080382888,-81.20295862943549 78.75137900557559,-77.35921385485014 96.25823397787823,-77.35921385485014 96.25823397787823,-100.06466404159812" fill="#d6f0ff" stroke="#3d8dba" stroke-width="0.5"></polygon><circle r="0.5" cx="83.99373371379798" cy="-87.2101428844664" fill="#d6f0ff" stroke="#3d8dba"></circle><polygon points="85.6211923670334,-71.35921385485014 96.25823397787823,-62.068968791842295 96.25823397787823,-71.35921385485014" fill="#d6f0ff" stroke="#3d8dba" stroke-width="0.5"></polygon><circle r="0.5" cx="92.71255344092997" cy="-68.2624655005142" fill="#d6f0ff" stroke="#3d8dba"></circle><polygon points="102.25823397787823,-121.21907544599115 102.25823397787823,-106.06466404159812 119.4365000643028,-106.06466404159812 118.44026699998153,-118.81673721488522" fill="#d6f0ff" stroke="#3d8dba" stroke-width="0.5"></polygon><circle r="0.5" cx="110.59830875501021" cy="-113.04128518601816" fill="#d6f0ff" stroke="#3d8dba"></circle><polygon points="102.25823397787823,-100.06466404159812 102.25823397787823,-77.35921385485014 121.67906236877347,-77.35921385485014 119.9052394061103,-100.06466404159812" fill="#d6f0ff" stroke="#3d8dba" stroke-width="0.5"></polygon><circle r="0.5" cx="111.52519243266006" cy="-88.71193894822413" fill="#d6f0ff" stroke="#3d8dba"></circle><polygon points="102.25823397787823,-71.35921385485014 102.25823397787823,-56.82865175470514 109.79228937440259,-50.24851194584821 123.89734050116897,-48.96460813848353 122.14780171058096,-71.35921385485014" fill="#d6f0ff" stroke="#3d8dba" stroke-width="0.5"></polygon><circle r="0.5" cx="112.0707799083818" cy="-59.75203990974743" fill="#d6f0ff" stroke="#3d8dba"></circle><polygon points="-24.534670641846812,117.74047680867419 43.749213330629054,157.62312899177968 49.59124504455444,158.7134150273368 62.11129681392978,116.51543015287949 41.717560711331814,105.10146056777812" fill="#eaeaea" stroke-width="0.5"></polygon><polygon points="-16.109306368577503,119.18726275346133 0.5327991227011248,128.90743779755746 1.3469851767453846,128.90743779755746 1.3469851767453846,115.85710544644155" fill="#d6f0ff" stroke="#3d8dba" stroke-width="0.5"></polygon><circle r="0.5" cx="-3.2206342230964022" cy="123.21481094875445" fill="#d6f0ff" stroke="#3d8dba"></circle><polygon points="7.346985176745385,114.71247837658305 7.346985176745385,128.90743779755746 30.229640995337583,128.90743779755746 30.229640995337583,110.34712716321374" fill="#d6f0ff" stroke="#3d8dba" stroke-width="0.5"></polygon><circle r="0.5" cx="18.788313086041484" cy="120.71862028372792" fill="#d6f0ff" stroke="#3d8dba"></circle><polygon points="14.013663331805098,135.8095488403337 30.229640995337583,146.03934027553709 30.229640995337583,135.05104344422503" fill="#d6f0ff" stroke="#3d8dba" stroke-width="0.5"></polygon><circle r="0.5" cx="24.82431510749342" cy="138.96664418669857" fill="#d6f0ff" stroke="#3d8dba"></circle><polygon points="36.22964099533758,109.20250009335524 36.22964099533758,128.90743779755746 55.30535492724056,128.90743779755746 58.55290979102427,117.96177450915775 41.206134646655116,108.2531285356424" fill="#d6f0ff" stroke="#3d8dba" stroke-width="0.5"></polygon><circle r="0.5" cx="45.50473627111902" cy="118.64645574665406" fill="#d6f0ff" stroke="#3d8dba"></circle><polygon points="36.22964099533758,134.90743779755746 36.22964099533758,149.7569361801559 44.81207967869035,154.76969170866332 47.48412292948719,155.26836949498966 53.52516777281266,134.90743779755746" fill="#d6f0ff" stroke="#3d8dba" stroke-width="0.5"></polygon><circle r="0.5" cx="43.656130474333075" cy="145.92197459578477" fill="#d6f0ff" stroke="#3d8dba"></circle><polygon points="-23.396266255691742,125.35383993936716 -12.626306347221252,152.2787397105434 29.455907174671147,156.22327394657722" fill="#eaeaea" stroke-width="0.5"></polygon><polygon points="-17.36682803310807,132.34968828512459 -10.521552783133384,149.46287641006128 0.029820459489702245,150.45189883805324 0.029820459489702245,142.51057018899655" fill="#d6f0ff" stroke="#3d8dba" stroke-width="0.5"></polygon><circle r="0.5" cx="-6.9571849743155125" cy="143.69375843055892" fill="#d6f0ff" stroke="#3d8dba"></circle><polygon points="6.029820459489702,146.0149975762127 6.029820459489702,151.0143028428685 16.225467366774456,151.9699816182584" fill="#d6f0ff" stroke="#3d8dba" stroke-width="0.5"></polygon><circle r="0.5" cx="9.42836942858462" cy="149.66642734577988" fill="#d6f0ff" stroke="#3d8dba"></circle><polygon points="-31.121016303913663,-106.04196481881232 38.25349132170684,-115.52544381013526 46.587912226427406,-135.26941699188114 29.759609037231016,-194 4.062197768561407,-194" fill="#eaeaea" stroke-width="0.5"></polygon><polygon points="-9.098310383395427,-153.02098240940617 4.733447961256868,-153.02098240940617 4.733447961256868,-187.6003782710369" fill="#d6f0ff" stroke="#3d8dba" stroke-width="0.5"></polygon><circle r="0.5" cx="0.12286184637276953" cy="-164.54744769661642" fill="#d6f0ff" stroke="#3d8dba"></circle><polygon points="-26.421804772210983,-109.71224643736728 4.733447961256868,-113.97116221031445 4.733447961256868,-147.02098240940614 -11.498310383395435,-147.02098240940614" fill="#d6f0ff" stroke="#3d8dba" stroke-width="0.5"></polygon><circle r="0.5" cx="-7.1133048082731705" cy="-129.4313433666235" fill="#d6f0ff" stroke="#3d8dba"></circle><polygon points="10.733447961256868,-191 10.733447961256868,-153.02098240940617 38.38076340889261,-153.02098240940617 27.498487257232682,-191" fill="#d6f0ff" stroke="#3d8dba" stroke-width="0.5"></polygon><circle r="0.5" cx="21.836536647159758" cy="-172.0104912047031" fill="#d6f0ff" stroke="#3d8dba"></circle><polygon points="10.733447961256868,-147.02098240940614 10.733447961256868,-114.79136080912834 36.15417032515145,-118.26636761974557 43.41235740081498,-135.46077771833177 40.09996682836523,-147.02098240940614" fill="#d6f0ff" stroke="#3d8dba" stroke-width="0.5"></polygon><circle r="0.5" cx="28.226678095369078" cy="-132.51209419320358" fill="#d6f0ff" stroke="#3d8dba"></circle><polygon points="104.5958799123031,100.35323922518378 132.7426406871193,128.5 192.30291323934202,128.5 144,41.55475616918437 144,34.76771242576652 123.69518847421601,51.996037356734746" fill="#eaeaea" stroke-width="0.5"></polygon><polygon points="122.5700148864924,63.011474950511015 130.8312243546494,63.011474950511015 130.8312243546494,49.87559812637595 126.20930140468045,53.797229720289" fill="#d6f0ff" stroke="#3d8dba" stroke-width="0.5"></polygon><circle r="0.5" cx="127.61044125011792" cy="57.423944436921744" fill="#d6f0ff" stroke="#3d8dba"></circle><polygon points="110.2294877809912,94.2562374752555 130.8312243546494,94.2562374752555 130.8312243546494,69.01147495051102 120.20023650925658,69.01147495051102" fill="#d6f0ff" stroke="#3d8dba" stroke-width="0.5"></polygon><circle r="0.5" cx="123.02304324988665" cy="81.63385621288326" fill="#d6f0ff" stroke="#3d8dba"></circle><polygon points="111.83803184954111,101.45042240025987 130.41544608203006,121.09685913247003 130.77555050549128,100.42593152934076" fill="#d6f0ff" stroke="#3d8dba" stroke-width="0.5"></polygon><circle r="0.5" cx="124.34300947902084" cy="107.65773768735689" fill="#d6f0ff" stroke="#3d8dba"></circle><polygon points="136.8312243546494,44.784689035466855 136.8312243546494,63.011474950511015 152.4885226092969,63.011474950511015 141,42.33213425377657 141,41.24754606365423" fill="#d6f0ff" stroke="#3d8dba" stroke-width="0.5"></polygon><circle r="0.5" cx="141.63019426371915" cy="50.87746385078394" fill="#d6f0ff" stroke="#3d8dba"></circle><polygon points="136.8312243546494,69.01147495051102 136.8312243546494,94.2562374752555 160.06756879699572,94.2562374752555 160.06756879699572,76.65375808836885 155.82185594263026,69.01147495051102" fill="#d6f0ff" stroke="#3d8dba" stroke-width="0.5"></polygon><circle r="0.5" cx="149.9238884491841" cy="80.63783658798039" fill="#d6f0ff" stroke="#3d8dba"></circle><polygon points="136.8312243546494,100.25623747525552 136.8312243546494,125.5 160.06756879699572,125.5 160.06756879699572,100.25623747525552" fill="#d6f0ff" stroke="#3d8dba" stroke-width="0.5"></polygon><circle r="0.5" cx="148.44939657582256" cy="112.87811873762774" fill="#d6f0ff" stroke="#3d8dba"></circle><polygon points="166.06756879699572,87.45375808836884 166.06756879699572,94.2562374752555 169.84672401193274,94.2562374752555" fill="#d6f0ff" stroke="#3d8dba" stroke-width="0.5"></polygon><circle r="0.5" cx="167.3272872019747" cy="91.98874434629329" fill="#d6f0ff" stroke="#3d8dba"></circle><polygon points="166.06756879699572,100.25623747525552 166.06756879699572,125.5 187.20436985901304,125.5 173.1800573452661,100.25623747525552" fill="#d6f0ff" stroke="#3d8dba" stroke-width="0.5"></polygon><circle r="0.5" cx="173.12989119956762" cy="112.87811873762774" fill="#d6f0ff" stroke="#3d8dba"></circle><polygon points="127.1482536393489,-122.90561295222966 133.32635323757268,-43.82413998176544 144,-34.7677124257665 144,-41.55475616918437 192.30291323934202,-128.5 132.7426406871193,-128.5" fill="#eaeaea" stroke-width="0.5"></polygon><polygon points="130.2467767255528,-121.7614953513143 131.9268367959235,-100.2562374752555 156.72558343934548,-100.2562374752555 156.72558343934548,-125.5 133.98528137423858,-125.5" fill="#d6f0ff" stroke="#3d8dba" stroke-width="0.5"></polygon><circle r="0.5" cx="141.9220123548812" cy="-114.65479406036506" fill="#d6f0ff" stroke="#3d8dba"></circle><polygon points="132.39557613773104,-94.25623747525549 134.36777836605356,-69.011474950511 155.82185594263024,-69.011474950511 156.72558343934548,-70.63818444459844 156.72558343934548,-94.25623747525549" fill="#d6f0ff" stroke="#3d8dba" stroke-width="0.5"></polygon><circle r="0.5" cx="147.20727546502116" cy="-79.43472185922629" fill="#d6f0ff" stroke="#3d8dba"></circle><polygon points="134.83651770786105,-63.011474950511 136.21993267245915,-45.303360765810055 141,-41.24754606365421 141,-42.33213425377656 152.4885226092969,-63.011474950511" fill="#d6f0ff" stroke="#3d8dba" stroke-width="0.5"></polygon><circle r="0.5" cx="141.1089945979234" cy="-50.98119819685257" fill="#d6f0ff" stroke="#3d8dba"></circle><polygon points="162.72558343934543,-125.5 162.72558343934543,-100.25623747525552 173.1800573452661,-100.25623747525552 187.20436985901298,-125.5" fill="#d6f0ff" stroke="#3d8dba" stroke-width="0.5"></polygon><circle r="0.5" cx="171.45889852074248" cy="-112.87811873762776" fill="#d6f0ff" stroke="#3d8dba"></circle><polygon points="162.72558343934543,-94.25623747525549 162.72558343934543,-81.43818444459836 169.84672401193274,-94.25623747525549" fill="#d6f0ff" stroke="#3d8dba" stroke-width="0.5"></polygon><circle r="0.5" cx="165.0992969635412" cy="-89.98355313170312" fill="#d6f0ff" stroke="#3d8dba"></circle><polygon points="54.72683259794064,162.49818094362746 56.7775625616889,194 128.5,194 128.5,132.74264068711926 100.35323922518381,104.59587991230308 68.13028418555257,117.322756929563" fill="#eaeaea" stroke-width="0.5"></polygon><polygon points="67.0837699005975,131.39691994153537 76.31755506529376,131.39691994153537 76.31755506529376,117.31460472952911 70.59088453426985,119.57642806252478" fill="#d6f0ff" stroke="#3d8dba" stroke-width="0.5"></polygon><circle r="0.5" cx="72.57744114136372" cy="124.92121816878115" fill="#d6f0ff" stroke="#3d8dba"></circle><polygon points="58.72219540503284,160.48332858038123 76.31755506529376,161.09317931917917 76.31755506529376,137.39691994153537 65.32654505254013,137.39691994153537" fill="#d6f0ff" stroke="#3d8dba" stroke-width="0.5"></polygon><circle r="0.5" cx="69.17096264704011" cy="149.09258694565779" fill="#d6f0ff" stroke="#3d8dba"></circle><polygon points="58.03919763003425,167.1989599707677 59.58861628008026,191 76.31755506529376,191 76.31755506529376,167.1989599707677" fill="#d6f0ff" stroke="#3d8dba" stroke-width="0.5"></polygon><circle r="0.5" cx="67.56573101017551" cy="179.09947998538382" fill="#d6f0ff" stroke="#3d8dba"></circle><polygon points="82.31755506529376,114.94482635229329 82.31755506529376,131.39691994153537 100.90927753264688,131.39691994153537 100.90927753264688,109.39455890688544 99.62409927087698,108.10938064511552" fill="#d6f0ff" stroke="#3d8dba" stroke-width="0.5"></polygon><circle r="0.5" cx="93.21555289335166" cy="119.04852115747299" fill="#d6f0ff" stroke="#3d8dba"></circle><polygon points="82.31755506529376,137.39691994153537 82.31755506529376,161.1989599707677 100.90927753264688,161.1989599707677 100.90927753264688,137.39691994153537" fill="#d6f0ff" stroke="#3d8dba" stroke-width="0.5"></polygon><circle r="0.5" cx="91.61341629897032" cy="149.29793995615154" fill="#d6f0ff" stroke="#3d8dba"></circle><polygon points="82.31755506529376,167.1989599707677 82.31755506529376,191 100.90927753264688,191 100.90927753264688,167.1989599707677" fill="#d6f0ff" stroke="#3d8dba" stroke-width="0.5"></polygon><circle r="0.5" cx="91.61341629897032" cy="179.09947998538382" fill="#d6f0ff" stroke="#3d8dba"></circle><polygon points="106.90927753264688,115.56741095489856 106.90927753264688,131.29431458305586 121.64488039107776,130.79866419819265" fill="#d6f0ff" stroke="#3d8dba" stroke-width="0.5"></polygon><circle r="0.5" cx="111.82114515212385" cy="125.88679657871569" fill="#d6f0ff" stroke="#3d8dba"></circle><polygon points="106.90927753264688,137.39691994153537 106.90927753264688,161.1989599707677 125.5,161.1989599707677 125.5,137.39691994153537" fill="#d6f0ff" stroke="#3d8dba" stroke-width="0.5"></polygon><circle r="0.5" cx="116.20463876632344" cy="149.29793995615154" fill="#d6f0ff" stroke="#3d8dba"></circle><polygon points="106.90927753264688,167.1989599707677 106.90927753264688,191 125.5,191 125.5,167.1989599707677" fill="#d6f0ff" stroke="#3d8dba" stroke-width="0.5"></polygon><circle r="0.5" cx="116.20463876632344" cy="179.09947998538382" fill="#d6f0ff" stroke="#3d8dba"></circle><polygon points="-10.121886408816755,158.53978955655464 4.062197768561395,194 50.76486244959208,194 48.856154670406156,164.6798222319305 42.27030764172679,163.45071951573524" fill="#eaeaea" stroke-width="0.5"></polygon><polygon points="-5.512712906324397,161.98497610208378 -0.9987454358469794,173.26989477827732 17.321488020387662,173.26989477827732 17.321488020387662,164.12531711007364" fill="#d6f0ff" stroke="#3d8dba" stroke-width="0.5"></polygon><circle r="0.5" cx="7.032879424650987" cy="168.16252069217802" fill="#d6f0ff" stroke="#3d8dba"></circle><polygon points="1.4012545641530214,179.26989477827732 6.0932966528420955,191 17.321488020387662,191 17.321488020387662,179.26989477827732" fill="#d6f0ff" stroke="#3d8dba" stroke-width="0.5"></polygon><circle r="0.5" cx="10.534381814442611" cy="185.1349473891387" fill="#d6f0ff" stroke="#3d8dba"></circle><polygon points="23.321488020387662,164.6877211148889 23.321488020387662,173.26989477827732 46.40900785052772,173.26989477827732 46.01394218119062,167.201183904177 41.85426830088589,166.42487275657444" fill="#d6f0ff" stroke="#3d8dba" stroke-width="0.5"></polygon><circle r="0.5" cx="36.18403887467591" cy="168.970713466439" fill="#d6f0ff" stroke="#3d8dba"></circle><polygon points="23.321488020387662,179.26989477827732 23.321488020387662,191 47.56321605588661,191 46.79960052584183,179.26989477827732" fill="#d6f0ff" stroke="#3d8dba" stroke-width="0.5"></polygon><circle r="0.5" cx="35.251448155625944" cy="185.1349473891387" fill="#d6f0ff" stroke="#3d8dba"></circle><polygon points="36.0010560167003,-194 52.11520613428003,-137.7618029313032 122.99635072359929,-127.23899141071857 128.5,-132.7426406871193 128.5,-194" fill="#eaeaea" stroke-width="0.5"></polygon><polygon points="39.98138121617125,-191 47.826823984543076,-163.6194957053593 56.12529201252523,-163.6194957053593 56.12529201252523,-191" fill="#d6f0ff" stroke="#3d8dba" stroke-width="0.5"></polygon><circle r="0.5" cx="50.01469730644119" cy="-177.30974785267966" fill="#d6f0ff" stroke="#3d8dba"></circle><polygon points="49.546027404015696,-157.61949570535927 54.46694521652024,-140.44554959717593 56.12529201252523,-140.19935618606166 56.12529201252523,-157.61949570535927" fill="#d6f0ff" stroke="#3d8dba" stroke-width="0.5"></polygon><circle r="0.5" cx="54.0658891613966" cy="-148.970974298489" fill="#d6f0ff" stroke="#3d8dba"></circle><polygon points="62.12529201252523,-191 62.12529201252523,-163.6194957053593 79.25052800835016,-163.6194957053593 79.25052800835016,-191" fill="#d6f0ff" stroke="#3d8dba" stroke-width="0.5"></polygon><circle r="0.5" cx="70.68791001043769" cy="-177.30974785267966" fill="#d6f0ff" stroke="#3d8dba"></circle><polygon points="62.12529201252523,-157.61949570535927 62.12529201252523,-139.30861338712242 79.25052800835016,-136.76624994655305 79.25052800835016,-157.61949570535927" fill="#d6f0ff" stroke="#3d8dba" stroke-width="0.5"></polygon><circle r="0.5" cx="70.68791001043769" cy="-147.8284636860985" fill="#d6f0ff" stroke="#3d8dba"></circle><polygon points="85.25052800835016,-191 85.25052800835016,-163.6194957053593 102.3757640041751,-163.6194957053593 102.3757640041751,-191" fill="#d6f0ff" stroke="#3d8dba" stroke-width="0.5"></polygon><circle r="0.5" cx="93.81314600626263" cy="-177.30974785267966" fill="#d6f0ff" stroke="#3d8dba"></circle><polygon points="85.25052800835016,-157.61949570535927 85.25052800835016,-135.8755071476138 102.3757640041751,-133.3331437070444 102.3757640041751,-157.61949570535927" fill="#d6f0ff" stroke="#3d8dba" stroke-width="0.5"></polygon><circle r="0.5" cx="93.81314600626263" cy="-146.1119105663442" fill="#d6f0ff" stroke="#3d8dba"></circle><polygon points="108.37576400417507,-191 108.37576400417507,-163.6194957053593 125.5,-163.6194957053593 125.5,-191" fill="#d6f0ff" stroke="#3d8dba" stroke-width="0.5"></polygon><circle r="0.5" cx="116.93788200208753" cy="-177.30974785267966" fill="#d6f0ff" stroke="#3d8dba"></circle><polygon points="108.37576400417507,-157.61949570535927 108.37576400417507,-132.44240090810516 121.94297089405356,-130.4282522682921 125.5,-133.98528137423858 125.5,-157.61949570535927" fill="#d6f0ff" stroke="#3d8dba" stroke-width="0.5"></polygon><circle r="0.5" cx="117.93889978048074" cy="-142.4189851922709" fill="#d6f0ff" stroke="#3d8dba"></circle><polygon points="134.5,-193.5 134.5,-134.5 193.5,-134.5 193.5,-193.5" fill="#eaeaea" stroke-width="0.5"></polygon><polygon points="137.5,-190.5 137.5,-167 161,-167 161,-190.5" fill="#d6f0ff" stroke="#3d8dba" stroke-width="0.5"></polygon><circle r="0.5" cx="149.25" cy="-178.75" fill="#d6f0ff" stroke="#3d8dba"></circle><polygon points="137.5,-161 137.5,-137.5 161,-137.5 161,-161" fill="#d6f0ff" stroke="#3d8dba" stroke-width="0.5"></polygon><circle r="0.5" cx="149.25" cy="-149.25" fill="#d6f0ff" stroke="#3d8dba"></circle><polygon points="167,-190.5 167,-167 190.5,-167 190.5,-190.5" fill="#d6f0ff" stroke="#3d8dba" stroke-width="0.5"></polygon><circle r="0.5" cx="178.75" cy="-178.75" fill="#d6f0ff" stroke="#3d8dba"></circle><polygon points="167,-161 167,-137.5 190.5,-137.5 190.5,-161" fill="#d6f0ff" stroke="#3d8dba" stroke-width="0.5"></polygon><circle r="0.5" cx="178.75" cy="-149.25" fill="#d6f0ff" stroke="#3d8dba"></circle><polygon points="134.5,134.5 134.5,193.5 193.5,193.5 193.5,134.5" fill="#eaeaea" stroke-width="0.5"></polygon><polygon points="137.5,137.5 137.5,161 161,161 161,137.5" fill="#d6f0ff" stroke="#3d8dba" stroke-width="0.5"></polygon><circle r="0.5" cx="149.25" cy="149.25" fill="#d6f0ff" stroke="#3d8dba"></circle><polygon points="137.5,167 137.5,190.5 161,190.5 161,167" fill="#d6f0ff" stroke="#3d8dba" stroke-width="0.5"></polygon><circle r="0.5" cx="149.25" cy="178.75" fill="#d6f0ff" stroke="#3d8dba"></circle><polygon points="167,137.5 167,161 190.5,161 190.5,137.5" fill="#d6f0ff" stroke="#3d8dba" stroke-width="0.5"></polygon><circle r="0.5" cx="178.75" cy="149.25" fill="#d6f0ff" stroke="#3d8dba"></circle><polygon points="167,167 167,190.5 190.5,190.5 190.5,167" fill="#d6f0ff" stroke="#3d8dba" stroke-width="0.5"></polygon><circle r="0.5" cx="178.75" cy="178.75" fill="#d6f0ff" stroke="#3d8dba"></circle><polygon points="-124.93959207434933,31.273259298721197 -91.09916264174741,38.99711648727295 -63.96124528390323,17.35534956470232 -63.96124528390324,-17.35534956470233 -91.09916264174743,-38.99711648727295 -124.93959207434935,-31.273259298721193 -140,0" fill="#f6f6f6" stroke="#888888" stroke-width="0.5"></polygon><polygon points="-133.34050241495154,1.9247588275507245e-15 -120.78746324456877,26.066654429310493 -92.58104026405222,32.50458641050176 -69.96124528390324,14.465901851857149 -69.96124528390324,-14.465901851857156 -92.58104026405223,-32.50458641050176 -120.78746324456877,-26.066654429310493" fill="#eaeaea" stroke-width="0.5"></polygon><polygon points="-118.71139882967849,23.463351994605148 -93.32197907520462,29.258321372116168 -72.96124528390324,13.02117799543456 -72.96124528390324,-13.021177995434568 -93.32197907520464,-29.258321372116168 -118.71139882967847,-23.463351994605144 -130.01075362242733,5.560414390702096e-15" fill="#d6f0ff" stroke="#3d8dba" stroke-width="0.5"></polygon><circle r="0.5" cx="-100" cy="-2.220446049250313e-16" fill="#d6f0ff" stroke="#3d8dba"></circle><line x1="-27" y1="0" x2="-63.96124528390324" y2="-3.552713678800501e-15" stroke="#888888" stroke-width="10"></line></svg>