<?xml version="1.0" encoding="UTF-8" standalone="no"?><svg xmlns="http://www.w3.org/2000/svg" xmlns:xlink="http://www.w3.org/1999/xlink" style="isolation:isolate" viewBox="0 0 16 16" width="16pt" height="16pt"><defs><clipPath id="_clipPath_fqfn93SD1bQzHjdi0sIT1c2ULw3w6uLV"><rect width="16" height="16"/></clipPath></defs><mask id="_mask_31ZTSJB7J6OTtWCVQl5cOvWOMVIARXtH" x="-200%" y="-200%" width="400%" height="400%"><rect x="-200%" y="-200%" width="400%" height="400%" style="fill:white;"/><path d=" M 6.56 10.578 L 3.914 10.578 L 3.914 6.294 L 4.822 6.294 L 4.822 9.828 L 6.56 9.828 L 6.56 10.578 Z  M 8.508 8.283 L 9.755 8.283 L 9.755 10.668 L 11.166 10.668 L 11.166 8.283 L 12.406 8.283 L 10.461 6.332 L 8.508 8.283 Z " fill-rule="evenodd" fill="rgb(33,37,41)" stroke="none"/></mask><g clip-path="url(#_clipPath_fqfn93SD1bQzHjdi0sIT1c2ULw3w6uLV)" mask="url(#_mask_31ZTSJB7J6OTtWCVQl5cOvWOMVIARXtH)"><path d=" M 0 7 C 0 5.895 0.895 5 2 5 L 14 5 C 15.105 5 16 5.895 16 7 L 16 10 C 16 11.105 15.105 12 14 12 L 2 12 C 0.895 12 0 11.105 0 10 L 0 7 Z " fill="rgb(33,37,41)"/></g></svg>
