<?xml version="1.0" encoding="UTF-8" standalone="no"?><svg xmlns="http://www.w3.org/2000/svg" xmlns:xlink="http://www.w3.org/1999/xlink" style="isolation:isolate" viewBox="0 0 16 16" width="16pt" height="16pt"><defs><clipPath id="_clipPath_3R3L3tBxetx13mwRsawaNbx90OxMdySk"><rect width="16" height="16"/></clipPath></defs><mask id="_mask_pAqgJQJ4v4m14mdHJJksYEwodiC5fAjo" x="-200%" y="-200%" width="400%" height="400%"><rect x="-200%" y="-200%" width="400%" height="400%" style="fill:white;"/><path d=" M 8.818 2.416 L 8 1 L 7.182 2.416 L 8.818 2.416 Z  M 7.182 6.584 L 8 8 L 8.818 6.584 L 7.182 6.584 Z " fill-rule="evenodd" fill="rgb(33,37,41)" stroke="none"/></mask><g clip-path="url(#_clipPath_3R3L3tBxetx13mwRsawaNbx90OxMdySk)" mask="url(#_mask_pAqgJQJ4v4m14mdHJJksYEwodiC5fAjo)"><path d=" M 3 5 C 3 2.239 5.239 0 8 0 C 10.761 0 13 2.239 13 5 L 13 11 C 13 13.761 10.761 16 8 16 C 5.239 16 3 13.761 3 11 L 3 5 Z  M 8.5 3.5 C 8.5 3.224 8.276 3 8 3 C 7.724 3 7.5 3.224 7.5 3.5 L 7.5 5.5 C 7.5 5.776 7.724 6 8 6 C 8.276 6 8.5 5.776 8.5 5.5 L 8.5 3.5 Z " fill="rgb(33,37,41)"/></g></svg>
