<?xml version="1.0" encoding="UTF-8" standalone="no"?><svg xmlns="http://www.w3.org/2000/svg" xmlns:xlink="http://www.w3.org/1999/xlink" style="isolation:isolate" viewBox="0 0 16 16" width="16pt" height="16pt"><defs><clipPath id="_clipPath_U8yjrVp5mD2jkfTd8C4J4vHpTLNiB08t"><rect width="16" height="16"/></clipPath></defs><mask id="_mask_UUFW8iHw29ptw9hlG4nAV4yURRy7LP3w" x="-200%" y="-200%" width="400%" height="400%"><rect x="-200%" y="-200%" width="400%" height="400%" style="fill:white;"/><path d=" M 6.961 5.906 L 3.797 5.906 L 3.797 3.621 L 3.805 3.594 Q 4.906 1.418 6.68 0.961 L 6.961 0.891 L 6.961 5.906 Z " fill="rgb(33,37,41)" stroke="none"/></mask><g clip-path="url(#_clipPath_U8yjrVp5mD2jkfTd8C4J4vHpTLNiB08t)" mask="url(#_mask_UUFW8iHw29ptw9hlG4nAV4yURRy7LP3w)"><g><path d=" M 3 5 C 3 2.239 5.239 0 8 0 C 10.761 0 13 2.239 13 5 L 13 11 C 13 13.761 10.761 16 8 16 C 5.239 16 3 13.761 3 11 L 3 5 Z  M 8.5 3.5 C 8.5 3.224 8.276 3 8 3 C 7.724 3 7.5 3.224 7.5 3.5 L 7.5 5.5 C 7.5 5.776 7.724 6 8 6 C 8.276 6 8.5 5.776 8.5 5.5 L 8.5 3.5 Z " fill="rgb(33,37,41)"/></g></g></svg>
