<?xml version="1.0" encoding="UTF-8" standalone="no"?><svg xmlns="http://www.w3.org/2000/svg" xmlns:xlink="http://www.w3.org/1999/xlink" style="isolation:isolate" viewBox="0 0 16 16" width="16pt" height="16pt"><defs><clipPath id="_clipPath_2f5e0V0kxoXcUl6qeChsIEXtP6rDhmna"><rect width="16" height="16"/></clipPath></defs><mask id="_mask_d1lNuGTkUeVffhVOBznLTueMTfWk1MwD" x="-200%" y="-200%" width="400%" height="400%"><rect x="-200%" y="-200%" width="400%" height="400%" style="fill:white;"/><path d=" M 9.047 5.906 L 12.211 5.906 L 12.211 3.621 L 12.203 3.594 Q 11.102 1.418 9.328 0.961 L 9.047 0.891 L 9.047 5.906 Z " fill="rgb(33,37,41)" stroke="none"/></mask><g clip-path="url(#_clipPath_2f5e0V0kxoXcUl6qeChsIEXtP6rDhmna)" mask="url(#_mask_d1lNuGTkUeVffhVOBznLTueMTfWk1MwD)"><g><path d=" M 13.008 5 C 13.008 2.239 10.769 0 8.008 0 C 5.246 0 3.008 2.239 3.008 5 L 3.008 11 C 3.008 13.761 5.246 16 8.008 16 C 10.769 16 13.008 13.761 13.008 11 L 13.008 5 Z  M 7.508 3.5 C 7.508 3.224 7.732 3 8.008 3 C 8.284 3 8.508 3.224 8.508 3.5 L 8.508 5.5 C 8.508 5.776 8.284 6 8.008 6 C 7.732 6 7.508 5.776 7.508 5.5 L 7.508 3.5 Z " fill="rgb(33,37,41)"/></g></g></svg>
