<?xml version="1.0" encoding="UTF-8" standalone="no"?><svg xmlns="http://www.w3.org/2000/svg" xmlns:xlink="http://www.w3.org/1999/xlink" style="isolation:isolate" viewBox="0 0 16 16" width="16pt" height="16pt"><defs><clipPath id="_clipPath_JUr4PVCKcpSQbtktWiT8zZ1Tl2rQaBi9"><rect width="16" height="16"/></clipPath></defs><g clip-path="url(#_clipPath_JUr4PVCKcpSQbtktWiT8zZ1Tl2rQaBi9)"><g><path d=" M 7.182 14.584 L 8 16 L 8.818 14.584 L 7.182 14.584 Z " fill="rgb(33,37,41)"/></g><g><path d=" M 8.814 1.411 L 7.997 -0.005 L 7.179 1.411 L 8.814 1.411 Z " fill="rgb(33,37,41)"/></g><g><path d=" M 12.584 8.818 L 14 8 L 12.584 7.182 L 12.584 8.818 Z " fill="rgb(33,37,41)"/></g><g><path d=" M 3.416 7.182 L 2 8 L 3.416 8.818 L 3.416 7.182 Z " fill="rgb(33,37,41)"/></g><path d=" M 4.25 5.75 C 4.25 3.679 5.929 2 8 2 C 10.071 2 11.75 3.679 11.75 5.75 L 11.75 10.25 C 11.75 12.321 10.071 14 8 14 C 5.929 14 4.25 12.321 4.25 10.25 L 4.25 5.75 Z  M 8.375 4.625 C 8.375 4.418 8.207 4.25 8 4.25 C 7.793 4.25 7.625 4.418 7.625 4.625 L 7.625 6.125 C 7.625 6.332 7.793 6.5 8 6.5 C 8.207 6.5 8.375 6.332 8.375 6.125 L 8.375 4.625 Z " fill="rgb(33,37,41)"/></g></svg>
