<?xml version="1.0" encoding="UTF-8" standalone="no"?><svg xmlns="http://www.w3.org/2000/svg" xmlns:xlink="http://www.w3.org/1999/xlink" style="isolation:isolate" viewBox="0 0 16 16" width="16pt" height="16pt"><defs><clipPath id="_clipPath_ZvDfAhJTdZb6CQgReTb8UW182DsCDh9y"><rect width="16" height="16"/></clipPath></defs><mask id="_mask_4zrgTE3y5RN3z17TkXHb5uZwY92ztZ7h" x="-200%" y="-200%" width="400%" height="400%"><rect x="-200%" y="-200%" width="400%" height="400%" style="fill:white;"/><path d=" M 8.029 10.435 L 9.005 9.393 L 6.466 7.014 L 7.442 5.972 L 9.981 8.352 L 10.957 7.311 L 10.951 10.441 L 8.029 10.435 Z " fill="rgb(33,37,41)" stroke="none"/></mask><g clip-path="url(#_clipPath_ZvDfAhJTdZb6CQgReTb8UW182DsCDh9y)" mask="url(#_mask_4zrgTE3y5RN3z17TkXHb5uZwY92ztZ7h)"><g><path d=" M 5.5 0.054 L 11 2.804 L 11 9.25 L 5.5 12 L 5.311 11.907 L 0 9.251 L 0 2.803 L 5.5 0.054 Z  M 5.5 1 L 1.56 2.973 L 5.5 5.122 L 9.44 2.972 L 5.5 1 Z  M 10.154 3.548 L 5.923 5.855 L 5.923 10.842 L 10.154 8.727 L 10.154 3.548 Z  M 0.846 3.548 L 0.846 8.727 L 5.077 10.842 L 5.077 5.855 L 0.846 3.548 Z " fill="rgb(33,37,41)"/><path d=" M 13.671 10.836 L 16 12 L 16 14.73 L 13.671 15.895 L 13.591 15.855 L 11.342 14.731 L 11.342 12 L 13.671 10.836 Z  M 13.671 11.236 L 12.002 12.072 L 13.671 12.982 L 15.339 12.072 L 13.671 11.236 Z  M 15.642 12.315 L 13.85 13.293 L 13.85 15.405 L 15.642 14.509 L 15.642 12.315 Z  M 11.7 12.315 L 11.7 14.509 L 13.492 15.405 L 13.492 13.293 L 11.7 12.315 Z " fill="rgb(33,37,41)"/><path d=" M 15.642 11.907 Q 14.5 9.688 11 2.973 Q 16.783 14.126 15.642 11.907 Z " fill="none"/><line x1="13.671" y1="15.656" x2="5.5" y2="11.821" vector-effect="non-scaling-stroke" stroke-width="0.2" stroke-dasharray="0.5,0.5" stroke="rgb(0,0,0)" stroke-linejoin="miter" stroke-linecap="square" stroke-miterlimit="3"/><line x1="10.885" y1="2.973" x2="15.83" y2="12" vector-effect="non-scaling-stroke" stroke-width="0.2" stroke-dasharray="0.5,0.5" stroke="rgb(0,0,0)" stroke-linejoin="miter" stroke-linecap="square" stroke-miterlimit="3"/><path d=" M 8.029 10.435 L 9.005 9.393 L 6.466 7.014 L 7.442 5.972 L 9.981 8.352 L 10.957 7.311 L 10.96 10.45 L 8.029 10.435 Z " fill="none" vector-effect="non-scaling-stroke" stroke-width="0.5" stroke="rgb(0,1,1)" stroke-linejoin="miter" stroke-linecap="butt" stroke-miterlimit="4"/></g></g></svg>
