<?xml version="1.0" encoding="UTF-8" standalone="no"?><svg xmlns="http://www.w3.org/2000/svg" xmlns:xlink="http://www.w3.org/1999/xlink" style="isolation:isolate" viewBox="0 0 16 16" width="16pt" height="16pt"><defs><clipPath id="_clipPath_1O5iicxXTSQODiinENVbBzGU8Ksr5rIu"><rect width="16" height="16"/></clipPath></defs><mask id="_mask_wDjBt6dFsmRjhfdtQeL7KIEg2PcjE0iY" x="-200%" y="-200%" width="400%" height="400%"><rect x="-200%" y="-200%" width="400%" height="400%" style="fill:white;"/><path d=" M 8.979 9.78 L 7.932 8.81 L 5.568 11.363 L 4.52 10.394 L 6.884 7.84 L 5.837 6.871 L 8.977 6.861 L 8.979 9.78 Z " fill="rgb(33,37,41)" stroke="none"/></mask><g clip-path="url(#_clipPath_1O5iicxXTSQODiinENVbBzGU8Ksr5rIu)" mask="url(#_mask_wDjBt6dFsmRjhfdtQeL7KIEg2PcjE0iY)"><g><path d=" M 10.5 0.054 L 5 2.804 L 5 9.25 L 10.5 12 L 10.689 11.907 L 16 9.251 L 16 2.803 L 10.5 0.054 Z  M 10.5 1 L 14.44 2.973 L 10.5 5.122 L 6.56 2.972 L 10.5 1 Z  M 5.846 3.548 L 10.077 5.855 L 10.077 10.842 L 5.846 8.727 L 5.846 3.548 Z  M 15.154 3.548 L 15.154 8.727 L 10.923 10.842 L 10.923 5.855 L 15.154 3.548 Z " fill="rgb(33,37,41)"/><path d=" M 0.358 11.907 Q 1.5 9.688 5 2.973 Q -0.783 14.126 0.358 11.907 Z " fill="none"/><line x1="2.329" y1="15.656" x2="10.5" y2="11.821" vector-effect="non-scaling-stroke" stroke-width="0.2" stroke-dasharray="0.5,0.5" stroke="rgb(0,0,0)" stroke-linejoin="miter" stroke-linecap="square" stroke-miterlimit="3"/><line x1="5.115" y1="2.973" x2="0.17" y2="12" vector-effect="non-scaling-stroke" stroke-width="0.2" stroke-dasharray="0.5,0.5" stroke="rgb(0,0,0)" stroke-linejoin="miter" stroke-linecap="square" stroke-miterlimit="3"/><path d=" M 8.979 9.78 L 7.932 8.81 L 5.568 11.363 L 4.52 10.394 L 6.884 7.84 L 5.837 6.871 L 8.977 6.861 L 8.979 9.78 Z " fill="none" vector-effect="non-scaling-stroke" stroke-width="0.5" stroke="rgb(0,1,1)" stroke-linejoin="miter" stroke-linecap="butt" stroke-miterlimit="4"/><path d=" M 2.329 10.836 L 0 12 L 0 14.73 L 2.329 15.895 L 2.409 15.855 L 4.658 14.731 L 4.658 12 L 2.329 10.836 Z  M 2.329 11.236 L 3.998 12.072 L 2.329 12.982 L 0.661 12.072 L 2.329 11.236 Z  M 0.358 12.315 L 2.15 13.293 L 2.15 15.405 L 0.358 14.509 L 0.358 12.315 Z  M 4.3 12.315 L 4.3 14.509 L 2.508 15.405 L 2.508 13.293 L 4.3 12.315 Z " fill="rgb(33,37,41)"/></g></g></svg>
