<?xml version="1.0" encoding="UTF-8" standalone="no"?><svg xmlns="http://www.w3.org/2000/svg" xmlns:xlink="http://www.w3.org/1999/xlink" style="isolation:isolate" viewBox="0 0 16 16" width="16pt" height="16pt"><defs><clipPath id="_clipPath_YWKrbPVHsE6PXMtwwfUbgaBdJQvjtDRW"><rect width="16" height="16"/></clipPath></defs><mask id="_mask_iNkyzeopJRPTu2wwOrYaNuXlf4BBc2nb" x="-200%" y="-200%" width="400%" height="400%"><rect x="-200%" y="-200%" width="400%" height="400%" style="fill:white;"/><path d=" M 6.051 8.283 L 7.298 8.283 L 7.298 10.668 L 8.709 10.668 L 8.709 8.283 L 9.949 8.283 L 8.004 6.332 L 6.051 8.283 Z " fill="black" stroke="none"/></mask><g clip-path="url(#_clipPath_YWKrbPVHsE6PXMtwwfUbgaBdJQvjtDRW)" mask="url(#_mask_iNkyzeopJRPTu2wwOrYaNuXlf4BBc2nb)"><path d=" M 0 7 C 0 5.895 0.895 5 2 5 L 14 5 C 15.105 5 16 5.895 16 7 L 16 10 C 16 11.105 15.105 12 14 12 L 2 12 C 0.895 12 0 11.105 0 10 L 0 7 Z " fill="rgb(33,37,41)"/></g></svg>
