<?xml version="1.0" encoding="UTF-8" standalone="no"?><svg xmlns="http://www.w3.org/2000/svg" xmlns:xlink="http://www.w3.org/1999/xlink" style="isolation:isolate" viewBox="0 0 16 16" width="16pt" height="16pt"><defs><clipPath id="_clipPath_rhhodKGETGpNMEVcMhn5QEXJa6yoBLds"><rect width="16" height="16"/></clipPath></defs><mask id="_mask_iNqB1Z2tm542Hlo8hphF3zJK4dmC7lmC" x="-200%" y="-200%" width="400%" height="400%"><rect x="-200%" y="-200%" width="400%" height="400%" style="fill:white;"/><path d=" M 11.532 10.539 C 11.532 10.41 11.427 10.305 11.298 10.305 L 4.768 10.305 C 4.639 10.305 4.534 10.41 4.534 10.539 L 4.534 10.866 C 4.534 10.995 4.639 11.1 4.768 11.1 L 11.298 11.1 C 11.427 11.1 11.532 10.995 11.532 10.866 L 11.532 10.539 Z " fill-rule="evenodd" fill="rgb(33,37,41)" stroke="none"/></mask><g clip-path="url(#_clipPath_rhhodKGETGpNMEVcMhn5QEXJa6yoBLds)" mask="url(#_mask_iNqB1Z2tm542Hlo8hphF3zJK4dmC7lmC)"><path d=" M 0 7 C 0 5.895 0.895 5 2 5 L 14 5 C 15.105 5 16 5.895 16 7 L 16 10 C 16 11.105 15.105 12 14 12 L 2 12 C 0.895 12 0 11.105 0 10 L 0 7 Z  M 14 11" fill="rgb(33,37,41)"/></g></svg>
